<?xml version="1.0" encoding="utf-8" ?>
<svg baseProfile="full" height="200mm" version="1.1" viewBox="0,0,200,200" width="200mm" xmlns="http://www.w3.org/2000/svg" xmlns:ev="http://www.w3.org/2001/xml-events" xmlns:xlink="http://www.w3.org/1999/xlink"><defs /><rect fill="#1a1a1a" height="200" width="200" x="0" y="0" /><rect fill="#1a1a1a" height="200" width="180" x="10" y="0" /><text alignment-baseline="middle" fill="#e1ed5e" style="dominant-baseline: central; font-size:9.0px; font-family:Arial;" text-anchor="middle" x="100.0" y="100.0">2019</text><line stroke="#e1ed5e" stroke-width="0.3" x1="100.0" x2="100.0" y1="15.0" y2="10.0" /><path d="M 100.0 14.0 a86.0,86.0 0 0,1 42.46469731375804,11.215312516191453" fill="none" id="id37" stroke="none" /><text fill="#e1ed5e" style="font-size:6.75px; font-family:Arial;" text-anchor="middle"><textPath startOffset="22.20632615414155" xlink:href="#id37">January</textPath></text><line stroke="#e1ed5e" stroke-width="0.3" x1="143.23703022742887" x2="145.7803849466894" y1="26.81831364943548" y2="22.513508569990506" /><path d="M 143.74570117128098 25.957352633546492 a86.0,86.0 0 0,1 28.547481713284135,27.462654790039103" fill="none" id="id38" stroke="none" /><text fill="#e1ed5e" style="font-size:6.75px; font-family:Arial;" text-anchor="middle"><textPath startOffset="19.985693538727396" xlink:href="#id38">February</textPath></text><line stroke="#e1ed5e" stroke-width="0.3" x1="172.23445277983987" x2="176.4835382374775" y1="55.19839476539836" y2="52.563006222186495" /><path d="M 173.08426987136738 54.67131705675599 a86.0,86.0 0 0,1 12.851231095245387,41.99856678651699" fill="none" id="id39" stroke="none" /><text fill="#e1ed5e" style="font-size:6.75px; font-family:Arial;" text-anchor="middle"><textPath startOffset="22.20632615414155" xlink:href="#id39">March</textPath></text><line stroke="#e1ed5e" stroke-width="0.3" x1="184.98032266829074" x2="189.97916517819016" y1="98.17113171792111" y2="98.06355123074" /><path d="M 185.9800911702706 98.14961562048488 a86.0,86.0 0 0,1 -9.607161424134198,41.387399972396054" fill="none" id="id40" stroke="none" /><text fill="#e1ed5e" style="font-size:6.75px; font-family:Arial;" text-anchor="middle"><textPath startOffset="21.466115282336823" xlink:href="#id40">April</textPath></text><path d="M 120.99513854157772 99.54816195383933 l 28.660394275622423 -0.6168026243811809 a49.66703063645717,49.66703063645717 0 0,0 0.011037889450692822,0.8548967021371165 l -28.666765172190832 0.12336966418360172" fill="red" stroke="none" /><path d="M 120.99980553446 99.90962569577887 l 28.134968236370778 -0.12108103451116022 a49.135228776011594,49.135228776011594 0 0,0 -0.003639990885130037,0.8458056899438932 l -28.132883948196145 -0.3632341336364177" fill="red" stroke="none" /><path d="M 120.99824983174949 100.27111621757518 l 38.27529920458104 0.4941866312693513 a59.278489385381015,59.278489385381015 0 0,0 -0.021955446407949736,1.0201833223073464 l -38.26112169548808 -1.1529597693668125" fill="red" stroke="none" /><path d="M 120.9904718944345 100.63252640178507 l 7.964813690199665 0.24001151425691605 a28.968429120383007,28.968429120383007 0 0,0 -0.019309343920783716,0.49828836745449434 l -7.959502213427678 -0.37707712872541654" fill="red" stroke="none" /><path d="M 120.89721153311464 102.0752229133903 l 54.73061449898208 5.435089992377112 a75.99982151481426,75.99982151481426 0 0,0 -0.14048276940647286,1.3006959708820764 l -54.628949428074556 -6.37638228514398" fill="red" stroke="none" /><path d="M 120.81339534386255 102.79330883721812 l 12.163400159902539 1.6324166526387947 a33.272452386451924,33.272452386451924 0 0,0 -0.08106745720751238,0.5669856068956217 l -12.133498651678424 -1.8415477315148259" fill="red" stroke="none" /><path d="M 120.76222939487914 103.15116336523771 l 15.860393597022572 2.4071929035479718 a37.04202801167503,37.04202801167503 0 0,0 -0.101104002882344,0.6295747224596634 l -15.81660783977894 -2.67984685570084" fill="red" stroke="none" /><path d="M 120.70491114924044 103.5080841355445 l 11.454372658964964 1.9407425957007196 a32.617621737395794,32.617621737395794 0 0,0 -0.09855734007963694,0.5527619034293214 l -11.419268876546138 -2.137623249863259" fill="red" stroke="none" /><path d="M 120.49622156327973 104.57218783832717 l 11.328592150613135 2.5271219427681526 a32.60703861579489,32.60703861579489 0 0,0 -0.12691813729217544,0.5467600136984307 l -11.283413447390405 -2.721750613815148" fill="red" stroke="none" /><path d="M 120.41448212921028 104.9243191809786 l 13.6837429663731 3.3007507871324453 a35.07621317430653,35.07621317430653 0 0,0 -0.1466330787656496,0.5857262599805522 l -13.62489857331239 -3.5358048865103933" fill="red" stroke="none" /><path d="M 120.32669344350535 105.2749913415812 l 9.892952998206058 2.567325647589804 a31.220649686076058,31.220649686076058 0 0,0 -0.13946996213858495,0.5190196132171012 l -9.847294959725694 -2.7372361939824534" fill="red" stroke="none" /><path d="M 120.23288151984713 105.62410040840565 l 11.12759625237965 3.093119413870542 a32.54949289208996,32.54949289208996 0 0,0 -0.154699002678769,0.5385275229273048 l -11.072704612814782 -3.2842044123024285" fill="red" stroke="none" /><path d="M 120.13307415673323 105.97154293290107 l 11.499480296018744 3.4107876303013716 a32.994645444428116,32.994645444428116 0 0,0 -0.16618810184157085,0.5431123323974735 l -11.439065421671039 -3.608226935250902" fill="red" stroke="none" /><path d="M 119.79798401119884 107.00284435728193 l 8.366012856001623 2.9591844244575394 a29.873947462360622,29.873947462360622 0 0,0 -0.17565274950504806,0.4833209267838152 l -8.313835845491347 -3.1027531482474857" fill="red" stroke="none" /><path d="M 119.54520255179757 107.68017299344265 l 9.813642794811486 3.8562135214644986 a31.544096340003776,31.544096340003776 0 0,0 -0.20292975957845072,0.50365502112526 l -9.745810420975642 -4.024567910432572" fill="red" stroke="none" /><path d="M 119.41010516605496 108.01547362559984 l 11.180078738371598 4.616854236125743 a33.09584654473679,33.09584654473679 0 0,0 -0.22197702440171854,0.5246881147326837 l -11.09895073277757 -4.8086168765245905" fill="red" stroke="none" /><path d="M 119.12269723197855 108.67885076344098 l 25.775466854627684 11.698215344603238 a49.30588161182621,49.30588161182621 0 0,0 -0.35740984382905516,0.7698290069354057 l -25.5702823939588 -12.140164418817474" fill="red" stroke="none" /><line stroke="#e1ed5e" stroke-width="0.3" x1="174.80103733775053" x2="179.2010983576182" y1="140.37084112569926" y2="142.7455964860345" /><path d="M 175.68104954172406 140.8457921977663 a86.0,86.0 0 0,1 -30.038265399797805,32.042727171017184" fill="none" id="id41" stroke="none" /><text fill="#e1ed5e" style="font-size:6.75px; font-family:Arial;" text-anchor="middle"><textPath startOffset="22.206326154141568" xlink:href="#id41">May</textPath></text><path d="M 111.45004920935366 117.60387380957326 l 6.11440273487754 9.40058616322486 a32.21414022636121,32.21414022636121 0 0,0 -0.46743975039925123,0.29834216485113213 l -5.951681182431359 -9.5044427568998" fill="red" stroke="none" /><line stroke="#e1ed5e" stroke-width="0.3" x1="143.8653032363475" x2="146.44561519142675" y1="172.8068346515853" y2="177.08958963109032" /><path d="M 144.38136562736335 173.6633856474863 a86.0,86.0 0 0,1 -40.68145358897372,12.25698825130547" fill="none" id="id42" stroke="none" /><text fill="#e1ed5e" style="font-size:6.75px; font-family:Arial;" text-anchor="middle"><textPath startOffset="21.466115282336833" xlink:href="#id42">June</textPath></text><path d="M 105.53697534728816 120.25689768951611 l 3.9566184313438795 14.47519805184633 a36.00620498498624,36.00620498498624 0 0,0 -0.5992625123971902,0.1582706761363166 l -3.706865476135192 -14.54116007728623" fill="red" stroke="none" /><line stroke="#e1ed5e" stroke-width="0.3" x1="102.19456741930631" x2="102.32365962044197" y1="184.97166512339345" y2="189.96999836594603" /><path d="M 102.22038585953345 185.97133177190398 a86.0,86.0 0 0,1 -42.740103519485714,-10.115201625700543" fill="none" id="id43" stroke="none" /><text fill="#e1ed5e" style="font-size:6.75px; font-family:Arial;" text-anchor="middle"><textPath startOffset="22.20632615414155" xlink:href="#id43">July</textPath></text><line stroke="#e1ed5e" stroke-width="0.3" x1="58.666819895761336" x2="56.23545636021788" y1="174.27360380694188" y2="178.64263932499728" /><path d="M 58.180547188652646 175.14741091055294 a86.0,86.0 0 0,1 -31.652253787137756,-30.449443065178592" fill="none" id="id44" stroke="none" /><text fill="#e1ed5e" style="font-size:6.75px; font-family:Arial;" text-anchor="middle"><textPath startOffset="22.20632615414155" xlink:href="#id44">August</textPath></text><path d="M 87.65650970185807 116.9893568818739 l -30.614307893662414 42.13697989257489 a73.08417151376435,73.08417151376435 0 0,0 -1.011398031733683,-0.7482080847645657 l 31.33509089581466 -41.60376185907056" fill="red" stroke="none" /><path d="M 87.07902340077011 116.55440617244103 l -7.658085903902798 9.811569859526578 a33.44641244776683,33.44641244776683 0 0,0 -0.4507979256583471,-0.35814113608092407 l 7.825841322278503 -9.678294809440523" fill="red" stroke="none" /><line stroke="#e1ed5e" stroke-width="0.3" x1="26.63291911575756" x2="22.317208475507996" y1="142.92168965132927" y2="145.44649492493687" /><path d="M 25.769776987707644 143.4266507060508 a86.0,86.0 0 0,1 -11.730757126820373,-40.83630448921669" fill="none" id="id45" stroke="none" /><text fill="#e1ed5e" style="font-size:6.75px; font-family:Arial;" text-anchor="middle"><textPath startOffset="21.46611528233685" xlink:href="#id45">September</textPath></text><path d="M 79.76711848015287 105.62410040840567 l -60.698644559541364 16.872301225217015 a84.0,84.0 0 0,0 -0.3752476946329004,-1.3964362672978443 l 60.98008033051604 -15.824974024743632" fill="red" stroke="none" /><line stroke="#e1ed5e" stroke-width="0.3" x1="15.007084014347285" x2="10.007500721073583" y1="101.09737516637583" y2="101.16192664675087" /><path d="M 14.007167355692545 101.11028546245083 a86.0,86.0 0 0,1 10.666146001902534,-42.60595125391555" fill="none" id="id46" stroke="none" /><text fill="#e1ed5e" style="font-size:6.75px; font-family:Arial;" text-anchor="middle"><textPath startOffset="22.20632615414155" xlink:href="#id46">October</textPath></text><path d="M 80.52162464483688 92.15188598940014 l -8.51133385030903 -3.4293372635822528 a30.176227873086532,30.176227873086532 0 0,0 0.19826976276505337,-0.48012595715208567 l 8.451042400657778 3.57533779118765" fill="red" stroke="none" /><line stroke="#e1ed5e" stroke-width="0.3" x1="26.266209847984243" x2="21.928928074336255" y1="57.711370442889674" y2="55.22380399835377" /><path d="M 25.398753493254645 57.213857153982495 a86.0,86.0 0 0,1 29.58750427330803,-30.492523968695096" fill="none" id="id47" stroke="none" /><text fill="#e1ed5e" style="font-size:6.75px; font-family:Arial;" text-anchor="middle"><textPath startOffset="21.46611528233685" xlink:href="#id47">November</textPath></text><line stroke="#e1ed5e" stroke-width="0.3" x1="56.762969772571076" x2="54.21961505331055" y1="26.818313649435495" y2="22.513508569990535" /><path d="M 56.25429882871897 25.957352633546506 a86.0,86.0 0 0,1 42.265352541879196,-11.944610805530505" fill="none" id="id48" stroke="none" /><text fill="#e1ed5e" style="font-size:6.75px; font-family:Arial;" text-anchor="middle"><textPath startOffset="22.20632615414155" xlink:href="#id48">December</textPath></text></svg>