<?xml version="1.0" encoding="utf-8" ?>
<svg baseProfile="full" height="200mm" version="1.1" viewBox="0,0,200,200" width="200mm" xmlns="http://www.w3.org/2000/svg" xmlns:ev="http://www.w3.org/2001/xml-events" xmlns:xlink="http://www.w3.org/1999/xlink"><defs /><rect fill="#1a1a1a" height="200" width="200" x="0" y="0" /><text alignment-baseline="middle" fill="#e1ed5e" style="dominant-baseline: central; font-size:9.0px; font-family:Arial;" text-anchor="middle" x="100.0" y="100.0">2025</text><line stroke="#e1ed5e" stroke-width="0.3" x1="100.0" x2="100.0" y1="15.0" y2="10.0" /><path d="M 100.0 14.0 a86.0,86.0 0 0,1 42.46469731375804,11.215312516191453" fill="none" id="id109" stroke="none" /><text fill="#e1ed5e" style="font-size:6.75px; font-family:Arial;" text-anchor="middle"><textPath startOffset="22.20632615414155" xlink:href="#id109">January</textPath></text><path d="M 100.72285384407766 79.0124445844662 l 0.8036557518624284 -23.33358225236622 a44.34741791495242,44.34741791495242 0 0,0 0.7626893590403173,0.03284300815996021 l -1.2051859432920773 23.316291517682064" fill="#ffe415" stroke="none" /><path d="M 102.52436894288641 79.15227682838746 l 3.3431056827338947 -27.609332622904653 a48.81099788731276,48.81099788731276 0 0,0 0.8332392299731555,0.10817836617653889 l -3.8178596412148966 27.547695933563976" fill="#dcff1b" stroke="none" /><path d="M 104.307194497241 79.44645832069477 l 5.302882148659109 -25.30487288947009 a46.854538306355536,46.854538306355536 0 0,0 0.7879533861579378,0.1722160909619342 l -5.737678258970575 25.209843300412288" fill="#f7ff19" stroke="none" /><path d="M 105.01212808612495 79.60689891045804 l 7.021800129044978 -28.56995619457183 a50.420198401982425,50.420198401982425 0 0,0 0.8410355871881879,0.21439869761277466 l -7.512544604918191 28.444854500790186" fill="#c7ff1e" stroke="none" /><path d="M 106.74666289553966 80.11325718540242 l 9.087868413151766 -26.78777710751444 a49.28735326354582,49.28735326354582 0 0,0 0.8010790781399489,0.27948076076300243 l -9.547629495354988 26.62737549357923" fill="#d6ff1c" stroke="none" /><path d="M 107.4271985657038 80.35727306442388 l 10.457870285173872 -27.65795050746433 a50.56905945705526,50.56905945705526 0 0,0 0.8115535412933533,0.31487016578108185 l -10.932406991466891 27.473837637792702" fill="#c5ff1e" stroke="none" /><path d="M 109.08828744355905 81.06846463323043 l 5.471660674951038 -11.397850059882375 a33.64318221530348,33.64318221530348 0 0,0 0.5199132999080768,0.2551191983062225 l -5.6670452418695465 11.30197570144132" fill="#ff4306" stroke="none" /><line stroke="#e1ed5e" stroke-width="0.3" x1="143.23703022742887" x2="145.7803849466894" y1="26.81831364943548" y2="22.513508569990506" /><path d="M 143.74570117128098 25.957352633546492 a86.0,86.0 0 0,1 28.547481713284135,27.462654790039103" fill="none" id="id110" stroke="none" /><text fill="#e1ed5e" style="font-size:6.75px; font-family:Arial;" text-anchor="middle"><textPath startOffset="19.985693538727396" xlink:href="#id110">February</textPath></text><path d="M 113.6212207817346 84.01681056812373 l 17.706364518559617 -20.776711778248668 a48.29811526059123,48.29811526059123 0 0,0 0.6281197519686105,0.544699259312362 l -18.061378069174992 20.468847525516637" fill="#e3ff1b" stroke="none" /><path d="M 115.4437574822437 85.77008943001954 l 9.213375326712224 -8.489223370511793 a33.52809635760011,33.52809635760011 0 0,0 0.3874193237719047,0.4277980936750922 l -9.358138291100165 8.32937248956715" fill="#ff4206" stroke="none" /><line stroke="#e1ed5e" stroke-width="0.3" x1="172.23445277983987" x2="176.4835382374775" y1="55.19839476539836" y2="52.563006222186495" /><path d="M 173.08426987136738 54.67131705675599 a86.0,86.0 0 0,1 12.851231095245387,41.99856678651699" fill="none" id="id111" stroke="none" /><text fill="#e1ed5e" style="font-size:6.75px; font-family:Arial;" text-anchor="middle"><textPath startOffset="22.20632615414155" xlink:href="#id111">March</textPath></text><path d="M 118.03404312379186 89.2402003453031 l 21.54270768592873 -12.853203085363068 a46.08571473956761,46.08571473956761 0 0,0 0.4005953033727765,0.6847472283395539 l -21.760762663771832 12.48047644466962" fill="#fffd17" stroke="none" /><path d="M 120.08093135843002 93.85539295169968 l 59.0071340138201 -18.055718885225424 a82.70778596730895,82.70778596730895 0 0,0 0.40485107906604106,1.3649565763584293 l -59.309190989997845 17.037332922120463" fill="#4bdfff" stroke="none" /><path d="M 120.53481517161879 95.60439243477599 l 19.90012553617366 -4.259748219044572 a41.35093244166283,41.35093244166283 0 0,0 0.14299684897547385,0.6973034199016637 l -19.970501681064132 3.9165691429794967" fill="#ffb911" stroke="none" /><path d="M 120.87857604477298 97.74499172005257 l 12.225324456632894 -1.3204065169785735 a33.29642352231029,33.29642352231029 0 0,0 0.05664018822470359,0.5703589657620685 l -12.246241770539825 1.10977202051207" fill="#ff3e05" stroke="none" /><line stroke="#e1ed5e" stroke-width="0.3" x1="184.98032266829074" x2="189.97916517819016" y1="98.17113171792111" y2="98.06355123074" /><path d="M 185.9800911702706 98.14961562048488 a86.0,86.0 0 0,1 -9.607161424134198,41.387399972396054" fill="none" id="id112" stroke="none" /><text fill="#e1ed5e" style="font-size:6.75px; font-family:Arial;" text-anchor="middle"><textPath startOffset="21.466115282336823" xlink:href="#id112">April</textPath></text><path d="M 120.99980553446 99.90962569577887 l 27.44071772549332 -0.11809327318295383 a48.44097183613172,48.44097183613172 0 0,0 -0.003588559580218015,0.833854865969708 l -27.4386848686236 -0.354271070990439" fill="#e1ff1b" stroke="none" /><path d="M 120.9904718944345 100.63252640178507 l 25.931083418838156 0.7814066768863408 a46.94285419281051,46.94285419281051 0 0,0 -0.031290468408395264,0.8074679535498626 l -25.91379081757856 -1.2276518774502096" fill="#f6ff19" stroke="none" /><path d="M 120.89721153311464 102.0752229133903 l 14.180381091883758 1.408199927337276 a35.250131050148525,35.250131050148525 0 0,0 -0.06515852186443213,0.6032869882603096 l -14.154040268518274 -1.652083237482377" fill="#ff5d08" stroke="none" /><path d="M 120.13307415673323 105.97154293290107 l 12.005152589455486 3.560771869505407 a33.52209187806777,33.52209187806777 0 0,0 -0.16884475477567543,0.5517944278990373 l -11.942081062173678 -3.7668932699565016" fill="#ff4106" stroke="none" /><path d="M 119.67450827220406 107.3425965602758 l 16.719644213515497 6.239830769475235 a38.84606373008435,38.84606373008435 0 0,0 -0.23919134550357643,0.6244531255511551 l -16.609758588418416 -6.526707461859535" fill="#ff940d" stroke="none" /><path d="M 119.54520255179757 107.68017299344265 l 12.913655939164018 5.074345549898447 a34.87485107937668,34.87485107937668 0 0,0 -0.2243572004279307,0.5568361720620352 l -12.824396124478696 -5.295881089803295" fill="#ff5708" stroke="none" /><path d="M 119.12269723197855 108.67885076344098 l 13.039113942644432 5.917811834957602 a35.31918256477054,35.31918256477054 0 0,0 -0.25602267137267354,0.5514500572906507 l -12.935316654431928 -6.1413819595270835" fill="#ff5e08" stroke="none" /><path d="M 118.81262510543309 109.33194174019688 l 9.751991139768943 4.837443613382678 a31.885871205502518,31.885871205502518 0 0,0 -0.24813483273461537,0.48959356554307715 l -9.667277637248059 -5.00459139062845" fill="#ff2703" stroke="none" /><line stroke="#e1ed5e" stroke-width="0.3" x1="174.80103733775053" x2="179.2010983576182" y1="140.37084112569926" y2="142.7455964860345" /><path d="M 175.68104954172406 140.8457921977663 a86.0,86.0 0 0,1 -30.038265399797805,32.042727171017184" fill="none" id="id113" stroke="none" /><text fill="#e1ed5e" style="font-size:6.75px; font-family:Arial;" text-anchor="middle"><textPath startOffset="22.206326154141568" xlink:href="#id113">May</textPath></text><path d="M 118.30583269289576 110.29060199501025 l 17.957907592947393 10.095016315423415 a41.60086890219688,41.60086890219688 0 0,0 -0.3562777728755552,0.6212003277513772 l -17.781477823919456 -10.402636489033107" fill="#ffbd11" stroke="none" /><path d="M 116.71984013943494 112.70617746262583 l 10.364080533748979 7.876142678431785 a34.01721125283942,34.01721125283942 0 0,0 -0.35830358220861375,0.4631556798135752 l -10.226970134322297 -8.053376352358613" fill="#ff4906" stroke="none" /><path d="M 114.29624159901734 115.38237550388516 l 9.152848878801558 9.848221814726276 a34.44478023287214,34.44478023287214 0 0,0 -0.43777749346040157,0.399899360671891 l -8.981971835874292 -10.00431394198475" fill="#ff5007" stroke="none" /><path d="M 113.75828350139079 115.86535959552629 l 9.88713398254125 11.401344941489828 a36.09125855797182,36.09125855797182 0 0,0 -0.47285482014676866,0.40297713609532054 l -9.689413685817435 -11.569846467808095" fill="#ff6a09" stroke="none" /><path d="M 112.92097659922987 116.55440617244103 l 14.63053840469007 18.744703499205514 a44.77848950804568,44.77848950804568 0 0,0 -0.6116982010149435,0.46902409638885095 l -14.305711475181633 -18.993766937421736" fill="#ffea16" stroke="none" /><path d="M 112.34349029814194 116.9893568818739 l 8.752627345659976 12.046958035187984 a35.89085905357965,35.89085905357965 0 0,0 -0.5029380475950447,0.3588329431256858 l -8.543961970216047 -12.195835240157889" fill="#ff6709" stroke="none" /><path d="M 111.7513745106137 117.40417183066458 l 11.935710163072383 17.67717898970039 a42.32941241878862,42.32941241878862 0 0,0 -0.607377283297704,0.40253654409875284 l -11.629658181034715 -17.88001355489046" fill="#ffc712" stroke="none" /><path d="M 111.1453310114006 117.79835938074945 l 7.198752888461435 11.495934115459132 a34.56386907693041,34.56386907693041 0 0,0 -0.5069709812624305,0.3114229838280578 l -6.999802707266696 -11.618145566115569" fill="#ff5207" stroke="none" /><line stroke="#e1ed5e" stroke-width="0.3" x1="143.8653032363475" x2="146.44561519142675" y1="172.8068346515853" y2="177.08958963109032" /><path d="M 144.38136562736335 173.6633856474863 a86.0,86.0 0 0,1 -40.68145358897372,12.25698825130547" fill="none" id="id114" stroke="none" /><text fill="#e1ed5e" style="font-size:6.75px; font-family:Arial;" text-anchor="middle"><textPath startOffset="21.466115282336833" xlink:href="#id114">June</textPath></text><path d="M 109.89434966115114 118.52300852407294 l 7.24724609848498 13.567420381894364 a36.38172525534923,36.38172525534923 0 0,0 -0.5549236943366626,0.2903098495634544 l -7.012631501621822 -13.690159650402535" fill="#ff6e0a" stroke="none" /><path d="M 109.2508944713604 118.85261126421891 l 3.745772446088262 7.633596084027069 a29.50309357774848,29.50309357774848 0 0,0 -0.4578421167519962,0.21979203906057354 l -3.6138176613360327 -7.696942399587202" fill="#ff0000" stroke="none" /><path d="M 108.92500713936063 119.00905698771935 l 10.062590054967982 21.43195459815031 a44.67666354264293,44.67666354264293 0 0,0 -0.6989387531471021,0.3208485007888015 l -9.692183306053462 -21.601990169273183" fill="#ffe915" stroke="none" /><path d="M 107.93186726928326 119.44442032107085 l 5.917621782961771 14.506637761656696 a36.667188219783014,36.667188219783014 0 0,0 -0.5864636058967179,0.23336597201574363 l -5.667037101023187 -14.606350578078509" fill="#ff730a" stroke="none" /><path d="M 107.2578585660854 119.70592522655815 l 6.311009679795346 17.135121016998383 a39.26037281781646,39.26037281781646 0 0,0 -0.6361684243946192,0.22810736319950933 l -6.015121694770992 -17.241215921237853" fill="#ff9a0e" stroke="none" /><path d="M 106.57524785965236 119.94407469862006 l 4.160695854259235 12.620243477783093 a34.28841357838387,34.28841357838387 0 0,0 -0.5621318526538825,0.17997686768094848 l -3.942842656514413 -12.68999319212375" fill="#ff4e07" stroke="none" /><path d="M 106.2309692047433 120.05430185196036 l 8.33420463619523 26.823540604731978 a49.088454879036746,49.088454879036746 0 0,0 -0.8090829856997825,0.24377006658240913 l -7.871246676055201 -26.96302604042011" fill="#d9ff1c" stroke="none" /><path d="M 104.83641907484287 120.43548508189849 l 3.836991315329724 16.212569169544558 a37.6604292090925,37.6604292090925 0 0,0 -0.6321210695915056,0.1438686974295135 l -3.557350096345356 -16.276214600551757" fill="#ff820c" stroke="none" /><path d="M 104.48393922423573 120.51570834832081 l 3.3820253874282873 15.474038118106256 a36.8393166330437,36.8393166330437 0 0,0 -0.6206697514227427,0.1300673810695926 l -3.1151641745761665 -15.52996147990239" fill="#ff750a" stroke="none" /><path d="M 103.06178313531738 120.77559828337769 l 2.361777111444977 16.02573739997127 a37.19883484504312,37.19883484504312 0 0,0 -0.6342780571034767,0.0879051591597229 l -2.08557046315467 -16.064017124623593" fill="#ff7b0b" stroke="none" /><path d="M 102.70371172650421 120.8252237178851 l 2.1030610767968927 16.19873782672054 a37.334686194462535,37.334686194462535 0 0,0 -0.6380188116273726,0.07725519279930046 l -1.8239148421181397 -16.23253854824519" fill="#ff7d0b" stroke="none" /><path d="M 101.98527174616119 120.90594882070398 l 1.5250938096383782 16.060034699392567 a37.13228519689292,37.13228519689292 0 0,0 -0.6368287385191725,0.05494826319501741 l -1.2484207533776641 -16.083907214866247" fill="#ff7a0b" stroke="none" /><path d="M 101.62511606390274 120.93702456842531 l 1.7240446461131314 22.21156132445518 a43.27837037154703,43.27837037154703 0 0,0 -0.7432281908943646,0.05125736751322521 l -1.3414536944398363 -22.237947036484687" fill="#ffd513" stroke="none" /><path d="M 100.90346689309514 120.98055641714683 l 0.5926431679247042 13.762522473052567 a34.77527679379855,34.77527679379855 0 0,0 -0.5982666557371507,0.020605513282553254 l -0.3556561605129012 -13.770684784761213" fill="#ff5507" stroke="none" /><line stroke="#e1ed5e" stroke-width="0.3" x1="102.19456741930631" x2="102.32365962044197" y1="184.97166512339345" y2="189.96999836594603" /><path d="M 102.22038585953345 185.97133177190398 a86.0,86.0 0 0,1 -42.740103519485714,-10.115201625700543" fill="none" id="id115" stroke="none" /><text fill="#e1ed5e" style="font-size:6.75px; font-family:Arial;" text-anchor="middle"><textPath startOffset="22.20632615414155" xlink:href="#id115">July</textPath></text><path d="M 100.54218724476979 120.99299961872073 l 0.35530735134712405 13.757179209418373 a34.761766714850765,34.761766714850765 0 0,0 -0.5983001781568759,0.010300280152367159 l -0.11844748329758022 -13.7612569668499" fill="#ff5507" stroke="none" /><path d="M 99.81925306533755 120.99922214144158 l -0.23022387065550076 26.74746441031505 a47.74845519673407,47.74845519673407 0 0,0 -0.8218198311168388,-0.014148373683176417 l 0.6906033916650074 -26.739538559352717" fill="#ebff1a" stroke="none" /><path d="M 99.09653310690486 120.98055641714683 l -0.5721492959354414 13.286608147068334 a34.29892141756549,34.29892141756549 0 0,0 -0.5896342796328224,-0.03047735721427734 l 0.8007716439817527 -13.274790983091854" fill="#ff4e07" stroke="none" /><path d="M 98.37488393609728 120.93702456842531 l -1.068885608977427 13.770883663689084 a34.81230441758137,34.81230441758137 0 0,0 -0.5970404404049124,-0.051515161413291904 l 1.3057703671238812 -13.750444249997129" fill="#ff5608" stroke="none" /><path d="M 98.01472825383883 120.90594882070398 l -1.5607844248388802 16.43587552632427 a37.5098168474894,37.5098168474894 0 0,0 -0.6422527355072157,-0.06657212204831789 l 1.8434697569516894 -16.406574035820192" fill="#ff800b" stroke="none" /><path d="M 97.2962882734958 120.8252237178851 l -2.0361264632636615 15.683176834165392 a36.814798341619934,36.814798341619934 0 0,0 -0.6277298432074555,-0.08699763638119132 l 2.305784897657948 -15.645804632291595" fill="#ff750a" stroke="none" /><path d="M 96.93821686468263 120.77559828337769 l -3.12181213845884 21.182922512266845 a42.41172382571124,42.41172382571124 0 0,0 -0.721330795861154,-0.11265703539644076 l 3.4859787979285115 -21.1260471695233" fill="#ffc912" stroke="none" /><path d="M 96.22490169976321 120.6578951692458 l -4.531341285706691 24.79616842039125 a46.206805076803334,46.206805076803334 0 0,0 -0.7811862966399142,-0.14971621299009166 l 4.9574951969183 -24.71449500905269" fill="#fffe18" stroke="none" /><path d="M 95.51606077576429 120.51570834832081 l -2.6945623529816727 12.328636182520892 a33.619664670468445,33.619664670468445 0 0,0 -0.5642978276432749,-0.1284323483756106 l 2.9063803300178104 -12.280427100567595" fill="#ff4306" stroke="none" /><path d="M 95.16358092515715 120.4354850818985 l -3.1809944069168576 13.440763246982318 a34.81205423093419,34.81205423093419 0 0,0 -0.5819360613862222,-0.14302572545470246 l 3.41188375304629 -13.384016263213585" fill="#ff5608" stroke="none" /><path d="M 94.46302465271185 120.25689768951611 l -3.5877362697763577 13.125651099281242 a34.607151366892765,34.607151366892765 0 0,0 -0.5732737772013238,-0.1620128957140794 l 3.8131412150822954 -13.06194941022864" fill="#ff5307" stroke="none" /><path d="M 94.11515582081647 120.15858648285463 l -7.5240620894351995 25.773742127066942 a47.84953060219529,47.84953060219529 0 0,0 -0.7886628572717659,-0.23761764939591543 l 7.966599921147211 -25.6404091085653" fill="#e9ff1a" stroke="none" /><path d="M 93.42475214034765 119.94407469862007 l -4.3017775508650375 13.048173185647084 a34.73899972995727,34.73899972995727 0 0,0 -0.5662957645261864,-0.1921182698468642 l 4.525743048328449 -12.972191928902097" fill="#ff5507" stroke="none" /><path d="M 93.08242187328487 119.8279376855182 l -7.011914231774217 20.09833440216422 a42.28638031547345,42.28638031547345 0 0,0 -0.6852013368156088,-0.24568882108621148 l 7.356835129219553 -19.97465804003805" fill="#ffc712" stroke="none" /><path d="M 92.7421414339146 119.70592522655815 l -4.591515269935915 12.466494870643151 a34.28516115197052,34.28516115197052 0 0,0 -0.552039712929234,-0.20873418326931 l 4.805425203625432 -12.38561243726721" fill="#ff4e07" stroke="none" /><path d="M 92.40401165467489 119.57807347666478 l -4.528598106247034 11.672111967490732 a33.51984019824313,33.51984019824313 0 0,0 -0.5361241836683225,-0.2133348770237892 l 4.728843365957214 -11.592430246060877" fill="#ff4106" stroke="none" /><path d="M 92.06813273071674 119.44442032107085 l -5.24668960802279 12.86189425126478 a34.890863024796275,34.890863024796275 0 0,0 -0.5541475534063933,-0.23163372226657053 l 5.467308620926646 -12.769675485978235" fill="#ff5708" stroke="none" /><path d="M 91.40352486487194 119.15986991738527 l -10.71469860813341 23.8809777622613 a47.17452702810033,47.17452702810033 0 0,0 -0.7380162815840877,-0.3387870774624858 l 11.124182885484919 -23.693003614464736" fill="#f2ff19" stroke="none" /><path d="M 90.7491055286396 118.85261126421891 l -5.661365787232228 11.537427947282858 a33.851587692405445,33.851587692405445 0 0,0 -0.5209051562635799,-0.2611926591642167 l 5.859124851178568 -11.43826744720934" fill="#ff4706" stroke="none" /><path d="M 90.10565033884886 118.52300852407294 l -10.263621570811909 19.214314872099386 a42.78375137006974,42.78375137006974 0 0,0 -0.6465993670259015,-0.3525775298750712 l 10.59284374970645 -19.03479669046455" fill="#ffce13" stroke="none" /><line stroke="#e1ed5e" stroke-width="0.3" x1="58.666819895761336" x2="56.23545636021788" y1="174.27360380694188" y2="178.64263932499728" /><path d="M 58.180547188652646 175.14741091055294 a86.0,86.0 0 0,1 -31.652253787137756,-30.449443065178592" fill="none" id="id116" stroke="none" /><text fill="#e1ed5e" style="font-size:6.75px; font-family:Arial;" text-anchor="middle"><textPath startOffset="22.20632615414155" xlink:href="#id116">August</textPath></text><path d="M 89.7882731507175 118.34994917583269 l -7.5513702945248555 13.569424952074586 a36.52908519053897,36.52908519053897 0 0,0 -0.5468077606136282,-0.31049171728235037 l 7.783826822059691 -13.437430068997603" fill="#ff710a" stroke="none" /><path d="M 89.1626897886671 117.98757091392108 l -17.207391050649605 28.560515545956882 a54.343625403078484,54.343625403078484 0 0,0 -0.7970936654873879,-0.48964003241051324 l 17.696463916069302 -28.260087046717988" fill="#95ff23" stroke="none" /><path d="M 88.54995079064634 117.60387380957326 l -11.286582309811049 17.352551686936465 a41.70019300112782,41.70019300112782 0 0,0 -0.5983487246984085,-0.3965529077713895 l 11.58360573324942 -17.155700758073756" fill="#ffbe11" stroke="none" /><path d="M 88.24862548938628 117.40417183066458 l -8.791690608187963 13.020782708332925 a36.71097088303973,36.71097088303973 0 0,0 -0.5206719017296627,-0.3581228817495369 l 9.014519394540518 -12.867519037218287" fill="#ff740a" stroke="none" /><path d="M 87.95078237400918 117.19931262002967 l -12.336270095842615 17.609057494807526 a42.500289898813406,42.500289898813406 0 0,0 -0.5955558988438466,-0.42491332083524 l 12.637553322535348 -17.394099912128066" fill="#ffca12" stroke="none" /><path d="M 87.65650970185807 116.9893568818739 l -15.475734538134356 21.30052122429944 a47.32889218941115,47.32889218941115 0 0,0 -0.6549755906515382,-0.4845352837091218 l 15.840095099204458 -21.030975991850553" fill="#f0ff19" stroke="none" /><path d="M 87.07902340077011 116.55440617244103 l -14.009714552474604 17.949301531545657 a43.76948675996378,43.76948675996378 0 0,0 -0.5899345369054546,-0.4686796749389196 l 14.316606582097416 -17.705487942601607" fill="#ffdc14" stroke="none" /><path d="M 86.51685102203217 116.09983520530335 l -12.620814719512433 15.07014700147902 a40.656914682382094,40.656914682382094 0 0,0 -0.5326724211897366,-0.4539549934192847 l 12.878352617279225 -14.850667617836784" fill="#ffaf10" stroke="none" /><path d="M 86.24171649860922 115.8653595955263 l -11.154824536602483 12.863181840983907 a38.02620208727146,38.02620208727146 0 0,0 -0.49082346979401925,-0.4330946450269343 l 11.37459035930309 -12.669264054184683" fill="#ff880c" stroke="none" /><path d="M 85.70375840098266 115.38237550388516 l -19.37633189765311 20.848417472050475 a49.4622337299255,49.4622337299255 0 0,0 -0.6186645881827272,-0.5849859832233629 l 19.732332320226654 -20.511796852081183" fill="#d4ff1c" stroke="none" /><path d="M 85.18274418774928 114.88116024355367 l -31.100632166088186 31.23476416980863 a65.07788350038918,65.07788350038918 0 0,0 -0.7870066007841743,-0.7972335315282845 l 31.633679391927892 -30.694790144299684" fill="#32ff4c" stroke="none" /><path d="M 84.67929136418377 114.36230785411682 l -14.917996412171343 13.984787657754463 a41.448004860769146,41.448004860769146 0 0,0 -0.4834684605740899,-0.5247095277725365 l 15.156511280741162 -13.725926875180582" fill="#ffbb11" stroke="none" /><path d="M 84.19399662182784 113.82643327865904 l -11.893482121964254 10.40392267898398 a36.80178863596652,36.80178863596652 0 0,0 -0.41298176920278584,-0.48039109794930335 l 12.070806400737819 -10.197654481873146" fill="#ff750a" stroke="none" /><path d="M 83.50135304334701 112.99209946851258 l -15.453673244869364 12.169219723213285 a40.66992438803552,40.66992438803552 0 0,0 -0.42837666756619414,-0.5537345885852124 l 15.660856729653627 -11.90140714051482" fill="#ffaf10" stroke="none" /><path d="M 83.06392112726016 112.41649034213515 l -12.392946727430228 9.085745555862502 a36.366714056518354,36.366714056518354 0 0,0 -0.36578023303022483,-0.5080367516357239 l 12.54750675283606 -8.871075198775639" fill="#ff6e0a" stroke="none" /><path d="M 82.6465618267979 111.8261652097733 l -12.219325645190894 8.327327552600044 a35.78703159499944,35.78703159499944 0 0,0 -0.3425277246268078,-0.5120324735451103 l 12.360856475228433 -8.115758164849112" fill="#ff6509" stroke="none" /><path d="M 82.05923443525364 110.91462005526583 l -17.13639070085589 10.425262675855985 a41.058464251107964,41.058464251107964 0 0,0 -0.36213394256026993,-0.6069573176364722 l 17.313305519114394 -10.128743264333401" fill="#ffb510" stroke="none" /><line stroke="#e1ed5e" stroke-width="0.3" x1="26.63291911575756" x2="22.317208475507996" y1="142.92168965132927" y2="145.44649492493687" /><path d="M 25.769776987707644 143.4266507060508 a86.0,86.0 0 0,1 -11.730757126820373,-40.83630448921669" fill="none" id="id117" stroke="none" /><text fill="#e1ed5e" style="font-size:6.75px; font-family:Arial;" text-anchor="middle"><textPath startOffset="21.46611528233685" xlink:href="#id117">September</textPath></text><path d="M 81.35079622478065 109.6543875284942 l -18.47827323055426 9.565899583456769 a41.807523072768575,41.807523072768575 0 0,0 -0.32534481111872315,-0.6419361778074785 l 18.64019671145925 -9.246409193946606" fill="#ffc011" stroke="none" /><path d="M 81.02952815118164 109.00673069616217 l -17.768714319660297 8.436164686340634 a40.66967420138833,40.66967420138833 0 0,0 -0.2948074637288454,-0.634989049568725 l 17.91129640022897 -8.129055569493083" fill="#ffaf10" stroke="none" /><path d="M 80.32549172779594 107.34259656027581 l -22.08659117285805 8.242794489718548 a44.57458739059298,44.57458739059298 0 0,0 -0.26208952944955594,-0.7211578220713009 l 22.22520496331283 -7.861388870641131" fill="#ffe815" stroke="none" /><path d="M 79.67330655649465 105.27499134158121 l -20.468521475450753 5.311797211782622 a42.146525979699135,42.146525979699135 0 0,0 -0.17618991060890274,-0.703791110818812 l 20.556922700354715 -4.958678261566418" fill="#ffc512" stroke="none" /><path d="M 79.4281124754447 104.21870165774334 l -24.03708053061353 4.929312945191284 a45.537305608946355,45.537305608946355 0 0,0 -0.15085873349152182,-0.7692254319564354 l 24.118369197080717 -4.514823786166893" fill="#fff517" stroke="none" /><path d="M 79.23777060512086 103.15116336523772 l -22.38849904280934 3.3979885610820397 a43.644893809667536,43.644893809667536 0 0,0 -0.10633963857387632,-0.743739184510672 l 22.443672732399815 -3.012103904590967" fill="#ffda14" stroke="none" /><path d="M 79.1416061653843 102.43462659150553 l -22.955647633078982 2.6794215602533633 a44.11149190666053,44.11149190666053 0 0,0 -0.08153840919864469,-0.7549444018287362 l 22.99836834377868 -2.283880836539845" fill="#ffe115" stroke="none" /><path d="M 79.07016306316243 101.71520430193888 l -26.28830141621497 2.154331532339726 a47.37642765237558,47.37642765237558 0 0,0 -0.05961182175075747,-0.8133559459761479 l 26.32148979663006 -1.7015024498668174" fill="#f0ff19" stroke="none" /><path d="M 79.04373962182676 101.35467743843564 l -16.248733236687734 1.050368334887953 a37.28264737184884,37.28264737184884 0 0,0 -0.035886588188497305,-0.6407791393520242 l 16.26440617576376 -0.770517479200491" fill="#ff7c0b" stroke="none" /><line stroke="#e1ed5e" stroke-width="0.3" x1="15.007084014347285" x2="10.007500721073583" y1="101.09737516637583" y2="101.16192664675087" /><path d="M 14.007167355692545 101.11028546245083 a86.0,86.0 0 0,1 10.666146001902534,-42.60595125391555" fill="none" id="id118" stroke="none" /><text fill="#e1ed5e" style="font-size:6.75px; font-family:Arial;" text-anchor="middle"><textPath startOffset="22.20632615414155" xlink:href="#id118">October</textPath></text><path d="M 79.00175016825051 100.2711162175752 l -20.135344611748295 0.2599749271701871 a41.13702285832288,41.13702285832288 0 0,0 -0.0030474751410699717,-0.7081258980096414 l 20.136836384178867 0.08666044904312972" fill="#ffb610" stroke="none" /><path d="M 79.00486145842228 99.54816195383935 l -25.600925589753704 -0.5509595554928499 a46.606853525646116,46.606853525646116 0 0,0 0.024165221983249097,-0.8019260720669805 l 25.58764867331481 0.9915557749848248" fill="#faff18" stroke="none" /><path d="M 79.03285615573316 98.82574320788736 l -27.530179938452026 -1.5418170934926851 a48.57332057249059,48.57332057249059 0 0,0 0.05393814898588854,-0.8343992912218423 l 27.499561198461727 2.0154754489675395" fill="#dfff1b" stroke="none" /><path d="M 79.16333360222342 97.38593545837743 l -22.345887397685434 -2.8034039026325783 a43.521051419312826,43.521051419312826 0 0,0 0.0996507751166809,-0.7425140217905051 l 22.29432062351092 3.187636266487743" fill="#ffd914" stroke="none" /><path d="M 79.46518482838121 95.60439243477599 l -24.511920853317232 -5.2469322874611315 a46.0672009276762,46.0672009276762 0 0,0 0.17265463276728849,-0.7739768645244063 l 24.417971833547906 5.668087321535497" fill="#fffc17" stroke="none" /><path d="M 80.2630227832202 92.82701384747504 l -23.573198734809417 -8.5671795755913 a46.081711753212716,46.081711753212716 0 0,0 0.27735794855222407,-0.743181408423629 l 23.422236197755563 8.971684121044271" fill="#fffd17" stroke="none" /><path d="M 80.65960295795068 91.81776055985345 l -38.401838664751196 -16.246462687075084 a62.6971073658126,62.6971073658126 0 0,0 0.4290550854503886,-0.9903182926278984 l 38.11649286945813 16.90508012428958" fill="#33ff2f" stroke="none" /><path d="M 81.26839172434947 90.50648371742162 l -22.5946881962702 -11.451394729939347 a46.330897653805216,46.330897653805216 0 0,0 0.3666551496803158,-0.7082610451921951 l 22.394223613429773 11.838628497391877" fill="#feff18" stroke="none" /><line stroke="#e1ed5e" stroke-width="0.3" x1="26.266209847984243" x2="21.928928074336255" y1="57.711370442889674" y2="55.22380399835377" /><path d="M 25.398753493254645 57.213857153982495 a86.0,86.0 0 0,1 29.58750427330803,-30.492523968695096" fill="none" id="id119" stroke="none" /><text fill="#e1ed5e" style="font-size:6.75px; font-family:Arial;" text-anchor="middle"><textPath startOffset="21.46611528233685" xlink:href="#id119">November</textPath></text><path d="M 81.78341655067845 89.55222093294921 l -40.557384260984115 -23.260925489956595 a67.75438025193398,67.75438025193398 0 0,0 0.5889479346309244,-1.006702930562205 l 40.150976651882864 23.95560783287269" fill="#36ff6f" stroke="none" /><path d="M 81.96595687620814 89.24020034530311 l -13.738235105530595 -8.196756341877474 a36.99768478070942,36.99768478070942 0 0,0 0.33101335572770335,-0.5440989227147248 l 13.595105951516674 8.432023037799274" fill="#ff780b" stroke="none" /><path d="M 82.34701348167596 88.62581576622439 l -21.380477448723735 -13.775883715508334 a46.434224739091064,46.434224739091064 0 0,0 0.4387003058467698,-0.6681706633026023 l 21.140180507519045 14.141872442788603" fill="#fdff18" stroke="none" /><path d="M 82.7489923806493 88.02491185347247 l -20.971512288674237 -14.557741423820168 a46.52904547837275,46.52904547837275 0 0,0 0.46238212399561024,-0.6540067233367983 l 20.717817544874748 14.916574647488753" fill="#fbff18" stroke="none" /><path d="M 83.17141714833178 87.43820079747576 l -44.384842607199175 -33.13133882880744 a76.38682032627516,76.38682032627516 0 0,0 0.7956016883397364,-1.046918562473459 l 43.80796497863533 33.89044216716193" fill="#42ffd9" stroke="none" /><path d="M 83.39014120810768 87.1503855733568 l -8.873714093905303 -6.864826851785791 a32.21911981954791,32.21911981954791 0 0,0 0.3431273654521811,-0.43573690899474843 l 8.75423264785915 7.016556154733587" fill="#ff2d04" stroke="none" /><path d="M 83.84228863543731 86.58626213691792 l -19.005837483805784 -15.778182697040043 a45.70167823614442,45.70167823614442 0 0,0 0.5077007846818561,-0.600957591992433 l 18.731426085636805 16.102999238661592" fill="#fff717" stroke="none" /><path d="M 84.31358615837235 86.03803664274999 l -19.630318606798852 -17.47230385774585 a47.27985560656363,47.27985560656363 0 0,0 0.5463217920803717,-0.6032621680036466 l 19.326653174102436 17.807618813019054" fill="#f1ff19" stroke="none" /><path d="M 84.80347519578584 85.50635884689758 l -45.58957441264248 -43.480923459307235 a84.0,84.0 0 0,0 1.0069429451875265,-1.0377432177995054 l 44.83436720375183 44.259230872656865" fill="#4dd2ff" stroke="none" /><path d="M 85.05521093208273 85.24692304244772 l -8.750475136064967 -8.638223832456227 a33.295923149015934,33.295923149015934 0 0,0 0.40615350053134763,-0.4044093483249086 l 8.600485835366307 8.787569031431245" fill="#ff3e05" stroke="none" /><line stroke="#e1ed5e" stroke-width="0.3" x1="56.762969772571076" x2="54.21961505331055" y1="26.818313649435495" y2="22.513508569990535" /><path d="M 56.25429882871897 25.957352633546506 a86.0,86.0 0 0,1 42.265352541879196,-11.944610805530505" fill="none" id="id120" stroke="none" /><text fill="#e1ed5e" style="font-size:6.75px; font-family:Arial;" text-anchor="middle"><textPath startOffset="22.20632615414155" xlink:href="#id120">December</textPath></text></svg>