<?xml version="1.0" encoding="utf-8" ?>
<svg baseProfile="full" height="200mm" version="1.1" viewBox="0,0,200,200" width="200mm" xmlns="http://www.w3.org/2000/svg" xmlns:ev="http://www.w3.org/2001/xml-events" xmlns:xlink="http://www.w3.org/1999/xlink"><defs /><rect fill="#1a1a1a" height="200" width="200" x="0" y="0" /><text alignment-baseline="middle" fill="#e1ed5e" style="dominant-baseline: central; font-size:9.0px; font-family:Arial;" text-anchor="middle" x="100.0" y="100.0">2025</text><line stroke="#e1ed5e" stroke-width="0.3" x1="100.0" x2="100.0" y1="15.0" y2="10.0" /><path d="M 100.0 14.0 a86.0,86.0 0 0,1 42.46469731375804,11.215312516191453" fill="none" id="id109" stroke="none" /><text fill="#e1ed5e" style="font-size:6.75px; font-family:Arial;" text-anchor="middle"><textPath startOffset="22.20632615414155" xlink:href="#id109">January</textPath></text><path d="M 100.72285384407766 79.0124445844662 l 0.6689038216036949 -19.421154274254125 a40.432670060157335,40.432670060157335 0 0,0 0.6953633077715818,0.029943806768217587 l -1.0031079617646084 19.406762740961714" fill="#ffbc11" stroke="none" /><path d="M 102.52436894288641 79.15227682838746 l 2.78255479665693 -22.97997377681915 a44.14782508098103,44.14782508098103 0 0,0 0.7536354790449336,0.09784351466310665 l -3.1777050042097095 22.928671938991908" fill="#fff016" stroke="none" /><path d="M 104.307194497241 79.44645832069477 l 4.413728299127875 -21.06191132426536 a42.51941230911615,42.51941230911615 0 0,0 0.7150495153181148,0.1562821285314314 l -4.775620538599518 20.982815697638056" fill="#ffd914" stroke="none" /><path d="M 105.01212808612495 79.60689891045804 l 5.844428948552501 -23.77952604372156 a45.48720499768625,45.48720499768625 0 0,0 0.758750647107219,0.19342243423551822 l -6.252888484344745 23.675400613317173" fill="#fcff18" stroke="none" /><path d="M 106.74666289553966 80.11325718540242 l 7.5640719271916845 -22.296171511196622 a44.54430819065247,44.54430819065247 0 0,0 0.7239892381914955,0.2525856293036737 l -7.946743169446454 22.16266502872074" fill="#fff517" stroke="none" /><path d="M 107.4271985657038 80.35727306442388 l 8.704360521749859 -23.020439720981052 a45.61110596945858,45.61110596945858 0 0,0 0.731986217842463,0.2839992804346735 l -9.09932990459199 22.867197736655832" fill="#faff18" stroke="none" /><path d="M 109.08828744355905 81.06846463323043 l 4.5542071061042195 -9.48673041342996 a31.52325312355391,31.52325312355391 0 0,0 0.487152447423638,0.23904359027092859 l -4.71683082053829 9.4069316630242" fill="#ff3705" stroke="none" /><line stroke="#e1ed5e" stroke-width="0.3" x1="143.23703022742887" x2="145.7803849466894" y1="26.81831364943548" y2="22.513508569990506" /><path d="M 143.74570117128098 25.957352633546492 a86.0,86.0 0 0,1 28.547481713284135,27.462654790039103" fill="none" id="id110" stroke="none" /><text fill="#e1ed5e" style="font-size:6.75px; font-family:Arial;" text-anchor="middle"><textPath startOffset="19.985693538727396" xlink:href="#id110">February</textPath></text><path d="M 113.6212207817346 84.01681056812373 l 14.737472936297795 -17.29300372282791 a43.72093937991671,43.72093937991671 0 0,0 0.5685933177925786,0.49307852217812986 l -15.032960052737138 17.036760207230106" fill="#ffea16" stroke="none" /><path d="M 115.4437574822437 85.77008943001954 l 7.668534632676868 -7.065803911467298 a31.427464136973626,31.427464136973626 0 0,0 0.36314638248324393,0.40099530565182334 l -7.7890246557761476 6.9327558185459255" fill="#ff3505" stroke="none" /><line stroke="#e1ed5e" stroke-width="0.3" x1="172.23445277983987" x2="176.4835382374775" y1="55.19839476539836" y2="52.563006222186495" /><path d="M 173.08426987136738 54.67131705675599 a86.0,86.0 0 0,1 12.851231095245387,41.99856678651699" fill="none" id="id111" stroke="none" /><text fill="#e1ed5e" style="font-size:6.75px; font-family:Arial;" text-anchor="middle"><textPath startOffset="22.20632615414155" xlink:href="#id111">March</textPath></text><path d="M 118.03404312379186 89.2402003453031 l 17.93056226551559 -10.698059018085035 a41.879500231374365,41.879500231374365 0 0,0 0.3640332192978609,0.6222507748818384 l -18.11205515928378 10.3878288308493" fill="#ffd013" stroke="none" /><path d="M 120.08093135843002 93.85539295169968 l 49.113189760983886 -15.028249765076959 a72.36101341971309,72.36101341971309 0 0,0 0.35420406945559424,1.1942000379291688 l -49.36459972755118 14.18062034040126" fill="#3dffad" stroke="none" /><path d="M 120.53481517161879 95.60439243477599 l 16.563397935859598 -3.5455004909567394 a37.93861638130495,37.93861638130495 0 0,0 0.13119662064862847,0.639761315814174 l -16.621973852423224 3.2598635189791536" fill="#ff980e" stroke="none" /><path d="M 120.87857604477298 97.74499172005257 l 10.175459119698694 -1.0990090760012186 a31.23463674224896,31.23463674224896 0 0,0 0.05313290489069533,0.5350411012259649 l -10.192869150271619 0.9236924440708186" fill="#ff3204" stroke="none" /><line stroke="#e1ed5e" stroke-width="0.3" x1="184.98032266829074" x2="189.97916517819016" y1="98.17113171792111" y2="98.06355123074" /><path d="M 185.9800911702706 98.14961562048488 a86.0,86.0 0 0,1 -9.607161424134198,41.387399972396054" fill="none" id="id112" stroke="none" /><text fill="#e1ed5e" style="font-size:6.75px; font-family:Arial;" text-anchor="middle"><textPath startOffset="21.466115282336823" xlink:href="#id112">April</textPath></text><path d="M 120.99980553446 99.90962569577887 l 22.83963116246421 -0.09829213759088372 a43.83984266543267,43.83984266543267 0 0,0 -0.0032477029553511926,0.7546517905045534 l -22.837939162219357 -0.2948691311173544" fill="#ffec16" stroke="none" /><path d="M 120.9904718944345 100.63252640178507 l 21.583122819675 0.6503853312623232 a42.592919944470154,42.592919944470154 0 0,0 -0.028390954041049098,0.7326443714311215 l -21.568729732782746 -1.021806949707451" fill="#ffda14" stroke="none" /><path d="M 120.89721153311464 102.0752229133903 l 11.802704182949137 1.1720818407571036 a32.860758907913,32.860758907913 0 0,0 -0.060741858653999545,0.5623941722457637 l -11.780780022794087 -1.3750723348876586" fill="#ff4c07" stroke="none" /><path d="M 120.13307415673323 105.97154293290107 l 9.99220428325499 2.9637240893894874 a31.422466450717263,31.422466450717263 0 0,0 -0.15826931868143476,0.5172332908524215 l -9.939708192067421 -3.135284352793966" fill="#ff3505" stroke="none" /><path d="M 119.67450827220406 107.3425965602758 l 13.916199671758324 5.193575281692 a35.85374826469227,35.85374826469227 0 0,0 -0.22076641660186147,0.5763514502312941 l -13.824738975562957 -5.432350298756437" fill="#ff790b" stroke="none" /><path d="M 119.54520255179757 107.68017299344265 l 10.748375518452997 4.223511276561868 a32.54840351689033,32.54840351689033 0 0,0 -0.20939067739177986,0.5196904892819295 l -10.674082226803824 -4.407901133686611" fill="#ff4706" stroke="none" /><path d="M 119.12269723197855 108.67885076344098 l 10.852797514792025 4.925550452119864 a32.918232299861174,32.918232299861174 0 0,0 -0.23861859641913366,0.5139632281799194 l -10.76640430153306 -5.1116337475786136" fill="#ff4d07" stroke="none" /><path d="M 118.81262510543309 109.33194174019688 l 8.116838741612671 4.026331563340778 a30.0605969458584,30.0605969458584 0 0,0 -0.23393060666242846,0.4615672799473758 l -8.046329465163973 -4.165453054990849" fill="#ff2003" stroke="none" /><line stroke="#e1ed5e" stroke-width="0.3" x1="174.80103733775053" x2="179.2010983576182" y1="140.37084112569926" y2="142.7455964860345" /><path d="M 175.68104954172406 140.8457921977663 a86.0,86.0 0 0,1 -30.038265399797805,32.042727171017184" fill="none" id="id113" stroke="none" /><text fill="#e1ed5e" style="font-size:6.75px; font-family:Arial;" text-anchor="middle"><textPath startOffset="22.206326154141568" xlink:href="#id113">May</textPath></text><path d="M 118.30583269289576 110.29060199501025 l 14.946838853689657 8.40234761823032 a38.146645071726056,38.146645071726056 0 0,0 -0.32669514141112377,0.5696205162657143 l -14.799991716126154 -8.65838798035435" fill="#ff9b0e" stroke="none" /><path d="M 116.71984013943494 112.70617746262583 l 8.626296844597075 6.555520724999225 a31.834567329939844,31.834567329939844 0 0,0 -0.3353137747711948,0.4334382546434816 l -8.512176252607812 -6.7030369737559585" fill="#ff3c05" stroke="none" /><path d="M 114.29624159901734 115.38237550388516 l 7.618156877995563 8.196934063627463 a32.19044423877834,32.19044423877834 0 0,0 -0.4091259081043682,0.3737268167716865 l -7.475931420424331 -8.326853646985732" fill="#ff4106" stroke="none" /><path d="M 113.75828350139079 115.86535959552629 l 8.229321684443967 9.489639295321073 a33.560851457658494,33.560851457658494 0 0,0 -0.4397023272129228,0.3747238623891228 l -8.064753880653997 -9.629887547933142" fill="#ff5608" stroke="none" /><path d="M 112.92097659922987 116.55440617244103 l 12.177381955317696 15.601709782316187 a40.79146228597871,40.79146228597871 0 0,0 -0.5572332691708767,0.4272627091546587 l -11.907019957653326 -15.809011833298216" fill="#ffc112" stroke="none" /><path d="M 112.34349029814194 116.9893568818739 l 7.285041968550702 10.027000055386912 a33.39405367885238,33.39405367885238 0 0,0 -0.4679503528587465,0.3338701519122484 l -7.111364287843071 -10.150914469143379" fill="#ff5407" stroke="none" /><path d="M 111.7513745106137 117.40417183066458 l 9.934405525165541 14.713181052933281 a38.75303100416474,38.75303100416474 0 0,0 -0.5560604162890215,0.3685265228686281 l -9.679670410136556 -14.882005596893228" fill="#ffa40f" stroke="none" /><path d="M 111.1453310114006 117.79835938074945 l 5.991711384773091 9.568368352885553 a32.28956501619621,32.28956501619621 0 0,0 -0.4736122690536424,0.2909313381980595 l -5.82611991578714 -9.67008815791199" fill="#ff4306" stroke="none" /><line stroke="#e1ed5e" stroke-width="0.3" x1="143.8653032363475" x2="146.44561519142675" y1="172.8068346515853" y2="177.08958963109032" /><path d="M 144.38136562736335 173.6633856474863 a86.0,86.0 0 0,1 -40.68145358897372,12.25698825130547" fill="none" id="id114" stroke="none" /><text fill="#e1ed5e" style="font-size:6.75px; font-family:Arial;" text-anchor="middle"><textPath startOffset="21.466115282336833" xlink:href="#id114">June</textPath></text><path d="M 109.89434966115114 118.52300852407294 l 6.0320735590391354 11.29252086073109 a33.802614530310045,33.802614530310045 0 0,0 -0.5155849977356369,0.2697297027634197 l -5.8367976587770025 -11.394679982439225" fill="#ff5a08" stroke="none" /><path d="M 109.2508944713604 118.85261126421891 l 3.117704935527128 6.353642814540306 a28.077348449791764,28.077348449791764 0 0,0 -0.43571677028240186,0.20917052820007753 l -3.0078754972444934 -6.406367619239944" fill="#ff0000" stroke="none" /><path d="M 108.92500713936063 119.00905698771935 l 8.375358388714211 17.838379557312834 a40.706709856547896,40.706709856547896 0 0,0 -0.6368312845183725,0.2923380081203238 l -8.067059108428419 -17.979904635767234" fill="#ffc011" stroke="none" /><path d="M 107.93186726928326 119.44442032107085 l 4.925392266844613 12.074256191043482 a34.04021286441462,34.04021286441462 0 0,0 -0.5444471461050192,0.21664675554372106 l -4.716824044697727 -12.157249790993271" fill="#ff5e08" stroke="none" /><path d="M 107.2578585660854 119.70592522655815 l 5.252819361038625 14.262011943982273 a36.1985886163813,36.1985886163813 0 0,0 -0.5865557923317004,0.21031803847464714 l -5.0065440080771895 -14.35031752349688" fill="#ff7e0b" stroke="none" /><path d="M 106.57524785965236 119.94407469862006 l 3.463056602276483 10.504160608936068 a32.06029615918556,32.06029615918556 0 0,0 -0.5256036017938331,0.1682816752797032 l -3.2817316553917095 -10.562215130875478" fill="#ff3f05" stroke="none" /><path d="M 106.2309692047433 120.05430185196036 l 6.936777741289061 22.325938410652366 a44.378759833410456,44.378759833410456 0 0,0 -0.7314571134118755,0.2203820280368029 l -6.55144565343694 -22.442035807794895" fill="#fff316" stroke="none" /><path d="M 104.83641907484287 120.43548508189849 l 3.1936287998142676 13.49414777457974 a34.86691346598797,34.86691346598797 0 0,0 -0.5852325928392117,0.13319703277646552 l -2.9608760575821935 -13.54712154093389" fill="#ff6a09" stroke="none" /><path d="M 104.48393922423573 120.51570834832081 l 2.81494869061642 12.879448954176542 a34.183479870430354,34.183479870430354 0 0,0 -0.5759241455340589,0.12069050430224189 l -2.592833083652983 -12.925995439205327" fill="#ff6008" stroke="none" /><path d="M 103.06178313531738 120.77559828337769 l 1.965769213945867 13.338642778348534 a34.48271633503008,34.48271633503008 0 0,0 -0.5879654675137673,0.0814866562438666 l -1.7358751552452691 -13.370504000085004" fill="#ff6509" stroke="none" /><path d="M 102.70371172650421 120.8252237178851 l 1.7504330530520897 13.482635584128223 a34.59578898658029,34.59578898658029 0 0,0 -0.591213330723083,0.07158770089243685 l -1.5180922992776265 -13.510768813746012" fill="#ff6609" stroke="none" /><path d="M 101.98527174616119 120.90594882070398 l 1.2693756937682927 13.367189322811663 a34.42732531235539,34.42732531235539 0 0,0 -0.5904379445812022,0.050945470291768644 l -1.0390934314455487 -13.387059045382095" fill="#ff6409" stroke="none" /><path d="M 101.62511606390274 120.93702456842531 l 1.4349677081610364 18.48726674236038 a39.54287366959741,39.54287366959741 0 0,0 -0.6790777519557685,0.04683317765458503 l -1.1165271954263376 -18.50922826453125" fill="#ffaf10" stroke="none" /><path d="M 100.90346689309514 120.98055641714683 l 0.49327249752580016 11.454909463159622 a32.46552521980564,32.46552521980564 0 0,0 -0.558530168290909,0.01923690831013226 l -0.29602197756023885 -11.461703169895848" fill="#ff4606" stroke="none" /><line stroke="#e1ed5e" stroke-width="0.3" x1="102.19456741930631" x2="102.32365962044197" y1="184.97166512339345" y2="189.96999836594603" /><path d="M 102.22038585953345 185.97133177190398 a86.0,86.0 0 0,1 -42.740103519485714,-10.115201625700543" fill="none" id="id115" stroke="none" /><text fill="#e1ed5e" style="font-size:6.75px; font-family:Arial;" text-anchor="middle"><textPath startOffset="22.20632615414155" xlink:href="#id115">July</textPath></text><path d="M 100.54218724476979 120.99299961872073 l 0.2957316545165003 11.450462124287894 a32.45428042572883,32.45428042572883 0 0,0 -0.5585850086374164,0.009616547492267693 l -0.09858695598641591 -11.453856149059321" fill="#ff4506" stroke="none" /><path d="M 99.81925306533755 120.99922214144158 l -0.19162138334601359 22.262618192934003 a43.26344285053216,43.26344285053216 0 0,0 -0.744626295247961,-0.012819416958057805 l 0.5748073684866425 -22.256021298696783" fill="#ffe415" stroke="none" /><path d="M 99.09653310690486 120.98055641714683 l -0.4762149087991517 11.058793451211645 a32.0690421101342,32.0690421101342 0 0,0 -0.55130032553851,-0.02849592965362804 l 0.6665033027511506 -11.048957714795815" fill="#ff3f05" stroke="none" /><path d="M 98.37488393609728 120.93702456842531 l -0.8896616082760094 11.46186870205882 a32.49634428505322,32.49634428505322 0 0,0 -0.5573210974709093,-0.04808800937466723 l 1.0868270234884603 -11.44485644040549" fill="#ff4606" stroke="none" /><path d="M 98.01472825383883 120.90594882070398 l -1.2990819316041784 13.680011529168926 a34.7415548357242,34.7415548357242 0 0,0 -0.5948538410555116,-0.06165903283601241 l 1.5343683692652832 -13.655623127877153" fill="#ff6809" stroke="none" /><path d="M 97.2962882734958 120.8252237178851 l -1.6947216135629977 13.053520608728952 a34.16307265155021,34.16307265155021 0 0,0 -0.5825152168441536,-0.08073130116385169 l 1.9191654215939824 -13.022414742072495" fill="#ff6008" stroke="none" /><path d="M 96.93821686468263 120.77559828337769 l -2.5983663588603068 17.631103601702048 a38.82154095326237,38.82154095326237 0 0,0 -0.6602696260932638,-0.10312053646507753 l 2.9014718485620876 -17.583764757889863" fill="#ffa50f" stroke="none" /><path d="M 96.22490169976321 120.6578951692458 l -3.7715545443127287 20.638503213709132 a41.98028690421101,41.98028690421101 0 0,0 -0.7097314952650794,-0.13602173024274433 l 4.126253654149503 -20.57052428511792" fill="#ffd213" stroke="none" /><path d="M 95.51606077576429 120.51570834832081 l -2.2427551240464765 10.26144818666276 a31.503678852383157,31.503678852383157 0 0,0 -0.5287815245458689,-0.12034895342179666 l 2.419056797985208 -10.221322499663275" fill="#ff3705" stroke="none" /><path d="M 95.16358092515715 120.4354850818985 l -2.647625317625927 11.18710079575961 a32.49613604812587,32.49613604812587 0 0,0 -0.5432219913443969,-0.13351074894706627 l 2.8398005937135347 -11.139868788498514" fill="#ff4606" stroke="none" /><path d="M 94.46302465271185 120.25689768951611 l -2.9861672690054997 10.924824666530728 a32.325590004627486,32.325590004627486 0 0,0 -0.5354792969161396,-0.1513317980666267 l 3.173777734026253 -10.871804075125581" fill="#ff4306" stroke="none" /><path d="M 94.11515582081647 120.15858648285463 l -6.262474789663702 21.4521635238348 a43.34757056918093,43.34757056918093 0 0,0 -0.7144609033909999,-0.21526120937954982 l 6.630810667494948 -21.341186945349524" fill="#ffe515" stroke="none" /><path d="M 93.42475214034765 119.94407469862007 l -3.5804826093687665 10.860337761037096 a32.43533086534012,32.43533086534012 0 0,0 -0.5287426417810155,-0.1793782116986533 l 3.7668949840870076 -10.79709656244032" fill="#ff4506" stroke="none" /><path d="M 93.08242187328487 119.8279376855182 l -5.836200656215804 16.728372388701583 a38.71721425266081,38.71721425266081 0 0,0 -0.6273671750994491,-0.22495154833571135 l 6.12328739194498 -16.625433299325916" fill="#ffa30f" stroke="none" /><path d="M 92.7421414339146 119.70592522655815 l -3.8216389342007746 10.376191599016304 a32.05758907913003,32.05758907913003 0 0,0 -0.5161726437278001,-0.1951723267204409 l 3.9996817986888575 -10.30887102218923" fill="#ff3f05" stroke="none" /><path d="M 92.40401165467489 119.57807347666478 l -3.7692713238919757 9.715005813306593 a31.420592318371124,31.420592318371124 0 0,0 -0.5025483208581882,-0.19997434828480026 l 3.935940720792022 -9.648684620615727" fill="#ff3505" stroke="none" /><path d="M 92.06813273071674 119.44442032107085 l -4.366957769469938 10.705292904077103 a32.56173068024063,32.56173068024063 0 0,0 -0.5171555480960648,-0.2161710610467127 l 4.550584777063465 -10.628536800010417" fill="#ff4706" stroke="none" /><path d="M 91.40352486487194 119.15986991738527 l -8.918125490550969 19.876765955809283 a42.78574733919481,42.78574733919481 0 0,0 -0.669356539330213,-0.30726875734143105 l 9.2589500256486 -19.72031012813378" fill="#ffdd14" stroke="none" /><path d="M 90.7491055286396 118.85261126421891 l -4.712103661051503 9.602904760564524 a31.69671448403517,31.69671448403517 0 0,0 -0.4877461630862482,-0.24456605161569595 l 4.876703731820512 -9.520370868039526" fill="#ff3a05" stroke="none" /><path d="M 90.10565033884886 118.52300852407294 l -8.542682207276021 15.992579680614426 a39.13118926422952,39.13118926422952 0 0,0 -0.5913974674722479,-0.3224770528539433 l 8.81670248661691 -15.843161976000717" fill="#ffa90f" stroke="none" /><line stroke="#e1ed5e" stroke-width="0.3" x1="58.666819895761336" x2="56.23545636021788" y1="174.27360380694188" y2="178.64263932499728" /><path d="M 58.180547188652646 175.14741091055294 a86.0,86.0 0 0,1 -31.652253787137756,-30.449443065178592" fill="none" id="id116" stroke="none" /><text fill="#e1ed5e" style="font-size:6.75px; font-family:Arial;" text-anchor="middle"><textPath startOffset="22.20632615414155" xlink:href="#id116">August</textPath></text><path d="M 89.7882731507175 118.34994917583269 l -6.285204127073753 11.294189317220221 a33.92526608051828,33.92526608051828 0 0,0 -0.5078309154731935,-0.2883596473784394 l 6.478683809468153 -11.18432650404715" fill="#ff5c08" stroke="none" /><path d="M 89.1626897886671 117.98757091392108 l -14.322164193978246 23.7716683435529 a48.752776492364646,48.752776492364646 0 0,0 -0.7150890105094995,-0.43926607554732 l 14.729232404420054 -23.521613801177203" fill="#d1ff1c" stroke="none" /><path d="M 88.54995079064634 117.60387380957326 l -9.39411933826317 14.442985209859339 a38.22931513188338,38.22931513188338 0 0,0 -0.5485457094799856,-0.3635461849600341 l 9.641339746483117 -14.279141003807988" fill="#ff9c0e" stroke="none" /><path d="M 88.24862548938628 117.40417183066458 l -7.317555349471234 10.837539946290507 a34.0766543267006,34.0766543267006 0 0,0 -0.4833093755377796,-0.33242459554505693 l 7.503021609631904 -10.70997456138035" fill="#ff5e08" stroke="none" /><path d="M 87.95078237400918 117.19931262002967 l -10.267802093522576 14.656481740868886 a38.89525682554373,38.89525682554373 0 0,0 -0.5450386266693606,-0.38887058845550965 l 10.518568048040823 -14.477566890569156" fill="#ffa60f" stroke="none" /><path d="M 87.65650970185807 116.9893568818739 l -12.8808609291885 17.72898410303858 a42.91422952336882,42.91422952336882 0 0,0 -0.5938819086856357,-0.43933963833440376 l 13.1841278082927 -17.50463451596441" fill="#ffdf14" stroke="none" /><path d="M 87.07902340077011 116.55440617244103 l -11.660653932993107 14.939675802411497 a39.95164275798241,39.95164275798241 0 0,0 -0.5384768160133212,-0.4277985493358463 l 11.916088241723784 -14.73674333907052" fill="#ffb510" stroke="none" /><path d="M 86.51685102203217 116.09983520530335 l -10.50463606845331 12.543279753872001 a37.36096714484035,37.36096714484035 0 0,0 -0.489490090000757,-0.41715407395936743 l 10.718991635031124 -12.360601289689683" fill="#ff900d" stroke="none" /><path d="M 86.24171649860922 115.8653595955263 l -9.28445387787051 10.70636459886904 a35.1713558537714,35.1713558537714 0 0,0 -0.45397452203849475,-0.4005797329863744 l 9.467370752815594 -10.544961724110378" fill="#ff6f0a" stroke="none" /><path d="M 85.70375840098266 115.38237550388516 l -16.127430712672123 17.35268625792283 a44.689865802869036,44.689865802869036 0 0,0 -0.5589726815379504,-0.5285435597097702 l 16.42373922860089 -17.07250806146713" fill="#fff717" stroke="none" /><path d="M 85.18274418774928 114.88116024355367 l -25.885874221613665 25.99751581651303 a57.687181860249886,57.687181860249886 0 0,0 -0.6976286022636591,-0.7066940909054975 l 26.32954344893286 -25.548081231626867" fill="#64ff29" stroke="none" /><path d="M 84.67929136418377 114.36230785411682 l -12.416640816228233 11.639906622841497 a38.01941230911615,38.01941230911615 0 0,0 -0.4434757910004475,-0.4813053835985171 l 12.61516301522441 -11.424449984441635" fill="#ff990e" stroke="none" /><path d="M 84.19399662182784 113.82643327865904 l -9.89925801578655 8.65945851008235 a34.15224433132809,34.15224433132809 0 0,0 -0.38324915198316073,-0.4458053469641828 l 10.04684967734049 -8.487776063956638" fill="#ff6008" stroke="none" /><path d="M 83.50135304334701 112.99209946851258 l -12.86249873450468 10.128761674296902 a37.371795465062476,37.371795465062476 0 0,0 -0.39363744691392977,-0.508829462998091 l 13.034942998636678 -9.905854217185558" fill="#ff900d" stroke="none" /><path d="M 83.06392112726016 112.41649034213515 l -10.31497554481279 7.562305017230281 a33.79012031466914,33.79012031466914 0 0,0 -0.3398645823103628,-0.47204217943270177 l 10.443619919498762 -7.38362923234644" fill="#ff5a08" stroke="none" /><path d="M 82.6465618267979 111.8261652097733 l -10.170466151143023 6.931053763718261 a33.30763535400278,33.30763535400278 0 0,0 -0.31879672725077746,-0.47655785233195097 l 10.28826598380453 -6.7549589971804895" fill="#ff5307" stroke="none" /><path d="M 82.05923443525364 110.91462005526583 l -14.263068735254596 8.67722035080534 a37.69518741323461,37.69518741323461 0 0,0 -0.33246998109858794,-0.5572388119588177 l 14.410319592051415 -8.430419444960412" fill="#ff940d" stroke="none" /><line stroke="#e1ed5e" stroke-width="0.3" x1="26.63291911575756" x2="22.317208475507996" y1="142.92168965132927" y2="145.44649492493687" /><path d="M 25.769776987707644 143.4266507060508 a86.0,86.0 0 0,1 -11.730757126820373,-40.83630448921669" fill="none" id="id117" stroke="none" /><text fill="#e1ed5e" style="font-size:6.75px; font-family:Arial;" text-anchor="middle"><textPath startOffset="21.46611528233685" xlink:href="#id117">September</textPath></text><path d="M 81.35079622478065 109.6543875284942 l -15.379952861546668 7.961949844349229 a38.31864877371587,38.31864877371587 0 0,0 -0.2981945025996899,-0.5883660433489885 l 15.514726033932625 -7.696029589297556" fill="#ff9e0e" stroke="none" /><path d="M 81.02952815118164 109.00673069616217 l -14.789368315800559 7.021641772978148 a37.37158722813513,37.37158722813513 0 0,0 -0.2709001992907957,-0.5834949288592566 l 14.908043131931182 -6.766026776840064" fill="#ff900d" stroke="none" /><path d="M 80.32549172779594 107.34259656027581 l -18.38325079797624 6.860694671927702 a40.621749190189725,40.621749190189725 0 0,0 -0.23884764288186205,-0.6572061322300922 l 18.498622701863326 -6.543240742691493" fill="#ffbf11" stroke="none" /><path d="M 79.67330655649465 105.27499134158121 l -17.036488827183867 4.421148540667039 a38.60080981027302,38.60080981027302 0 0,0 -0.1613673504947752,-0.6445823512942283 l 17.110067491973698 -4.127238349975419" fill="#ffa20e" stroke="none" /><path d="M 79.4281124754447 104.21870165774334 l -20.006694396029797 4.102796824732293 a41.42304488662656,41.42304488662656 0 0,0 -0.13722876233878986,-0.6997265026942247 l 20.074353091344253 -3.757806594970113" fill="#ffca12" stroke="none" /><path d="M 79.23777060512086 103.15116336523772 l -18.634536659509166 2.8282352599431158 a39.847940768162886,39.847940768162886 0 0,0 -0.09708846211606698,-0.6790364779116135 l 18.680459172641832 -2.5070533100511017" fill="#ffb410" stroke="none" /><path d="M 79.1416061653843 102.43462659150553 l -19.106589349444317 2.2301530439959003 a40.23630263766775,40.23630263766775 0 0,0 -0.07437526973816273,-0.6886226267492778 l 19.14214692068353 -1.9009340953618405" fill="#ffb911" stroke="none" /><path d="M 79.07016306316243 101.71520430193888 l -21.88044475513957 1.793106801816392 a42.953794539565024,42.953794539565024 0 0,0 -0.054047003340970914,-0.737428420043426 l 21.908068317144878 -1.4162052452762053" fill="#ffdf14" stroke="none" /><path d="M 79.04373962182676 101.35467743843564 l -13.524248078921168 0.8742491939737063 a34.552475705691805,34.552475705691805 0 0,0 -0.033258648565806764,-0.5938555120388967 l 13.537293078374507 -0.6413219655993719" fill="#ff6609" stroke="none" /><line stroke="#e1ed5e" stroke-width="0.3" x1="15.007084014347285" x2="10.007500721073583" y1="101.09737516637583" y2="101.16192664675087" /><path d="M 14.007167355692545 101.11028546245083 a86.0,86.0 0 0,1 10.666146001902534,-42.60595125391555" fill="none" id="id118" stroke="none" /><text fill="#e1ed5e" style="font-size:6.75px; font-family:Arial;" text-anchor="middle"><textPath startOffset="22.20632615414155" xlink:href="#id118">October</textPath></text><path d="M 79.00175016825051 100.2711162175752 l -16.759176959653466 0.21638397025378175 a37.76057380842202,37.76057380842202 0 0,0 -0.0027973441439849366,-0.6500042633016717 l 16.760418601086954 0.07212977125156533" fill="#ff950d" stroke="none" /><path d="M 79.00486145842228 99.54816195383935 l -21.308323774069745 -0.45857813045470197 a42.313257751041185,42.313257751041185 0 0,0 0.021939032331922917,-0.7280496754834249 l 21.297273047282175 0.8252979533631213" fill="#ffd714" stroke="none" /><path d="M 79.03285615573316 98.82574320788736 l -22.914092915520204 -1.283294922808819 a43.95,43.95 0 0,0 0.04880419168362099,-0.7549792440990539 l 22.88860813283217 1.6775332311608848" fill="#ffed16" stroke="none" /><path d="M 79.16333360222342 97.38593545837743 l -18.599069866417544 -2.3333468087846723 a39.74486348912541,39.74486348912541 0 0,0 0.09100438349797003,-0.6780883612046493 l 18.55614948386174 2.653153512053981" fill="#ffb210" stroke="none" /><path d="M 79.46518482838121 95.60439243477599 l -20.40191648679685 -4.367159757949899 a41.86409069875057,41.86409069875057 0 0,0 0.15690185338321241,-0.703360243355224 l 20.3237202464116 4.7176981708550825" fill="#ffd013" stroke="none" /><path d="M 80.2630227832202 92.82701384747504 l -19.620593375453915 -7.130688911511854 a41.87616844053679,41.87616844053679 0 0,0 0.25204550200080017,-0.6753566362224712 l 19.49494328495149 7.467368684763667" fill="#ffd013" stroke="none" /><path d="M 80.65960295795068 91.81776055985345 l -31.96286044109317 -13.522358240754116 a55.70559925960204,55.70559925960204 0 0,0 0.38121010130407135,-0.8798854726536237 l 31.725359629946418 14.07054285799434" fill="#7bff26" stroke="none" /><path d="M 81.26839172434947 90.50648371742162 l -18.806153315525854 -9.531297050755228 a42.08357242017584,42.08357242017584 0 0,0 0.3330425121503055,-0.6433321281718607 l 18.639301370215435 9.853601901187425" fill="#ffd313" stroke="none" /><line stroke="#e1ed5e" stroke-width="0.3" x1="26.266209847984243" x2="21.928928074336255" y1="57.711370442889674" y2="55.22380399835377" /><path d="M 25.398753493254645 57.213857153982495 a86.0,86.0 0 0,1 29.58750427330803,-30.492523968695096" fill="none" id="id119" stroke="none" /><text fill="#e1ed5e" style="font-size:6.75px; font-family:Arial;" text-anchor="middle"><textPath startOffset="21.46611528233685" xlink:href="#id119">November</textPath></text><path d="M 81.78341655067845 89.55222093294921 l -33.75697774022255 -19.360680139740033 a59.914900509023596,59.914900509023596 0 0,0 0.5208040687140599,-0.8902229745516023 l 33.41871399703817 19.93888252664553" fill="#4bff2c" stroke="none" /><path d="M 81.96595687620814 89.24020034530311 l -11.43469444831715 -6.822375910493988 a34.31529384544193,34.31529384544193 0 0,0 0.3070143614630833,-0.5046508862543526 l 11.31556428856785 7.018194569955415" fill="#ff6209" stroke="none" /><path d="M 82.34701348167596 88.62581576622439 l -17.795533771792236 -11.46603037670915 a42.16957427117076,42.16957427117076 0 0,0 0.39840882956782653,-0.6068039806904735 l 17.59552830686649 11.770652421377289" fill="#ffd513" stroke="none" /><path d="M 82.7489923806493 88.02491185347247 l -17.455141311679903 -12.11679111329082 a42.248496066635816,42.248496066635816 0 0,0 0.4198441886367802,-0.5938398304622695 l 17.243984503239243 12.415457444084876" fill="#ffd614" stroke="none" /><path d="M 83.17141714833178 87.43820079747576 l -36.94267199908785 -27.576084792621337 a67.0999074502545,67.0999074502545 0 0,0 0.6988744841955348,-0.9196369000551131 l 36.46252157466821 28.207906468557475" fill="#36ff6c" stroke="none" /><path d="M 83.39014120810768 87.1503855733568 l -7.385825654176251 -5.713775960870907 a30.337968533086535,30.337968533086535 0 0,0 0.3230934697853959,-0.4102958959718893 l 7.286378103796884 5.8400642507958445" fill="#ff2403" stroke="none" /><path d="M 83.84228863543731 86.58626213691792 l -15.81905846655683 -13.13259648742992 a41.55985654789449,41.55985654789449 0 0,0 0.46168921131530616,-0.5464944019237548 l 15.5906586417544 13.40294983898279" fill="#ffcc13" stroke="none" /><path d="M 84.31358615837235 86.03803664274999 l -16.338830531550315 -14.542658091580279 a42.873415085608514,42.873415085608514 0 0,0 0.49540508662051896,-0.5470386701154367 l 16.08608180431375 14.821749548965272" fill="#ffde14" stroke="none" /><path d="M 84.80347519578584 85.50635884689758 l -37.9454019699753 -36.19031631564446 a73.43655714946784,73.43655714946784 0 0,0 0.880314561196634,-0.9072415371476908 l 37.31682314507555 36.83812204834228" fill="#3effb9" stroke="none" /><path d="M 85.05521093208273 85.24692304244772 l -7.283250627893141 -7.189820915245808 a31.23422026839426,31.23422026839426 0 0,0 0.3810042401167192,-0.37936808682690926 l 7.158410587609108 7.314124852722826" fill="#ff3204" stroke="none" /><path d="M 85.57189188830299 84.74124197986013 l -14.099953778661428 -14.9117113025601 a41.52237390097177,41.52237390097177 0 0,0 0.5235617740523595,-0.4865936091582334 l 13.841184120814212 15.152209497792981" fill="#ffcb13" stroke="none" /><path d="M 86.37877921826538 84.01681056812374 l -13.966366146026212 -16.388184243090528 a42.53211476168441,42.53211476168441 0 0,0 0.5613073830186189,-0.47007879094192856 l 13.682201226048482 16.62616419142627" fill="#ffda14" stroke="none" /><path d="M 86.93701828274178 83.55741782278169 l -26.021905174654645 -32.754184573094996 a62.83271633503008,62.83271633503008 0 0,0 0.8526323155421971,-0.6654930465103703 l 25.454240303953025 33.19725600882859" fill="#30ff34" stroke="none" /><path d="M 87.51073957382395 83.11751280151077 l -12.403353931342721 -16.766362203909818 a41.855552984729286,41.855552984729286 0 0,0 0.58289773842793,-0.42349999644603714 l 12.11291087656101 16.97738143517252" fill="#ffd013" stroke="none" /><path d="M 88.09926311788651 82.69761687909137 l -12.427446959628854 -18.06816255499657 a42.929430819065246,42.929430819065246 0 0,0 0.6124502831043416,-0.4135291650712117 l 12.114591982117974 18.279403632366446" fill="#ffdf14" stroke="none" /><path d="M 88.70189139769569 82.29822771554957 l -12.520645064635364 -19.61723113047427 a44.2723507635354,44.2723507635354 0 0,0 0.6459143025431135,-0.4044714769962075 l 12.18111160972001 19.829846948793406" fill="#fff216" stroke="none" /><path d="M 89.00827224532344 82.1063720568725 l -27.294174134368287 -44.432668628235284 a73.1462748727441,73.1462748727441 0 0,0 1.078517210260589,-0.6497945515705817 l 26.525294857890046 44.895909789264486" fill="#3effb6" stroke="none" /><line stroke="#e1ed5e" stroke-width="0.3" x1="56.762969772571076" x2="54.21961505331055" y1="26.818313649435495" y2="22.513508569990535" /><path d="M 56.25429882871897 25.957352633546506 a86.0,86.0 0 0,1 42.265352541879196,-11.944610805530505" fill="none" id="id120" stroke="none" /><text fill="#e1ed5e" style="font-size:6.75px; font-family:Arial;" text-anchor="middle"><textPath startOffset="22.20632615414155" xlink:href="#id120">December</textPath></text><path d="M 89.63071344664047 81.73862282372117 l -10.727656554688037 -18.89250350587218 a42.72577510411847,42.72577510411847 0 0,0 0.6426687205293494,-0.3576444471719252 l 10.400863745086642 19.07436335060429" fill="#ffdc14" stroke="none" /><path d="M 90.26544431104013 81.39251694778311 l -9.8843032336694 -18.89372363569352 a42.32304488662656,42.32304488662656 0 0,0 0.6484283726467664,-0.33215019756430536 l 9.55761437343387 19.06106635857033" fill="#ffd714" stroke="none" /><path d="M 91.23893434514133 80.91482961587045 l -26.28319696457602 -57.25551115238866 a84.0,84.0 0 0,0 1.3192715261329024,-0.5919186779338843 l 25.293743319976343 57.69945016083907" fill="#4dd2ff" stroke="none" /><path d="M 91.90106846888425 80.62456947434976 l -5.812229507186892 -13.904852582463986 a36.07073114298936,36.07073114298936 0 0,0 0.5749264547285378,-0.23452693642734376 l 5.572019182869973 14.002840405074908" fill="#ff7c0b" stroke="none" /></svg>