<?xml version="1.0" encoding="utf-8" ?>
<svg baseProfile="full" height="200mm" version="1.1" viewBox="0,0,200,200" width="200mm" xmlns="http://www.w3.org/2000/svg" xmlns:ev="http://www.w3.org/2001/xml-events" xmlns:xlink="http://www.w3.org/1999/xlink"><defs /><rect fill="#1a1a1a" height="200" width="200" x="0" y="0" /><rect fill="#1a1a1a" height="200" width="180" x="10" y="0" /><text alignment-baseline="middle" fill="#e1ed5e" style="dominant-baseline: central; font-size:9.0px; font-family:Arial;" text-anchor="middle" x="100.0" y="100.0">2016</text><line stroke="#e1ed5e" stroke-width="0.3" x1="100.0" x2="100.0" y1="15.0" y2="10.0" /><path d="M 100.0 14.0 a86.0,86.0 0 0,1 42.35913384403234,11.155469271406648" fill="none" id="id1" stroke="none" /><text fill="#e1ed5e" style="font-size:6.75px; font-family:Arial;" text-anchor="middle"><textPath startOffset="22.145653131862478" xlink:href="#id1">January</textPath></text><line stroke="#e1ed5e" stroke-width="0.3" x1="143.13028292997686" x2="145.6673583964461" y1="26.7553504044142" y2="22.446841604673864" /><path d="M 143.63769802327073 25.89364864446614 a86.0,86.0 0 0,1 29.32050498858742,28.57503671076993" fill="none" id="id2" stroke="none" /><text fill="#e1ed5e" style="font-size:6.75px; font-family:Arial;" text-anchor="middle"><textPath startOffset="20.669276256404974" xlink:href="#id2">February</textPath></text><line stroke="#e1ed5e" stroke-width="0.3" x1="172.87174338648825" x2="177.1583165268699" y1="56.24261187166439" y2="53.66864786411523" /><path d="M 173.72905801456457 55.72781907015455 a86.0,86.0 0 0,1 12.242430191666344,42.057860355516425" fill="none" id="id3" stroke="none" /><text fill="#e1ed5e" style="font-size:6.75px; font-family:Arial;" text-anchor="middle"><textPath startOffset="22.145653131862474" xlink:href="#id3">March</textPath></text><path d="M 120.7213421655516 96.59031103205396 l 27.275835467276885 -4.4882283464677135 a48.642637249871726,48.642637249871726 0 0,0 0.12850575871821537,0.8250991547822003 l -27.348862718133365 4.019341009754072" fill="red" stroke="none" /><path d="M 120.82617615685814 97.30363454192243 l 22.23489048386983 -2.8787517311525974 a43.42047203694202,43.42047203694202 0 0,0 0.08935915309796413,0.7400219758567469 l -22.281031723227457 2.4966360783724375" fill="red" stroke="none" /><path d="M 120.93736805541906 98.37931529534042 l 26.955026173621857 -2.0864895013382876 a48.035659312467935,48.035659312467935 0 0,0 0.05658152067689818,0.8226828927052947 l -26.986871655463823 1.6234631844786587" fill="red" stroke="none" /><path d="M 120.96210409425399 98.7389718711861 l 29.869295409830197 -1.7968626398517362 a50.9232939969215,50.9232939969215 0 0,0 0.0450026379151675,0.8730391530029117 l -29.895739637201938 1.283851693472094" fill="red" stroke="none" /><line stroke="#e1ed5e" stroke-width="0.3" x1="184.99686870605535" x2="189.99668451229388" y1="99.2704041080226" y2="99.22748670261217" /><path d="M 185.99683186730306 99.26182062694052 a86.0,86.0 0 0,1 -10.086455211305974,41.156179273409016" fill="none" id="id4" stroke="none" /><text fill="#e1ed5e" style="font-size:6.75px; font-family:Arial;" text-anchor="middle"><textPath startOffset="21.40746469413373" xlink:href="#id4">April</textPath></text><path d="M 120.86939407059847 102.33845913500097 l 29.01084915440813 3.250726158592094 a50.192406362237044,50.192406362237044 0 0,0 -0.10329576612300331,0.8554371241654464 l -28.950771302025466 -3.748256959680949" fill="red" stroke="none" /><path d="M 120.7213421655516 103.40968896794604 l 16.61836048397689 2.734544893610561 a37.84184197024115,37.84184197024115 0 0,0 -0.11097603543653944,0.640080281664179 l -16.568969631048116 -3.0194182081953285" fill="red" stroke="none" /><path d="M 120.26092885502905 105.52220625578681 l 14.921080836284446 4.066806933028561 a36.46536685479734,36.46536685479734 0 0,0 -0.16979231229122496,0.6025330166945023 l -14.849070031918641 -4.322347873626072" fill="red" stroke="none" /><path d="M 120.16314734710363 105.8691983318838 l 25.986734670931458 7.564359727979019 a48.06528989225244,48.06528989225244 0 0,0 -0.23740517846270312,0.7902446272526502 l -25.853053172465124 -8.009341958822393" fill="red" stroke="none" /><path d="M 120.05942366710727 106.21446072829308 l 12.432931652060327 3.851754007069283 a34.015905592611595,34.015905592611595 0 0,0 -0.17758778465428757,0.556291206073013 l -12.364979151628784 -4.0646142468336794" fill="red" stroke="none" /><path d="M 119.94978838288452 106.5578916946017 l 22.118095295373507 7.270657244784582 a44.28245253976398,44.28245253976398 0 0,0 -0.24358423032726628,0.720113494881279 l -21.990025643473878 -7.649272414140022" fill="red" stroke="none" /><path d="M 119.83427380445688 106.89939002012753 l 32.549138998155456 11.322280159163448 a55.46216008209338,55.46216008209338 0 0,0 -0.320518015074212,0.8965459329274356 l -32.3499808130373 -11.879361048471806" fill="red" stroke="none" /><path d="M 119.4528033332814 107.91128576633889 l 41.65867572048624 16.942220749651508 a65.97203694202156,65.97203694202156 0 0,0 -0.4356484051020294,1.0453975800116109 l -41.36170147084773 -17.654850839104398" fill="red" stroke="none" /><path d="M 119.0197475246899 108.90220220490707 l 19.586566578251936 9.167502142345942 a42.62583376090303,42.62583376090303 0 0,0 -0.31587923237853166,0.6600661060998521 l -19.426308087913494 -9.502380750510897" fill="red" stroke="none" /><path d="M 118.8641267826498 109.22738970284198 l 40.96019114089728 20.03568202836599 a66.59787070292458,66.59787070292458 0 0,0 -0.5111547895148196,1.0226519880485212 l -40.61021643817073 -20.73586587257826" fill="red" stroke="none" /><path d="M 118.5362547648365 109.86951160357373 l 30.09565598534019 16.024241667628914 a55.095818368394056,55.095818368394056 0 0,0 -0.4516667308984602,0.8310159125690469 l -29.816143904826394 -16.538512413672564" fill="red" stroke="none" /><line stroke="#e1ed5e" stroke-width="0.3" x1="174.33088141563837" x2="178.70328620479359" y1="141.23008692659167" y2="143.65538615756765" /><path d="M 175.20536237346943 141.71514677278685 a86.0,86.0 0 0,1 -30.301960400862466,31.631185727798858" fill="none" id="id5" stroke="none" /><text fill="#e1ed5e" style="font-size:6.75px; font-family:Arial;" text-anchor="middle"><textPath startOffset="22.145653131862474" xlink:href="#id5">May</textPath></text><path d="M 117.62189284568427 111.42229804090321 l 30.75995277172313 19.938229755424743 a57.65661877886096,57.65661877886096 0 0,0 -0.5454743374201889,0.8259176702673968 l -30.413153995382213 -20.4633273040312" fill="red" stroke="none" /><path d="M 117.21940702142032 112.02048342749411 l 15.449462841520612 10.784924929131883 a39.84145715751668,39.84145715751668 0 0,0 -0.39629899298907934,0.5574441635217158 l -15.262048750001572 -11.048546319363103" fill="red" stroke="none" /><path d="M 117.01052211995028 112.31430620078461 l 14.56600506654029 10.54466436989539 a38.982170343766036,38.982170343766036 0 0,0 -0.39705750041765453,0.5386847564174658 l -14.382845546538809 -10.793155435581733" fill="red" stroke="none" /><path d="M 116.79662413953412 112.60449989151573 l 18.10154401560446 13.583736093965022 a43.63147768086198,43.63147768086198 0 0,0 -0.45469821978887826,0.5952145657125897 l -17.865693818461278 -13.892471572918488" fill="red" stroke="none" /><path d="M 116.57777611688842 112.89097897827486 l 28.629765483890882 22.262678805861963 a57.26693175987686,57.26693175987686 0 0,0 -0.6101207166115888,0.7708675943674295 l -28.24337833663773 -22.750866344144075" fill="red" stroke="none" /><path d="M 116.1254893667686 113.45245675266167 l 24.11859686757878 20.120591314556957 a52.409312467932274,52.409312467932274 0 0,0 -0.5822560724582364,0.685896189293733 l -23.76964623161343 -20.53165428630025" fill="red" stroke="none" /><path d="M 115.89218393027572 113.72728997021213 l 36.8439369363524 31.824915202875047 a69.68573627501283,69.68573627501283 0 0,0 -0.7897349634929954,0.8985734188073173 l -36.29219090890082 -32.45270089949366" fill="red" stroke="none" /><path d="M 115.6541949942343 113.99807769240083 l 23.993326832491746 21.45498080380932 a53.186890713186244,53.186890713186244 0 0,0 -0.614441046290031,0.6753783441013046 l -23.621488085359836 -21.863696723468298" fill="red" stroke="none" /><path d="M 115.16444852881244 114.52719865689866 l 32.740244076551406 31.364413211052582 a66.33927655207799,66.33927655207799 0 0,0 -0.7948494086956951,0.8155855157328272 l -32.1970078667049 -31.921821418853146" fill="red" stroke="none" /><path d="M 114.91283532996324 114.78537596483092 l 32.86842977548083 32.58750471331898 a67.28476141611083,67.28476141611083 0 0,0 -0.820259170221522,0.813248450209723 l -32.30417868512934 -33.14693317375737" fill="red" stroke="none" /><path d="M 114.65682725009322 115.03919595460226 l 31.9996114693116 32.8344203794211 a66.8483837865572,66.8483837865572 0 0,0 -0.8286892178607626,0.7938655250021189 l -31.431249765585523 -33.37889803472879" fill="red" stroke="none" /><path d="M 114.39649973595853 115.28858382429668 l 31.18626058759204 33.11872801753749 a66.49102103642893,66.49102103642893 0 0,0 -0.8376926019607532,0.77535576635048 l -30.61313821431732 -33.64920153002035" fill="red" stroke="none" /><path d="M 113.59037401385872 116.0094264158162 l 11.905232717459281 14.024334205885166 a39.396100564392,39.396100564392 0 0,0 -0.5193262747696552,0.4332404488918584 l -11.662732108527731 -14.226636838688895" fill="red" stroke="none" /><path d="M 112.45986205192187 116.90419585922612 l 16.190681871898306 21.96576946971698 a48.28796818881477,48.28796818881477 0 0,0 -0.6714763657900795,0.4860971060512779 l -15.811224495734256 -22.240467347141337" fill="red" stroke="none" /><path d="M 111.8722381534696 117.32195027204791 l 35.616714460408794 51.96585081614374 a84.0,84.0 0 0,0 -1.1964148476119867,0.8050013037715154 l -34.719403324699805 -52.56960179397238" fill="red" stroke="none" /><path d="M 111.27062007382361 117.71928675628689 l 12.338023163592693 19.397421704344683 a43.98884043099025,43.98884043099025 0 0,0 -0.6406364446067675,0.3998045227012031 l -12.003222590196211 -19.606362023887435" fill="red" stroke="none" /><path d="M 110.96478420261333 117.91015095944535 l 5.678828076203831 9.275938881980569 a31.8762185736275,31.8762185736275 0 0,0 -0.46913785742493774,0.28170380395819156 l -5.518757462221457 -9.372056686474682" fill="red" stroke="none" /><line stroke="#e1ed5e" stroke-width="0.3" x1="143.1302829299769" x2="145.66735839644613" y1="173.24464959558577" y2="177.55315839532614" /><path d="M 143.63769802327073 174.10635135553383 a86.0,86.0 0 0,1 -40.68552437913181,11.842963189579606" fill="none" id="id6" stroke="none" /><text fill="#e1ed5e" style="font-size:6.75px; font-family:Arial;" text-anchor="middle"><textPath startOffset="21.407464694133747" xlink:href="#id6">June</textPath></text><line stroke="#e1ed5e" stroke-width="0.3" x1="101.45913802915013" x2="101.54496967792366" y1="184.9874750549273" y2="189.98673829345242" /><path d="M 101.47630435890484 185.9873277026323 a86.0,86.0 0 0,1 -42.54439059252881,-10.42667462771756" fill="none" id="id7" stroke="none" /><text fill="#e1ed5e" style="font-size:6.75px; font-family:Arial;" text-anchor="middle"><textPath startOffset="22.145653131862474" xlink:href="#id7">July</textPath></text><path d="M 95.70440661134978 120.55596938700252 l -8.478782845632306 40.574045270291776 a62.450487429450995,62.450487429450995 0 0,0 -1.0474956558622293,-0.22829680279987993 l 9.174040918113672 -40.422517009358174" fill="red" stroke="none" /><path d="M 93.95794788825049 120.11202640906438 l -5.899190181794083 19.636485507567354 a41.50346331452027,41.50346331452027 0 0,0 -0.6805764933630271,-0.2108443373445041 l 6.235407308028743 -19.5323245824162" fill="red" stroke="none" /><line stroke="#e1ed5e" stroke-width="0.3" x1="58.13341422392154" x2="55.67067388415222" y1="173.97424548756322" y2="178.32567169271397" /><path d="M 57.64086615596768 174.84453072859336 a86.0,86.0 0 0,1 -31.369924170532247,-30.572349798747897" fill="none" id="id8" stroke="none" /><text fill="#e1ed5e" style="font-size:6.75px; font-family:Arial;" text-anchor="middle"><textPath startOffset="22.145653131862474" xlink:href="#id8">August</textPath></text><line stroke="#e1ed5e" stroke-width="0.3" x1="26.387840678322732" x2="22.057713659400548" y1="142.50000000000003" y2="145.00000000000006" /><path d="M 25.521815274538298 143.00000000000003 a86.0,86.0 0 0,1 -11.493303480769221,-40.785679425670985" fill="none" id="id9" stroke="none" /><text fill="#e1ed5e" style="font-size:6.75px; font-family:Arial;" text-anchor="middle"><textPath startOffset="21.40746469413373" xlink:href="#id9">September</textPath></text><line stroke="#e1ed5e" stroke-width="0.3" x1="15.003131293944662" x2="10.003315487706104" y1="100.72959589197737" y2="100.7725132973878" /><path d="M 14.003168132696942 100.73817937305945 a86.0,86.0 0 0,1 10.791469493833604,-42.45332614584628" fill="none" id="id10" stroke="none" /><text fill="#e1ed5e" style="font-size:6.75px; font-family:Arial;" text-anchor="middle"><textPath startOffset="22.145653131862435" xlink:href="#id10">October</textPath></text><line stroke="#e1ed5e" stroke-width="0.3" x1="26.387840678322718" x2="22.05771365940052" y1="57.49999999999999" y2="54.99999999999999" /><path d="M 25.521815274538284 56.99999999999999 a86.0,86.0 0 0,1 29.574782752854787,-30.34633250058573" fill="none" id="id11" stroke="none" /><text fill="#e1ed5e" style="font-size:6.75px; font-family:Arial;" text-anchor="middle"><textPath startOffset="21.40746469413373" xlink:href="#id11">November</textPath></text><line stroke="#e1ed5e" stroke-width="0.3" x1="56.869717070023135" x2="54.33264160355391" y1="26.7553504044142" y2="22.446841604673864" /><path d="M 56.362301976729285 25.89364864446614 a86.0,86.0 0 0,1 42.16139366436587,-11.88097634709845" fill="none" id="id12" stroke="none" /><text fill="#e1ed5e" style="font-size:6.75px; font-family:Arial;" text-anchor="middle"><textPath startOffset="22.145653131862474" xlink:href="#id12">December</textPath></text><path d="M 95.00130118170881 79.60360301121753 l -10.69800199464456 -43.65149884028207 a65.94330425859414,65.94330425859414 0 0,0 1.101780244785096,-0.2600171377772113 l 9.947089596119557 43.828712121705514" fill="red" stroke="none" /></svg>