<?xml version="1.0" encoding="utf-8" ?>
<svg baseProfile="full" height="200mm" version="1.1" viewBox="0,0,200,200" width="200mm" xmlns="http://www.w3.org/2000/svg" xmlns:ev="http://www.w3.org/2001/xml-events" xmlns:xlink="http://www.w3.org/1999/xlink"><defs /><rect fill="#1a1a1a" height="200" width="200" x="0" y="0" /><text alignment-baseline="middle" fill="#e1ed5e" style="dominant-baseline: central; font-size:9.0px; font-family:Arial;" text-anchor="middle" x="100.0" y="100.0">2024</text><line stroke="#e1ed5e" stroke-width="0.3" x1="100.0" x2="100.0" y1="15.0" y2="10.0" /><path d="M 100.0 14.0 a86.0,86.0 0 0,1 42.35913384403234,11.155469271406648" fill="none" id="id97" stroke="none" /><text fill="#e1ed5e" style="font-size:6.75px; font-family:Arial;" text-anchor="middle"><textPath startOffset="22.145653131862478" xlink:href="#id97">January</textPath></text><path d="M 108.07796709384702 80.6158196554323 l 15.08631244584335 -36.20165789081656 a60.21934289680704,60.21934289680704 0 0,0 0.9507915190888537,0.40583636194053546 l -15.705539040102634 35.937346879216626" fill="#35ff2f" stroke="none" /><path d="M 108.73861861582097 80.90454125486305 l 9.09613250462021 -19.87669111314757 a42.859150856085144,42.859150856085144 0 0,0 0.6663807842093117,0.3118998545482821 l -9.436002002701025 19.717615027028753" fill="#f8ff18" stroke="none" /><path d="M 110.34350942703115 81.72400993836675 l 8.160719186504931 -14.41920885754463 a37.56837112447941,37.56837112447941 0 0,0 0.5585299254894488,0.3224674028317949 l -8.407041579854777 14.276994557436664" fill="#ffc212" stroke="none" /><line stroke="#e1ed5e" stroke-width="0.3" x1="143.13028292997686" x2="145.6673583964461" y1="26.7553504044142" y2="22.446841604673864" /><path d="M 143.63769802327073 25.89364864446614 a86.0,86.0 0 0,1 29.32050498858742,28.57503671076993" fill="none" id="id98" stroke="none" /><text fill="#e1ed5e" style="font-size:6.75px; font-family:Arial;" text-anchor="middle"><textPath startOffset="20.669276256404974" xlink:href="#id98">February</textPath></text><path d="M 110.65571695917076 81.90426304109057 l 12.676337313330958 -21.527192070077003 a45.98218417399353,45.98218417399353 0 0,0 0.676742233815455,0.40636426702247347 l -13.044012303703846 21.30641380251861" fill="#d2ff1c" stroke="none" /><path d="M 117.42321728460499 88.27688183743584 l 19.64582352535903 -13.218586833108425 a44.67888130495142,44.67888130495142 0 0,0 0.42269532436455154,0.640014595706202 l -19.869843288644304 12.879392359063164" fill="#e2ff1b" stroke="none" /><line stroke="#e1ed5e" stroke-width="0.3" x1="172.87174338648825" x2="177.1583165268699" y1="56.24261187166439" y2="53.66864786411523" /><path d="M 173.72905801456457 55.72781907015455 a86.0,86.0 0 0,1 12.242430191666344,42.057860355516425" fill="none" id="id99" stroke="none" /><text fill="#e1ed5e" style="font-size:6.75px; font-family:Arial;" text-anchor="middle"><textPath startOffset="22.145653131862474" xlink:href="#id99">March</textPath></text><path d="M 119.0197475246899 91.09779779509293 l 37.3438729618519 -17.478818148832808 a62.23195279962981,62.23195279962981 0 0,0 0.44455998582626893,0.9714437993340181 l -37.638417412533215 16.835185367284105" fill="#31ff41" stroke="none" /><path d="M 120.51834098615036 95.52812308129327 l 61.555022958451104 -13.415630756120196 a84.0,84.0 0 0,0 0.29496915670253276,1.4115341948583824 l -61.776249825978 12.35698010997641" fill="#4dd2ff" stroke="none" /><line stroke="#e1ed5e" stroke-width="0.3" x1="184.99686870605535" x2="189.99668451229388" y1="99.2704041080226" y2="99.22748670261217" /><path d="M 185.99683186730306 99.26182062694052 a86.0,86.0 0 0,1 -10.086455211305974,41.156179273409016" fill="none" id="id100" stroke="none" /><text fill="#e1ed5e" style="font-size:6.75px; font-family:Arial;" text-anchor="middle"><textPath startOffset="21.40746469413373" xlink:href="#id100">April</textPath></text><line stroke="#e1ed5e" stroke-width="0.3" x1="174.33088141563837" x2="178.70328620479359" y1="141.23008692659167" y2="143.65538615756765" /><path d="M 175.20536237346943 141.71514677278685 a86.0,86.0 0 0,1 -30.301960400862466,31.631185727798858" fill="none" id="id101" stroke="none" /><text fill="#e1ed5e" style="font-size:6.75px; font-family:Arial;" text-anchor="middle"><textPath startOffset="22.145653131862474" xlink:href="#id101">May</textPath></text><path d="M 113.03279911837588 116.46651593811092 l 1.7441718295238355 2.2037041290050525 a23.810417630726516,23.810417630726516 0 0,0 -0.3226765748469876,0.2509152562928335 l -1.7060853100416173 -2.2333204369186794" fill="#ff0000" stroke="none" /><line stroke="#e1ed5e" stroke-width="0.3" x1="143.1302829299769" x2="145.66735839644613" y1="173.24464959558577" y2="177.55315839532614" /><path d="M 143.63769802327073 174.10635135553383 a86.0,86.0 0 0,1 -40.68552437913181,11.842963189579606" fill="none" id="id102" stroke="none" /><text fill="#e1ed5e" style="font-size:6.75px; font-family:Arial;" text-anchor="middle"><textPath startOffset="21.407464694133747" xlink:href="#id102">June</textPath></text><line stroke="#e1ed5e" stroke-width="0.3" x1="101.45913802915013" x2="101.54496967792366" y1="184.9874750549273" y2="189.98673829345242" /><path d="M 101.47630435890484 185.9873277026323 a86.0,86.0 0 0,1 -42.54439059252881,-10.42667462771756" fill="none" id="id103" stroke="none" /><text fill="#e1ed5e" style="font-size:6.75px; font-family:Arial;" text-anchor="middle"><textPath startOffset="22.145653131862474" xlink:href="#id103">July</textPath></text><line stroke="#e1ed5e" stroke-width="0.3" x1="58.13341422392154" x2="55.67067388415222" y1="173.97424548756322" y2="178.32567169271397" /><path d="M 57.64086615596768 174.84453072859336 a86.0,86.0 0 0,1 -31.369924170532247,-30.572349798747897" fill="none" id="id104" stroke="none" /><text fill="#e1ed5e" style="font-size:6.75px; font-family:Arial;" text-anchor="middle"><textPath startOffset="22.145653131862474" xlink:href="#id104">August</textPath></text><line stroke="#e1ed5e" stroke-width="0.3" x1="26.387840678322732" x2="22.057713659400548" y1="142.50000000000003" y2="145.00000000000006" /><path d="M 25.521815274538298 143.00000000000003 a86.0,86.0 0 0,1 -11.493303480769221,-40.785679425670985" fill="none" id="id105" stroke="none" /><text fill="#e1ed5e" style="font-size:6.75px; font-family:Arial;" text-anchor="middle"><textPath startOffset="21.40746469413373" xlink:href="#id105">September</textPath></text><line stroke="#e1ed5e" stroke-width="0.3" x1="15.003131293944662" x2="10.003315487706104" y1="100.72959589197737" y2="100.7725132973878" /><path d="M 14.003168132696942 100.73817937305945 a86.0,86.0 0 0,1 10.791469493833604,-42.45332614584628" fill="none" id="id106" stroke="none" /><text fill="#e1ed5e" style="font-size:6.75px; font-family:Arial;" text-anchor="middle"><textPath startOffset="22.145653131862435" xlink:href="#id106">October</textPath></text><path d="M 79.00077361379809 99.81974689727619 l -13.993526587083363 -0.12011759571425684 a34.994042110134195,34.994042110134195 0 0,0 0.010312524916082231,-0.600652876252701 l 13.989402630568614 0.3603173879360102" fill="#ffa00e" stroke="none" /><path d="M 79.03789590574601 98.7389718711861 l -4.9198135910710095 -0.29596376866395446 a25.928707774178623,25.928707774178623 0 0,0 0.03054159630675218,-0.4440681073411532 l 4.914008033599194 0.38037530015943266" fill="#ff2003" stroke="none" /><path d="M 79.17382384314186 97.30363454192245 l -17.520845024142663 -2.268424167912896 a38.66708121240167,38.66708121240167 0 0,0 0.09087773745891063,-0.6575460375583888 l 17.479322770128544 2.5688585136713518" fill="#ffd013" stroke="none" /><path d="M 79.2786578344484 96.59031103205396 l -15.429023433707316 -2.538839934584532 a36.636510874595096,36.636510874595096 0 0,0 0.10744124803141337,-0.6196925672446023 l 15.383167368183669 2.803325534749727" fill="#ffb610" stroke="none" /><path d="M 79.407916724674 95.88100663000787 l -20.42864458964849 -4.086301055489279 a41.83332369273485,41.83332369273485 0 0,0 0.14689928823464385,-0.7029662723437357 l 20.35548759058948 4.436383779118423" fill="#fff917" stroke="none" /><path d="M 79.64726062577567 94.8264132398404 l -32.326051976685704 -8.217156002430555 a54.354089541878764,54.354089541878764 0 0,0 0.237632246725063,-0.9023283467317276 l 32.18023024915592 8.770864853535066" fill="#73ff27" stroke="none" /><path d="M 80.16572619554312 93.10060997987247 l -28.845464811480277 -10.033950020471455 a51.54080865340121,51.54080865340121 0 0,0 0.29785637018925853,-0.8331572789375915 l 28.668968271247074 10.527642255789969" fill="#92ff23" stroke="none" /><path d="M 80.5471966667186 92.08871423366112 l -40.70419046123529 -16.554039904129176 a64.94163581675151,64.94163581675151 0 0,0 0.4288441191098854,-1.0290697706437972 l 40.41402049758893 17.250342184214237" fill="#35ff62" stroke="none" /><path d="M 81.46374523516351 90.13048839642627 l -29.7246986838016 -15.826727798812728 a54.67555529847293,54.67555529847293 0 0,0 0.44822148128548434,-0.8246770413277358 l 29.448631852900764 16.334659673615082" fill="#6fff27" stroke="none" /><line stroke="#e1ed5e" stroke-width="0.3" x1="26.387840678322718" x2="22.05771365940052" y1="57.49999999999999" y2="54.99999999999999" /><path d="M 25.521815274538284 56.99999999999999 a86.0,86.0 0 0,1 29.574782752854787,-30.34633250058573" fill="none" id="id107" stroke="none" /><text fill="#e1ed5e" style="font-size:6.75px; font-family:Arial;" text-anchor="middle"><textPath startOffset="21.40746469413373" xlink:href="#id107">November</textPath></text><path d="M 82.18462484594161 88.88188828441811 l -27.417328854794686 -17.110440982266567 a53.31837112447941,53.31837112447941 0 0,0 0.4912457868529415,-0.7723199706892475 l 27.119565376315855 17.578574627634488" fill="#7eff26" stroke="none" /><path d="M 82.37810715431573 88.57770195909679 l -17.714650379751674 -11.48242235382097 a42.11053910226747,42.11053910226747 0 0,0 0.39839690397588423,-0.6032236902834204 l 17.51492903685506 11.784825922443453" fill="#fffc17" stroke="none" /><path d="M 82.98947788004972 87.6856937992154 l -10.642259207241652 -7.704174958415436 a34.138188338732064,34.138188338732064 0 0,0 0.3477185495581913,-0.47174699375672896 l 10.508438638099642 7.885728261441028" fill="#ff940d" stroke="none" /><path d="M 83.64595745247003 86.82634096563983 l -42.94922719475683 -34.596857211824414 a76.1505090236002,76.1505090236002 0 0,0 0.8287829073305353,-1.0109803887275268 l 42.34899746818766 35.329039882250434" fill="#43ffdf" stroke="none" /><path d="M 84.34580500576568 86.00192230759919 l -9.779926500971676 -8.745270583188322 a34.1197073114299,34.1197073114299 0 0,0 0.39416759239788063,-0.43325923204423844 l 9.628361207731931 8.911867390790219" fill="#ff940d" stroke="none" /><path d="M 84.83555147118756 85.47280134310135 l -29.282939069672917 -28.05239322186621 a61.551538639518746,61.551538639518746 0 0,0 0.7374847395799664,-0.7567243116685727 l 28.797067528942147 28.550940225602513" fill="#30ff38" stroke="none" /><path d="M 85.34317274990677 84.96080404539775 l -25.64284693168766 -26.311819963428217 a57.74054257288293,57.74054257288293 0 0,0 0.7157834244184478,-0.6857043289167573 l 25.187391021403915 26.748136422650543" fill="#4fff2b" stroke="none" /><path d="M 85.86807049272753 84.46653392183569 l -18.32341944087243 -20.1406477561536 a48.22854002776493,48.22854002776493 0 0,0 0.6171759719384942,-0.551882559803297 l 17.974978442110547 20.4522258458403" fill="#b7ff1f" stroke="none" /><path d="M 86.40962598614128 83.9905735841838 l -17.207518495682415 -20.270413520224082 a47.58925266080519,47.58925266080519 0 0,0 0.6273298359316447,-0.5233408608929531 l 16.85701432558886 20.562816565028918" fill="#bfff1e" stroke="none" /><path d="M 87.25179093698888 83.31218511350988 l -21.49048072812729 -28.131729126817714 a56.40105853771402,56.40105853771402 0 0,0 0.7744322215056919,-0.5811483766538375 l 21.004395517710847 28.496496530735552" fill="#5dff2a" stroke="none" /><path d="M 88.12776184653039 82.6780497279521 l -15.618366053005515 -22.787662831859418 a48.62627255900047,48.62627255900047 0 0,0 0.6925856484954547,-0.46600253342317505 l 15.22488411641307 23.052415039339703" fill="#b3ff20" stroke="none" /><line stroke="#e1ed5e" stroke-width="0.3" x1="56.869717070023135" x2="54.33264160355391" y1="26.7553504044142" y2="22.446841604673864" /><path d="M 56.362301976729285 25.89364864446614 a86.0,86.0 0 0,1 42.16139366436587,-11.88097634709845" fill="none" id="id108" stroke="none" /><text fill="#e1ed5e" style="font-size:6.75px; font-family:Arial;" text-anchor="middle"><textPath startOffset="22.145653131862474" xlink:href="#id108">December</textPath></text><path d="M 89.34428304082924 81.90426304109057 l -27.913803000867965 -47.40374003569937 a76.01177117075429,76.01177117075429 0 0,0 1.1300689281324385,-0.6524455998600918 l 27.09594160487513 47.875932532835634" fill="#43ffdd" stroke="none" /><path d="M 90.28995756902619 81.37971332152246 l -10.275316848622811 -19.704274908545244 a43.22252429430819,43.22252429430819 0 0,0 0.6608369504631292,-0.3374280555561706 l 9.935552676446099 19.87776091577425" fill="#f4ff19" stroke="none" /><path d="M 90.93487009805054 81.0573650232925 l -13.889950458071075 -29.024654276074862 a53.17703031004166,53.17703031004166 0 0,0 0.8268047885249872,-0.38698638885085845 l 13.389656955674566 29.258816896496263" fill="#7fff26" stroke="none" /><path d="M 91.5904679813234 80.7573450057729 l -10.437212116952564 -23.882383873685622 a47.06345441925035,47.06345441925035 0 0,0 0.7430757488923134,-0.3171748511868134 l 10.025701292889819 24.058033374531842" fill="#c5ff1e" stroke="none" /><path d="M 92.592206182469 80.34994680014964 l -10.037672031037275 -26.6261176095034 a49.45531582600648,49.45531582600648 0 0,0 0.7969626373281873,-0.2926557195096831 l 9.57912024205496 26.794504178021807" fill="#a9ff21" stroke="none" /><path d="M 93.27111125876988 80.10723608172694 l -9.205320637116102 -27.2138947853492 a49.72862679315132,49.72862679315132 0 0,0 0.8109963792692697,-0.266590618300732 l 8.736801520199071 27.36790632505196" fill="#a6ff21" stroke="none" /><path d="M 93.95794788825049 79.88797359093562 l -9.048624094721905 -30.11992670583708 a52.44976284127719,52.44976284127719 0 0,0 0.8645219171650681,-0.2516497304093343 l 8.530242165175213 30.270820130548934" fill="#87ff25" stroke="none" /><path d="M 95.00130118170881 79.60360301121753 l -6.5755384761782185 -26.830440890814234 a48.62445048588617,48.62445048588617 0 0,0 0.8124169627411173,-0.19172819111020079 l 6.113989359697195 26.93936522557067" fill="#b3ff20" stroke="none" /><path d="M 95.70440661134978 79.44403061299748 l -5.719163601281736 -27.368268192662395 a48.95945164275798,48.95945164275798 0 0,0 0.8241589629614829,-0.16485487451022127 l 5.2485081527892765 27.462412463835484" fill="#afff20" stroke="none" /><path d="M 96.41257539226777 79.30868818359171 l -7.687160579836338 -44.337499441066456 a65.99895881536325,65.99895881536325 0 0,0 1.117967353604687,-0.18396110259918066 l 6.924915723178578 44.462926542161306" fill="#36ff6e" stroke="none" /><path d="M 97.48249496171623 79.15144685158666 l -3.16118341256534 -26.179133462104357 a47.369302406293386,47.369302406293386 0 0,0 0.8081295437328471,-0.09055260097218873 l 2.7113179672316936 26.229541823583514" fill="#c2ff1e" stroke="none" /><path d="M 98.1996594967304 79.07731436759882 l -2.410790956440353 -28.017045228629236 a49.12057496529384,49.12057496529384 0 0,0 0.8407360779521366,-0.0650782896200638 l 1.9294858837129993 28.054301285244353" fill="#adff20" stroke="none" /><path d="M 99.63950707515114 79.00309439819443 l -0.4555998331225525 -26.536406206261567 a47.54031698287831,47.54031698287831 0 0,0 0.8160927579713981,-0.007005174811175332 l 6.500502848287612e-15 26.54031698287831" fill="#c0ff1e" stroke="none" /></svg>