<?xml version="1.0" encoding="utf-8" ?>
<svg baseProfile="full" height="200mm" version="1.1" viewBox="0,0,200,200" width="200mm" xmlns="http://www.w3.org/2000/svg" xmlns:ev="http://www.w3.org/2001/xml-events" xmlns:xlink="http://www.w3.org/1999/xlink"><defs /><rect fill="#1a1a1a" height="200" width="200" x="0" y="0" /><rect fill="#1a1a1a" height="200" width="180" x="10" y="0" /><text alignment-baseline="middle" fill="#e1ed5e" style="dominant-baseline: central; font-size:9.0px; font-family:Arial;" text-anchor="middle" x="100.0" y="100.0">2017</text><line stroke="#e1ed5e" stroke-width="0.3" x1="100.0" x2="100.0" y1="15.0" y2="10.0" /><path d="M 100.0 14.0 a86.0,86.0 0 0,1 42.46469731375804,11.215312516191453" fill="none" id="id13" stroke="none" /><text fill="#e1ed5e" style="font-size:6.75px; font-family:Arial;" text-anchor="middle"><textPath startOffset="22.20632615414155" xlink:href="#id13">January</textPath></text><line stroke="#e1ed5e" stroke-width="0.3" x1="143.23703022742887" x2="145.7803849466894" y1="26.81831364943548" y2="22.513508569990506" /><path d="M 143.74570117128098 25.957352633546492 a86.0,86.0 0 0,1 28.547481713284135,27.462654790039103" fill="none" id="id14" stroke="none" /><text fill="#e1ed5e" style="font-size:6.75px; font-family:Arial;" text-anchor="middle"><textPath startOffset="19.985693538727396" xlink:href="#id14">February</textPath></text><path d="M 114.68862486808459 84.99185889309783 l 21.156572795512027 -21.61678391987537 a51.24708117307159,51.24708117307159 0 0,0 0.625127025831436,0.6224425317178011 l -21.525535621510787 21.24940553750745" fill="red" stroke="none" /><path d="M 115.9244219780498 86.31012108654704 l 16.094903481396567 -13.836438150643334 a42.224818933787155,42.224818933787155 0 0,0 0.4690762906990839,0.5552383739093701 l -16.33069038558277 13.557340827104857" fill="red" stroke="none" /><line stroke="#e1ed5e" stroke-width="0.3" x1="172.23445277983987" x2="176.4835382374775" y1="55.19839476539836" y2="52.563006222186495" /><path d="M 173.08426987136738 54.67131705675599 a86.0,86.0 0 0,1 12.851231095245387,41.99856678651699" fill="none" id="id15" stroke="none" /><text fill="#e1ed5e" style="font-size:6.75px; font-family:Arial;" text-anchor="middle"><textPath startOffset="22.20632615414155" xlink:href="#id15">March</textPath></text><path d="M 119.04729006885535 91.15688171328212 l 32.68464317728247 -15.174555788830117 a57.03544148494083,57.03544148494083 0 0,0 0.4057601337534648,0.8940386691818524 l -32.941005627999274 14.609695110806202" fill="red" stroke="none" /><path d="M 119.7369772167798 92.82701384747503 l 33.92144054979126 -12.328028789053358 a57.0921656706376,57.0921656706376 0 0,0 0.3277278419757769,0.9265307415713451 l -34.128621472576846 11.742300421055399" fill="red" stroke="none" /><path d="M 119.97218684219823 93.5106431181261 l 33.85675754614539 -11.000727377324719 a56.59910159496577,56.59910159496577 0 0,0 0.2930877105761287,0.9291681359656496 l -34.04110074048972 10.41630907493265" fill="red" stroke="none" /><path d="M 120.53481517161879 95.60439243477599 l 21.766481471242347 -4.65925355663958 a43.259567815728026,43.259567815728026 0 0,0 0.14959715586624328,0.729488860352337 l -21.843457923023585 4.283889040123831" fill="red" stroke="none" /><path d="M 120.87857604477298 97.74499172005257 l 34.2994258676721 -3.7045385261514183 a55.49890172952864,55.49890172952864 0 0,0 0.09440858529801396,0.9506815700543527 l -34.35811157865234 3.1135814253926304" fill="red" stroke="none" /><line stroke="#e1ed5e" stroke-width="0.3" x1="184.98032266829074" x2="189.97916517819016" y1="98.17113171792111" y2="98.06355123074" /><path d="M 185.9800911702706 98.14961562048488 a86.0,86.0 0 0,1 -9.607161424134198,41.387399972396054" fill="none" id="id16" stroke="none" /><text fill="#e1ed5e" style="font-size:6.75px; font-family:Arial;" text-anchor="middle"><textPath startOffset="21.466115282336823" xlink:href="#id16">April</textPath></text><line stroke="#e1ed5e" stroke-width="0.3" x1="174.80103733775053" x2="179.2010983576182" y1="140.37084112569926" y2="142.7455964860345" /><path d="M 175.68104954172406 140.8457921977663 a86.0,86.0 0 0,1 -30.038265399797805,32.042727171017184" fill="none" id="id17" stroke="none" /><text fill="#e1ed5e" style="font-size:6.75px; font-family:Arial;" text-anchor="middle"><textPath startOffset="22.206326154141568" xlink:href="#id17">May</textPath></text><path d="M 117.94076556474637 110.91462005526583 l 39.56259393390308 24.06868757249832 a67.30875252305378,67.30875252305378 0 0,0 -0.6106998769276174,0.9846426526813821 l -39.142429417307504 -24.746126556544976" fill="red" stroke="none" /><path d="M 116.93607887273984 112.41649034213515 l 35.53127949439127 26.049346605011564 a65.05723869078244,65.05723869078244 0 0,0 -0.6698997565147544,0.8974401973051404 l -35.07761847118143 -26.65709968182602" fill="red" stroke="none" /><path d="M 115.07121518719521 114.62390073753431 l 31.441261698651996 30.508083418155707 a64.80977163889659,64.80977163889659 0 0,0 -0.7837642426527455,0.7939490398594508 l -30.911456830943717 -31.04477295199582" fill="red" stroke="none" /><path d="M 114.29624159901734 115.38237550388516 l 42.88872479705202 46.14712651165547 a84.0,84.0 0 0,0 -1.0676018021325442,0.9752289336536681 l -42.088023445452606 -46.878548211895726" fill="red" stroke="none" /><path d="M 113.75828350139079 115.86535959552629 l 38.5492761159897 44.45308367614204 a79.83981082043772,79.83981082043772 0 0,0 -1.0460327762028494,0.8914518250765097 l -37.7783778632098 -45.1100598914415" fill="red" stroke="none" /><path d="M 113.20401910651253 116.32954008644616 l 32.554097053081016 40.25997149187334 a72.77484465904143,72.77484465904143 0 0,0 -0.9808749761619228,0.7792664036839814 l -31.85626458420174 -40.81437180956244" fill="red" stroke="none" /><line stroke="#e1ed5e" stroke-width="0.3" x1="143.8653032363475" x2="146.44561519142675" y1="172.8068346515853" y2="177.08958963109032" /><path d="M 144.38136562736335 173.6633856474863 a86.0,86.0 0 0,1 -40.68145358897372,12.25698825130547" fill="none" id="id18" stroke="none" /><text fill="#e1ed5e" style="font-size:6.75px; font-family:Arial;" text-anchor="middle"><textPath startOffset="21.466115282336833" xlink:href="#id18">June</textPath></text><line stroke="#e1ed5e" stroke-width="0.3" x1="102.19456741930631" x2="102.32365962044197" y1="184.97166512339345" y2="189.96999836594603" /><path d="M 102.22038585953345 185.97133177190398 a86.0,86.0 0 0,1 -42.740103519485714,-10.115201625700543" fill="none" id="id19" stroke="none" /><text fill="#e1ed5e" style="font-size:6.75px; font-family:Arial;" text-anchor="middle"><textPath startOffset="22.20632615414155" xlink:href="#id19">July</textPath></text><path d="M 93.42475214034765 119.94407469862007 l -2.173056051451576 6.591324485329755 a27.940297621403413,27.940297621403413 0 0,0 -0.45546712126421074,-0.15451917671082238 l 2.286192905653013 -6.55294232172081" fill="red" stroke="none" /><line stroke="#e1ed5e" stroke-width="0.3" x1="58.666819895761336" x2="56.23545636021788" y1="174.27360380694188" y2="178.64263932499728" /><path d="M 58.180547188652646 175.14741091055294 a86.0,86.0 0 0,1 -31.652253787137756,-30.449443065178592" fill="none" id="id20" stroke="none" /><text fill="#e1ed5e" style="font-size:6.75px; font-family:Arial;" text-anchor="middle"><textPath startOffset="22.20632615414155" xlink:href="#id20">August</textPath></text><path d="M 86.79598089348748 116.32954008644616 l -13.101985436882314 16.203354045290563 a41.83772311710928,41.83772311710928 0 0,0 -0.5561027750315055,-0.4576347245667509 l 13.37895834045851 -15.975424201866632" fill="red" stroke="none" /><path d="M 85.97065885151581 115.62618273729859 l -14.743384474441003 16.42149959328331 a43.06882494953893,43.06882494953893 0 0,0 -0.5473851801411959,-0.5000233836816256 l 15.023869204049053 -16.16528344301511" fill="red" stroke="none" /><line stroke="#e1ed5e" stroke-width="0.3" x1="26.63291911575756" x2="22.317208475507996" y1="142.92168965132927" y2="145.44649492493687" /><path d="M 25.769776987707644 143.4266507060508 a86.0,86.0 0 0,1 -11.730757126820373,-40.83630448921669" fill="none" id="id21" stroke="none" /><text fill="#e1ed5e" style="font-size:6.75px; font-family:Arial;" text-anchor="middle"><textPath startOffset="21.46611528233685" xlink:href="#id21">September</textPath></text><line stroke="#e1ed5e" stroke-width="0.3" x1="15.007084014347285" x2="10.007500721073583" y1="101.09737516637583" y2="101.16192664675087" /><path d="M 14.007167355692545 101.11028546245083 a86.0,86.0 0 0,1 10.666146001902534,-42.60595125391555" fill="none" id="id22" stroke="none" /><text fill="#e1ed5e" style="font-size:6.75px; font-family:Arial;" text-anchor="middle"><textPath startOffset="22.20632615414155" xlink:href="#id22">October</textPath></text><line stroke="#e1ed5e" stroke-width="0.3" x1="26.266209847984243" x2="21.928928074336255" y1="57.711370442889674" y2="55.22380399835377" /><path d="M 25.398753493254645 57.213857153982495 a86.0,86.0 0 0,1 29.58750427330803,-30.492523968695096" fill="none" id="id23" stroke="none" /><text fill="#e1ed5e" style="font-size:6.75px; font-family:Arial;" text-anchor="middle"><textPath startOffset="21.46611528233685" xlink:href="#id23">November</textPath></text><line stroke="#e1ed5e" stroke-width="0.3" x1="56.762969772571076" x2="54.21961505331055" y1="26.818313649435495" y2="22.513508569990535" /><path d="M 56.25429882871897 25.957352633546506 a86.0,86.0 0 0,1 42.265352541879196,-11.944610805530505" fill="none" id="id24" stroke="none" /><text fill="#e1ed5e" style="font-size:6.75px; font-family:Arial;" text-anchor="middle"><textPath startOffset="22.20632615414155" xlink:href="#id24">December</textPath></text></svg>