<?xml version="1.0" encoding="utf-8" ?>
<svg baseProfile="full" height="200mm" version="1.1" viewBox="0,0,200,200" width="200mm" xmlns="http://www.w3.org/2000/svg" xmlns:ev="http://www.w3.org/2001/xml-events" xmlns:xlink="http://www.w3.org/1999/xlink"><defs /><rect fill="#1a1a1a" height="200" width="200" x="0" y="0" /><rect fill="#1a1a1a" height="200" width="180" x="10" y="0" /><text alignment-baseline="middle" fill="#e1ed5e" style="dominant-baseline: central; font-size:9.0px; font-family:Arial;" text-anchor="middle" x="100.0" y="100.0">2021</text><line stroke="#e1ed5e" stroke-width="0.3" x1="100.0" x2="100.0" y1="15.0" y2="10.0" /><path d="M 100.0 14.0 a86.0,86.0 0 0,1 42.46469731375804,11.215312516191453" fill="none" id="id61" stroke="none" /><text fill="#e1ed5e" style="font-size:6.75px; font-family:Arial;" text-anchor="middle"><textPath startOffset="22.20632615414155" xlink:href="#id61">January</textPath></text><path d="M 107.76421540070413 80.48803036053334 l 1.7783913387289345 -4.4692111201889775 a25.810044052863436,25.810044052863436 0 0,0 0.41138276529179535,0.1678133591686073 l -1.8550579736091175 4.437936874836791" fill="red" stroke="none" /><line stroke="#e1ed5e" stroke-width="0.3" x1="143.23703022742887" x2="145.7803849466894" y1="26.81831364943548" y2="22.513508569990506" /><path d="M 143.74570117128098 25.957352633546492 a86.0,86.0 0 0,1 28.547481713284135,27.462654790039103" fill="none" id="id62" stroke="none" /><text fill="#e1ed5e" style="font-size:6.75px; font-family:Arial;" text-anchor="middle"><textPath startOffset="19.985693538727396" xlink:href="#id62">February</textPath></text><path d="M 114.42810811169701 84.74124197986012 l 20.12979861368506 -21.288704219741284 a50.298766519823786,50.298766519823786 0 0,0 0.6239843573352756,0.6002724573743767 l -20.493266214632754 20.939048675604603" fill="red" stroke="none" /><line stroke="#e1ed5e" stroke-width="0.3" x1="172.23445277983987" x2="176.4835382374775" y1="55.19839476539836" y2="52.563006222186495" /><path d="M 173.08426987136738 54.67131705675599 a86.0,86.0 0 0,1 12.851231095245387,41.99856678651699" fill="none" id="id63" stroke="none" /><text fill="#e1ed5e" style="font-size:6.75px; font-family:Arial;" text-anchor="middle"><textPath startOffset="22.20632615414155" xlink:href="#id63">March</textPath></text><line stroke="#e1ed5e" stroke-width="0.3" x1="184.98032266829074" x2="189.97916517819016" y1="98.17113171792111" y2="98.06355123074" /><path d="M 185.9800911702706 98.14961562048488 a86.0,86.0 0 0,1 -9.607161424134198,41.387399972396054" fill="none" id="id64" stroke="none" /><text fill="#e1ed5e" style="font-size:6.75px; font-family:Arial;" text-anchor="middle"><textPath startOffset="21.466115282336823" xlink:href="#id64">April</textPath></text><path d="M 120.9904718944345 100.63252640178507 l 12.78133479306422 0.38515245142300986 a33.78713656387665,33.78713656387665 0 0,0 -0.022521326140923826,0.581175356434155 l -12.772811334072093 -0.605105054871171" fill="red" stroke="none" /><path d="M 119.41010516605496 108.01547362559984 l 8.109734940052794 3.348944581520284 a29.77400881057269,29.77400881057269 0 0,0 -0.19969713937812916,0.47202504790855904 l -8.050886819482356 -3.4880441550950065" fill="red" stroke="none" /><path d="M 119.26925614724726 108.34839909993367 l 13.220844008441405 5.727926463637941 a35.40832599118943,35.40832599118943 0 0,0 -0.24711456422619996,0.557178105990369 l -13.120288359483933 -5.954652906120997" fill="red" stroke="none" /><path d="M 118.97047184881838 109.00673069616215 l 24.178576719383837 11.479415528694421 a47.76528634361233,47.76528634361233 0 0,0 -0.359028328390708,0.7397046971630351 l -23.977395134378416 -11.893909181822732" fill="red" stroke="none" /><path d="M 118.81262510543309 109.33194174019688 l 31.64854196308472 15.699156715581804 a56.32837004405286,56.32837004405286 0 0,0 -0.43834557911287586,0.8648974134455697 l -31.373617714185574 -16.241608340730068" fill="red" stroke="none" /><line stroke="#e1ed5e" stroke-width="0.3" x1="174.80103733775053" x2="179.2010983576182" y1="140.37084112569926" y2="142.7455964860345" /><path d="M 175.68104954172406 140.8457921977663 a86.0,86.0 0 0,1 -30.038265399797805,32.042727171017184" fill="none" id="id65" stroke="none" /><text fill="#e1ed5e" style="font-size:6.75px; font-family:Arial;" text-anchor="middle"><textPath startOffset="22.206326154141568" xlink:href="#id65">May</textPath></text><path d="M 118.48025628344425 109.97397251340804 l 21.875203804967356 11.806258426805748 a45.85784140969163,45.85784140969163 0 0,0 -0.3808899692134125,0.6914259310926824 l -21.66873742630243 -12.181054876296235" fill="red" stroke="none" /><path d="M 117.55443506779139 111.5257021239791 l 35.150850534108635 23.07896728639188 a63.05022026431718,63.05022026431718 0 0,0 -0.60347135601418,0.9021077971723955 l -34.74837607268373 -23.680611997770082" fill="red" stroke="none" /><path d="M 117.35343817320211 111.8261652097733 l 16.988568211360263 11.577510597024064 a41.55845814977974,41.55845814977974 0 0,0 -0.4079439458445678,0.5876736798862934 l -16.78676335835356 -11.868225539097377" fill="red" stroke="none" /><path d="M 116.93607887273984 112.41649034213515 l 16.802530056959203 12.318580572476893 a41.83440528634361,41.83440528634361 0 0,0 -0.4307723241753851,0.5770899240400558 l -16.587996466088725 -12.605983376026265" fill="red" stroke="none" /><path d="M 116.71984013943494 112.70617746262583 l 31.942681124283705 24.274716242049777 a61.11977973568282,61.11977973568282 0 0,0 -0.6437751719364898,0.8321661914944096 l -31.520099135129147 -24.82096042765744" fill="red" stroke="none" /><path d="M 116.498646956653 112.99209946851258 l 13.254570647567625 10.43750440372839 a37.87083700440529,37.87083700440529 0 0,0 -0.40771037629458323,0.5086813827636936 l -13.072942359218189 -10.664113620070335" fill="red" stroke="none" /><path d="M 116.0416608686014 113.55231037782055 l 26.61956636986751 22.488732838976368 a55.8474449339207,55.8474449339207 0 0,0 -0.6267080342862799,0.7290030290334842 l -26.22851582601045 -22.94361296717138" fill="red" stroke="none" /><path d="M 115.07121518719521 114.62390073753431 l 26.04095423631688 25.268057361832653 a57.28506607929515,57.28506607929515 0 0,0 -0.6927656940547684,0.7017679905640216 l -25.602147917206576 -25.712565846377338" fill="red" stroke="none" /><path d="M 114.81725581225074 114.88116024355365 l 25.644389684877755 25.754989795970356 a57.34493392070485,57.34493392070485 0 0,0 -0.7054793528295729,0.6904600304648634 l -25.19726037967239 -26.192599929357794" fill="red" stroke="none" /><path d="M 112.92097659922987 116.55440617244103 l 28.55991193243873 36.59107179304973 a67.41740088105726,67.41740088105726 0 0,0 -0.9209578815434644,0.706151231908824 l -27.92582532240177 -37.077262366785924" fill="red" stroke="none" /><path d="M 111.7513745106137 117.40417183066458 l 2.748889808429902 4.071196141886737 a25.912334801762114,25.912334801762114 0 0,0 -0.37181152811866097,0.24641640657410444 l -2.678403581571277 -4.117910569552159" fill="red" stroke="none" /><path d="M 111.45004920935366 117.60387380957326 l 3.0923779850183317 4.754375358954291 a26.671585903083702,26.671585903083702 0 0,0 -0.3870151234732456,0.24701136278743246 l -3.0100810594981557 -4.806901150565532" fill="red" stroke="none" /><line stroke="#e1ed5e" stroke-width="0.3" x1="143.8653032363475" x2="146.44561519142675" y1="172.8068346515853" y2="177.08958963109032" /><path d="M 144.38136562736335 173.6633856474863 a86.0,86.0 0 0,1 -40.68145358897372,12.25698825130547" fill="none" id="id66" stroke="none" /><text fill="#e1ed5e" style="font-size:6.75px; font-family:Arial;" text-anchor="middle"><textPath startOffset="21.466115282336833" xlink:href="#id66">June</textPath></text><path d="M 110.21172684928248 118.3499491758327 l 30.635180547847472 55.049847527498095 a84.0,84.0 0 0,0 -1.2695087525254052,0.692237392960918 l -29.683048983453418 -55.56902557221878" fill="red" stroke="none" /><path d="M 109.2508944713604 118.85261126421891 l 5.285934320498219 10.772327499904064 a32.99933920704846,32.99933920704846 0 0,0 -0.512098410092397,0.2458383570134824 l -5.09972324240559 -10.861720133417105" fill="red" stroke="none" /><path d="M 108.59647513512805 119.15986991738527 l 12.33039657849748 27.482054069858616 a51.121453744493394,51.121453744493394 0 0,0 -0.8059645912496056,0.3533111916878061 l -11.85551131259012 -27.69022981484088" fill="red" stroke="none" /><line stroke="#e1ed5e" stroke-width="0.3" x1="102.19456741930631" x2="102.32365962044197" y1="184.97166512339345" y2="189.96999836594603" /><path d="M 102.22038585953345 185.97133177190398 a86.0,86.0 0 0,1 -42.740103519485714,-10.115201625700543" fill="none" id="id67" stroke="none" /><text fill="#e1ed5e" style="font-size:6.75px; font-family:Arial;" text-anchor="middle"><textPath startOffset="22.20632615414155" xlink:href="#id67">July</textPath></text><path d="M 99.09653310690486 120.98055641714683 l -1.7103327634483838 39.717817343246935 a60.75462555066079,60.75462555066079 0 0,0 -1.0444354629932977,-0.05398538346978079 l 2.3937562948551703 -39.68249215301495" fill="red" stroke="none" /><path d="M 98.37488393609728 120.93702456842531 l -3.186925215058062 41.058440690793034 a62.18193832599119,62.18193832599119 0 0,0 -1.0664370677119397,-0.09201667753534348 l 3.8932066005115433 -40.997499760979025" fill="red" stroke="none" /><path d="M 96.22490169976321 120.6578951692458 l -7.03415563018131 38.491937972404834 a60.12938325991189,60.12938325991189 0 0,0 -1.0165656368142526,-0.1948272237420536 l 7.695688881567257 -38.36515355031431" fill="red" stroke="none" /><path d="M 94.46302465271185 120.25689768951611 l -5.723086016450304 20.93777931670117 a42.705859030837004,42.705859030837004 0 0,0 -0.7074303474355378,-0.1999268825160281 l 6.082647531990456 -20.83616364084662" fill="red" stroke="none" /><path d="M 91.40352486487194 119.15986991738527 l -12.776233907563505 28.4757387016344 a52.21057268722467,52.21057268722467 0 0,0 -0.8168020993840357,-0.3749537822141006 l 13.26450400271496 -28.251597849086224" fill="red" stroke="none" /><line stroke="#e1ed5e" stroke-width="0.3" x1="58.666819895761336" x2="56.23545636021788" y1="174.27360380694188" y2="178.64263932499728" /><path d="M 58.180547188652646 175.14741091055294 a86.0,86.0 0 0,1 -31.652253787137756,-30.449443065178592" fill="none" id="id68" stroke="none" /><text fill="#e1ed5e" style="font-size:6.75px; font-family:Arial;" text-anchor="middle"><textPath startOffset="22.20632615414155" xlink:href="#id68">August</textPath></text><path d="M 85.18274418774928 114.88116024355367 l -15.039188278161088 15.104049868346973 a42.31453744493392,42.31453744493392 0 0,0 -0.5117225466942691,-0.5183722381200175 l 15.296951449910889 -14.842937136246292" fill="red" stroke="none" /><line stroke="#e1ed5e" stroke-width="0.3" x1="26.63291911575756" x2="22.317208475507996" y1="142.92168965132927" y2="145.44649492493687" /><path d="M 25.769776987707644 143.4266507060508 a86.0,86.0 0 0,1 -11.730757126820373,-40.83630448921669" fill="none" id="id69" stroke="none" /><text fill="#e1ed5e" style="font-size:6.75px; font-family:Arial;" text-anchor="middle"><textPath startOffset="21.46611528233685" xlink:href="#id69">September</textPath></text><path d="M 80.0844068197444 106.66101706037122 l -21.796858464306183 7.290229559277281 a43.98370044052864,43.98370044052864 0 0,0 -0.23396762705652654,-0.7200783140238343 l 21.919118342378958 -6.913952345275643" fill="red" stroke="none" /><path d="M 79.58551787078972 104.9243191809786 l -44.4930361924991 10.732474630311577 a66.76916299559471,66.76916299559471 0 0,0 -0.2598892188833538,-1.1195959530166981 l 44.67118597731301 -9.965010019946305" fill="red" stroke="none" /><path d="M 79.4281124754447 104.21870165774334 l -9.53932277200634 1.9562403665670394 a30.73784140969163,30.73784140969163 0 0,0 -0.10183017557407532,-0.5192298714119186 l 9.571582880556083 -1.7917467680871662" fill="red" stroke="none" /><path d="M 79.23777060512086 103.15116336523772 l -33.766911140901335 5.124933903807548 a55.15361233480176,55.15361233480176 0 0,0 -0.1343803292844163,-0.9398557100307828 l 33.85012552120235 -4.542932721796364" fill="red" stroke="none" /><path d="M 79.07016306316243 101.71520430193888 l -33.262239534208426 2.725847148898815 a54.373744493392074,54.373744493392074 0 0,0 -0.0684162594200745,-0.9334855028156751 l 33.304232352292836 -2.1528885095863792" fill="red" stroke="none" /><line stroke="#e1ed5e" stroke-width="0.3" x1="15.007084014347285" x2="10.007500721073583" y1="101.09737516637583" y2="101.16192664675087" /><path d="M 14.007167355692545 101.11028546245083 a86.0,86.0 0 0,1 10.666146001902534,-42.60595125391555" fill="none" id="id70" stroke="none" /><text fill="#e1ed5e" style="font-size:6.75px; font-family:Arial;" text-anchor="middle"><textPath startOffset="22.20632615414155" xlink:href="#id70">October</textPath></text><line stroke="#e1ed5e" stroke-width="0.3" x1="26.266209847984243" x2="21.928928074336255" y1="57.711370442889674" y2="55.22380399835377" /><path d="M 25.398753493254645 57.213857153982495 a86.0,86.0 0 0,1 29.58750427330803,-30.492523968695096" fill="none" id="id71" stroke="none" /><text fill="#e1ed5e" style="font-size:6.75px; font-family:Arial;" text-anchor="middle"><textPath startOffset="21.46611528233685" xlink:href="#id71">November</textPath></text><line stroke="#e1ed5e" stroke-width="0.3" x1="56.762969772571076" x2="54.21961505331055" y1="26.818313649435495" y2="22.513508569990535" /><path d="M 56.25429882871897 25.957352633546506 a86.0,86.0 0 0,1 42.265352541879196,-11.944610805530505" fill="none" id="id72" stroke="none" /><text fill="#e1ed5e" style="font-size:6.75px; font-family:Arial;" text-anchor="middle"><textPath startOffset="22.20632615414155" xlink:href="#id72">December</textPath></text></svg>