<?xml version="1.0" encoding="utf-8" ?>
<svg baseProfile="full" height="200mm" version="1.1" viewBox="0,0,200,200" width="200mm" xmlns="http://www.w3.org/2000/svg" xmlns:ev="http://www.w3.org/2001/xml-events" xmlns:xlink="http://www.w3.org/1999/xlink"><defs /><rect fill="#1a1a1a" height="200" width="200" x="0" y="0" /><rect fill="#1a1a1a" height="200" width="180" x="10" y="0" /><text alignment-baseline="middle" fill="#e1ed5e" style="dominant-baseline: central; font-size:9.0px; font-family:Arial;" text-anchor="middle" x="100.0" y="100.0">2023</text><line stroke="#e1ed5e" stroke-width="0.3" x1="100.0" x2="100.0" y1="15.0" y2="10.0" /><path d="M 100.0 14.0 a86.0,86.0 0 0,1 42.46469731375804,11.215312516191453" fill="none" id="id85" stroke="none" /><text fill="#e1ed5e" style="font-size:6.75px; font-family:Arial;" text-anchor="middle"><textPath startOffset="22.20632615414155" xlink:href="#id85">January</textPath></text><line stroke="#e1ed5e" stroke-width="0.3" x1="143.23703022742887" x2="145.7803849466894" y1="26.81831364943548" y2="22.513508569990506" /><path d="M 143.74570117128098 25.957352633546492 a86.0,86.0 0 0,1 28.547481713284135,27.462654790039103" fill="none" id="id86" stroke="none" /><text fill="#e1ed5e" style="font-size:6.75px; font-family:Arial;" text-anchor="middle"><textPath startOffset="19.985693538727396" xlink:href="#id86">February</textPath></text><line stroke="#e1ed5e" stroke-width="0.3" x1="172.23445277983987" x2="176.4835382374775" y1="55.19839476539836" y2="52.563006222186495" /><path d="M 173.08426987136738 54.67131705675599 a86.0,86.0 0 0,1 12.851231095245387,41.99856678651699" fill="none" id="id87" stroke="none" /><text fill="#e1ed5e" style="font-size:6.75px; font-family:Arial;" text-anchor="middle"><textPath startOffset="22.20632615414155" xlink:href="#id87">March</textPath></text><line stroke="#e1ed5e" stroke-width="0.3" x1="184.98032266829074" x2="189.97916517819016" y1="98.17113171792111" y2="98.06355123074" /><path d="M 185.9800911702706 98.14961562048488 a86.0,86.0 0 0,1 -9.607161424134198,41.387399972396054" fill="none" id="id88" stroke="none" /><text fill="#e1ed5e" style="font-size:6.75px; font-family:Arial;" text-anchor="middle"><textPath startOffset="21.466115282336823" xlink:href="#id88">April</textPath></text><line stroke="#e1ed5e" stroke-width="0.3" x1="174.80103733775053" x2="179.2010983576182" y1="140.37084112569926" y2="142.7455964860345" /><path d="M 175.68104954172406 140.8457921977663 a86.0,86.0 0 0,1 -30.038265399797805,32.042727171017184" fill="none" id="id89" stroke="none" /><text fill="#e1ed5e" style="font-size:6.75px; font-family:Arial;" text-anchor="middle"><textPath startOffset="22.206326154141568" xlink:href="#id89">May</textPath></text><line stroke="#e1ed5e" stroke-width="0.3" x1="143.8653032363475" x2="146.44561519142675" y1="172.8068346515853" y2="177.08958963109032" /><path d="M 144.38136562736335 173.6633856474863 a86.0,86.0 0 0,1 -40.68145358897372,12.25698825130547" fill="none" id="id90" stroke="none" /><text fill="#e1ed5e" style="font-size:6.75px; font-family:Arial;" text-anchor="middle"><textPath startOffset="21.466115282336833" xlink:href="#id90">June</textPath></text><path d="M 105.18746579009965 120.34920634021253 l 2.9435772755347243 11.546960265749728 a32.91624683177751,32.91624683177751 0 0,0 -0.5502447775655799,0.13523677893669342 l -2.7443792132259333 -11.59591830300045" fill="red" stroke="none" /><line stroke="#e1ed5e" stroke-width="0.3" x1="102.19456741930631" x2="102.32365962044197" y1="184.97166512339345" y2="189.96999836594603" /><path d="M 102.22038585953345 185.97133177190398 a86.0,86.0 0 0,1 -42.740103519485714,-10.115201625700543" fill="none" id="id91" stroke="none" /><text fill="#e1ed5e" style="font-size:6.75px; font-family:Arial;" text-anchor="middle"><textPath startOffset="22.20632615414155" xlink:href="#id91">July</textPath></text><line stroke="#e1ed5e" stroke-width="0.3" x1="58.666819895761336" x2="56.23545636021788" y1="174.27360380694188" y2="178.64263932499728" /><path d="M 58.180547188652646 175.14741091055294 a86.0,86.0 0 0,1 -31.652253787137756,-30.449443065178592" fill="none" id="id92" stroke="none" /><text fill="#e1ed5e" style="font-size:6.75px; font-family:Arial;" text-anchor="middle"><textPath startOffset="22.20632615414155" xlink:href="#id92">August</textPath></text><path d="M 89.4739219176387 118.17145234162733 l -3.8241011786646624 6.601648949774598 a28.629254136593204,28.629254136593204 0 0,0 -0.42430208170482864,-0.2506851488000874 l 3.937171131397873 -6.534845228680761" fill="red" stroke="none" /><path d="M 89.1626897886671 117.98757091392108 l -3.8203477362103495 6.3409438763744355 a28.402879579521606,28.402879579521606 0 0,0 -0.41660369963383503,-0.2559120186538207 l 3.9289306357764935 -6.274243390892236" fill="red" stroke="none" /><path d="M 88.8546689885994 117.79835938074946 l -3.9541254318403527 6.314477820395547 a28.45035154036331,28.45035154036331 0 0,0 -0.4128257072624306,-0.2634848985471962 l 4.0622329411497065 -6.245478493024547" fill="red" stroke="none" /><path d="M 86.79598089348748 116.32954008644616 l -2.941444220465728 3.637712951085461 a25.67814595930975,25.67814595930975 0 0,0 -0.3413113133729928,-0.2808759745500577 l 3.0036256623834094 -3.5865418576782226" fill="red" stroke="none" /><path d="M 83.28015986056508 112.70617746262583 l -3.2595457411305984 2.4770791041636944 a25.093966209778365,25.093966209778365 0 0,0 -0.2583946412761339,-0.3461618482381628 l 3.301701649101817 -2.420604376416224" fill="red" stroke="none" /><line stroke="#e1ed5e" stroke-width="0.3" x1="26.63291911575756" x2="22.317208475507996" y1="142.92168965132927" y2="145.44649492493687" /><path d="M 25.769776987707644 143.4266507060508 a86.0,86.0 0 0,1 -11.730757126820373,-40.83630448921669" fill="none" id="id93" stroke="none" /><text fill="#e1ed5e" style="font-size:6.75px; font-family:Arial;" text-anchor="middle"><textPath startOffset="21.46611528233685" xlink:href="#id93">September</textPath></text><line stroke="#e1ed5e" stroke-width="0.3" x1="15.007084014347285" x2="10.007500721073583" y1="101.09737516637583" y2="101.16192664675087" /><path d="M 14.007167355692545 101.11028546245083 a86.0,86.0 0 0,1 10.666146001902534,-42.60595125391555" fill="none" id="id94" stroke="none" /><text fill="#e1ed5e" style="font-size:6.75px; font-family:Arial;" text-anchor="middle"><textPath startOffset="22.20632615414155" xlink:href="#id94">October</textPath></text><line stroke="#e1ed5e" stroke-width="0.3" x1="26.266209847984243" x2="21.928928074336255" y1="57.711370442889674" y2="55.22380399835377" /><path d="M 25.398753493254645 57.213857153982495 a86.0,86.0 0 0,1 29.58750427330803,-30.492523968695096" fill="none" id="id95" stroke="none" /><text fill="#e1ed5e" style="font-size:6.75px; font-family:Arial;" text-anchor="middle"><textPath startOffset="21.46611528233685" xlink:href="#id95">November</textPath></text><path d="M 89.00827224532344 82.1063720568725 l -14.668277549054604 -23.878748353974004 a49.02415010680102,49.02415010680102 0 0,0 0.7228445973574134,-0.43550578194444395 l 14.255070885479542 24.127700745377066" fill="red" stroke="none" /><line stroke="#e1ed5e" stroke-width="0.3" x1="56.762969772571076" x2="54.21961505331055" y1="26.818313649435495" y2="22.513508569990535" /><path d="M 56.25429882871897 25.957352633546506 a86.0,86.0 0 0,1 42.265352541879196,-11.944610805530505" fill="none" id="id96" stroke="none" /><text fill="#e1ed5e" style="font-size:6.75px; font-family:Arial;" text-anchor="middle"><textPath startOffset="22.20632615414155" xlink:href="#id96">December</textPath></text><path d="M 91.23893434514133 80.91482961587045 l -10.005616116955098 -21.796308338858253 a44.98314848143282,44.98314848143282 0 0,0 0.7064879398495575,-0.3169805449813492 l 9.628946058638766 21.965309214356132" fill="red" stroke="none" /><path d="M 92.23578459929587 80.48803036053334 l -15.034424805923225 -37.782470632308105 a61.6638539285959,61.6638539285959 0 0,0 0.9896074707113173,-0.38395232416148545 l 14.38183417021223 38.035665660360145" fill="red" stroke="none" /><path d="M 93.25333710446033 80.11325718540243 l -20.239988686619004 -59.66022844379273 a84.0,84.0 0 0,0 1.3732687110303627,-0.45274510296306447 l 19.21003715334623 59.99978727101503" fill="red" stroke="none" /><path d="M 93.59665428221793 80.00007090966166 l -1.3033669084108581 -4.0708790210283325 a25.274438127027818,25.274438127027818 0 0,0 0.4154812256175074,-0.12909203925833168 l 1.2331003100826219 4.09271119516919" fill="red" stroke="none" /><path d="M 97.47563105711357 79.15227682838746 l -0.9303500358637282 -7.683377683378287 a28.739498938217327,28.739498938217327 0 0,0 0.4916278544311795,-0.05524011773208998 l 0.7979554779228307 7.698253754580976" fill="red" stroke="none" /></svg>