<?xml version="1.0" encoding="utf-8" ?>
<svg baseProfile="full" height="200mm" version="1.1" viewBox="0,0,200,200" width="200mm" xmlns="http://www.w3.org/2000/svg" xmlns:ev="http://www.w3.org/2001/xml-events" xmlns:xlink="http://www.w3.org/1999/xlink"><defs /><rect fill="#1a1a1a" height="200" width="200" x="0" y="0" /><text alignment-baseline="middle" fill="#e1ed5e" style="dominant-baseline: central; font-size:9.0px; font-family:Arial;" text-anchor="middle" x="100.0" y="100.0">2025</text><line stroke="#e1ed5e" stroke-width="0.3" x1="100.0" x2="100.0" y1="15.0" y2="10.0" /><path d="M 100.0 14.0 a86.0,86.0 0 0,1 42.46469731375804,11.215312516191453" fill="none" id="id109" stroke="none" /><text fill="#e1ed5e" style="font-size:6.75px; font-family:Arial;" text-anchor="middle"><textPath startOffset="22.20632615414155" xlink:href="#id109">January</textPath></text><path d="M 100.72285384407766 79.0124445844662 l 0.4682586774554392 -13.595562951512449 a34.60362444929844,34.60362444929844 0 0,0 0.5951150572581333,0.025626906223311884 l -0.7022145671029041 13.585488318764941" fill="#ff820b" stroke="none" /><path d="M 102.52436894288641 79.15227682838746 l 1.947896524056374 -16.08687494548255 a37.20437738328829,37.20437738328829 0 0,0 0.6351057774735549,0.0824549575739288 l -2.224517030037775 16.05096166474448" fill="#ffa60f" stroke="none" /><path d="M 104.307194497241 79.44645832069477 l 3.0897813844779627 -14.74415666775398 a36.06442514160898,36.06442514160898 0 0,0 0.606495911332364,0.1325565152316255 l -3.3431200199638544 14.688786654426485" fill="#ff960d" stroke="none" /><path d="M 105.01212808612495 79.60689891045804 l 4.091327454775541 -16.64659261335086 a38.14199539076672,38.14199539076672 0 0,0 0.6362286644382061,0.16218885278744385 l -4.377265007898772 16.57370076439455" fill="#ffb310" stroke="none" /><path d="M 106.74666289553966 80.11325718540242 l 5.2951443875934165 -15.60818677806594 a37.48193097256673,37.48193097256673 0 0,0 0.6092027411140566,0.21253887436530752 l -5.563029132770747 15.514727050528425" fill="#ffaa0f" stroke="none" /><path d="M 107.4271985657038 80.35727306442388 l 6.093390730281651 -16.11520267943062 a38.22873088741623,38.22873088741623 0 0,0 0.6135107566550709,0.2380326421206897 l -6.369884651936388 16.00792733341938" fill="#ffb410" stroke="none" /><path d="M 109.08828744355905 81.06846463323043 l 3.1881220102013303 -6.6410800675629815 a28.366686257450667,28.366686257450667 0 0,0 0.4383716547734791,0.21510706717015207 l -3.3019649319852413 6.5852178402579975" fill="#ff2503" stroke="none" /><line stroke="#e1ed5e" stroke-width="0.3" x1="143.23703022742887" x2="145.7803849466894" y1="26.81831364943548" y2="22.513508569990506" /><path d="M 143.74570117128098 25.957352633546492 a86.0,86.0 0 0,1 28.547481713284135,27.462654790039103" fill="none" id="id110" stroke="none" /><text fill="#e1ed5e" style="font-size:6.75px; font-family:Arial;" text-anchor="middle"><textPath startOffset="19.985693538727396" xlink:href="#id110">February</textPath></text><path d="M 113.6212207817346 84.01681056812373 l 10.316803945956126 -12.10577483780764 a36.90554079819333,36.90554079819333 0 0,0 0.47995866934673553,0.41621542846622417 l -10.523656413949626 11.926394415921745" fill="#ffa20f" stroke="none" /><path d="M 115.4437574822437 85.77008943001954 l 5.368272342217198 -4.946337407388 a28.29963024323424,28.29963024323424 0 0,0 0.32700405936835975,0.361086049760809 l -5.452620042201594 4.853198570357642" fill="#ff2403" stroke="none" /><line stroke="#e1ed5e" stroke-width="0.3" x1="172.23445277983987" x2="176.4835382374775" y1="55.19839476539836" y2="52.563006222186495" /><path d="M 173.08426987136738 54.67131705675599 a86.0,86.0 0 0,1 12.851231095245387,41.99856678651699" fill="none" id="id111" stroke="none" /><text fill="#e1ed5e" style="font-size:6.75px; font-family:Arial;" text-anchor="middle"><textPath startOffset="22.20632615414155" xlink:href="#id111">March</textPath></text><path d="M 118.03404312379186 89.2402003453031 l 12.552090601535223 -7.4890571788610325 a35.61646181185443,35.61646181185443 0 0,0 0.30959240635005064,0.5291937783052316 l -12.6791426823556 7.271883988201905" fill="#ff900d" stroke="none" /><path d="M 120.08093135843002 93.85539295169968 l 34.38114201225442 -10.520359029484247 a56.95470595313021,56.95470595313021 0 0,0 0.27879085255803854,0.9399441604689238 l -34.557138761924165 9.926985482268794" fill="#61ff29" stroke="none" /><path d="M 120.53481517161879 95.60439243477599 l 11.595022424926334 -2.481988168093675 a32.85768992262412,32.85768992262412 0 0,0 0.11362612270417496,0.554081327801683 l -11.636027843545506 2.2820311841285803" fill="#ff6809" stroke="none" /><path d="M 120.87857604477298 97.74499172005257 l 7.123216934937717 -0.7693490750375047 a28.164643571137685,28.164643571137685 0 0,0 0.04791057249983703,0.4824529267393453 l -7.135404633119783 0.6466206175937245" fill="#ff2203" stroke="none" /><line stroke="#e1ed5e" stroke-width="0.3" x1="184.98032266829074" x2="189.97916517819016" y1="98.17113171792111" y2="98.06355123074" /><path d="M 185.9800911702706 98.14961562048488 a86.0,86.0 0 0,1 -9.607161424134198,41.387399972396054" fill="none" id="id112" stroke="none" /><text fill="#e1ed5e" style="font-size:6.75px; font-family:Arial;" text-anchor="middle"><textPath startOffset="21.466115282336823" xlink:href="#id112">April</textPath></text><path d="M 120.99980553446 99.90962569577887 l 15.988629659888389 -0.06880831722896683 a36.988777720188075,36.988777720188075 0 0,0 -0.002740168655107959,0.6367186932704147 l -15.987445193943778 -0.20641985424513257" fill="#ffa30f" stroke="none" /><path d="M 120.9904718944345 100.63252640178507 l 15.10902497562214 0.45529501434624614 a36.11588334382289,36.11588334382289 0 0,0 -0.024073587476584578,0.6212323241893668 l -15.098949255294352 -0.7153045855496191" fill="#ff970d" stroke="none" /><path d="M 120.89721153311464 102.0752229133903 l 8.262351735194535 0.8205028509279881 a29.302992299433566,29.302992299433566 0 0,0 -0.05416546286649574,0.5015049148665741 l -8.247003970826986 -0.9626040876793537" fill="#ff3304" stroke="none" /><path d="M 120.13307415673323 105.97154293290107 l 6.99493142575239 2.074722071572451 a28.29613166857947,28.29613166857947 0 0,0 -0.14252253200843235,0.46577188090207033 l -6.958182121237825 -2.1948209250265784" fill="#ff2403" stroke="none" /><path d="M 119.67450827220406 107.3425965602758 l 9.741880735380409 3.635704587304935 a31.398201195809115,31.398201195809115 0 0,0 -0.19333176309962452,0.5047282270255504 l -9.677854692687278 -3.8028563811636293" fill="#ff5307" stroke="none" /><path d="M 119.54520255179757 107.68017299344265 l 7.524280685074529 2.9566220743656 a29.084331383510424,29.084331383510424 0 0,0 -0.18710557790399687,0.4643806999409592 l -7.47227249291314 -3.0857021421493727" fill="#ff3004" stroke="none" /><path d="M 119.12269723197855 108.67885076344098 l 7.597380141713514 3.4480767876613783 a29.343225907963422,29.343225907963422 0 0,0 -0.2127039908092914,0.4581454731678629 l -7.536901534064391 -3.5783423281080715" fill="#ff3404" stroke="none" /><path d="M 118.81262510543309 109.33194174019688 l 5.682102645421074 2.8185886101336477 a27.34277007515457,27.34277007515457 0 0,0 -0.21278056463856931,0.419836240529295 l -5.632743410996236 -2.915979062365637" fill="#ff1602" stroke="none" /><line stroke="#e1ed5e" stroke-width="0.3" x1="174.80103733775053" x2="179.2010983576182" y1="140.37084112569926" y2="142.7455964860345" /><path d="M 175.68104954172406 140.8457921977663 a86.0,86.0 0 0,1 -30.038265399797805,32.042727171017184" fill="none" id="id113" stroke="none" /><text fill="#e1ed5e" style="font-size:6.75px; font-family:Arial;" text-anchor="middle"><textPath startOffset="22.206326154141568" xlink:href="#id113">May</textPath></text><path d="M 118.30583269289576 110.29060199501025 l 10.463368226822565 5.8819699576547535 a33.00331809262893,33.00331809262893 0 0,0 -0.28264670853844615,0.49281836069874463 l -10.360569522131739 -6.061208164211814" fill="#ff6a09" stroke="none" /><path d="M 116.71984013943494 112.70617746262583 l 6.038743121701342 4.58911934059565 a28.584618303654068,28.584618303654068 0 0,0 -0.3010820333900905,0.38918911442322873 l -5.958854271093182 -4.6923864491321305" fill="#ff2903" stroke="none" /><path d="M 114.29624159901734 115.38237550388516 l 5.333005955603221 5.738172484381023 a28.8337459738625,28.8337459738625 0 0,0 -0.3664637995705666,0.33475599213488894 l -5.233442606565791 -5.829121243102494" fill="#ff2c04" stroke="none" /><path d="M 113.75828350139079 115.86535959552629 l 5.7608450779582325 6.643116397963876 a29.7930842989893,29.7930842989893 0 0,0 -0.39033838332867987,0.33265483848307925 l -5.645641218052505 -6.741295626669903" fill="#ff3b05" stroke="none" /><path d="M 112.92097659922987 116.55440617244103 l 8.524640740720947 10.921803333692615 a34.85479295472215,34.85479295472215 0 0,0 -0.4761351796674838,0.3650801523233991 l -8.335376832559971 -11.066922827843387" fill="#ff850c" stroke="none" /><path d="M 112.34349029814194 116.9893568818739 l 5.099812569798717 7.019289818862586 a29.676319369886343,29.676319369886343 0 0,0 -0.4158538000279219,0.2967006447167229 l -4.978231441921911 -7.1060347254235285" fill="#ff3905" stroke="none" /><path d="M 111.7513745106137 117.40417183066458 l 6.954470048275662 10.299798683301328 a33.42781181740772,33.42781181740772 0 0,0 -0.4796497841116271,0.31788572240587304 l -6.776145565424071 -10.417982426798519" fill="#ff710a" stroke="none" /><path d="M 111.1453310114006 117.79835938074945 l 4.194430885447713 6.698229798697742 a28.903134371182112,28.903134371182112 0 0,0 -0.4239412654035953,0.2604193508493699 l -4.078510420111809 -6.76943761637549" fill="#ff2d04" stroke="none" /><line stroke="#e1ed5e" stroke-width="0.3" x1="143.8653032363475" x2="146.44561519142675" y1="172.8068346515853" y2="177.08958963109032" /><path d="M 144.38136562736335 173.6633856474863 a86.0,86.0 0 0,1 -40.68145358897372,12.25698825130547" fill="none" id="id114" stroke="none" /><text fill="#e1ed5e" style="font-size:6.75px; font-family:Arial;" text-anchor="middle"><textPath startOffset="21.466115282336833" xlink:href="#id114">June</textPath></text><path d="M 109.89434966115114 118.52300852407294 l 4.222685976434831 7.905203577259225 a29.962327847913812,29.962327847913812 0 0,0 -0.4570098186271676,0.23908593748780052 l -4.085985255281168 -7.976718933691742" fill="#ff3d05" stroke="none" /><path d="M 109.2508944713604 118.85261126421891 l 2.1825146495741947 4.447796955663952 a25.95441903298656,25.95441903298656 0 0,0 -0.4027722082030462,0.19335513636424626 l -2.1056297733709157 -4.484706368527758" fill="#ff0000" stroke="none" /><path d="M 108.92500713936063 119.00905698771935 l 5.863076447839764 12.487559122370113 a34.79546295953501,34.79546295953501 0 0,0 -0.5443534849665026,0.24988598609569876 l -5.647254967105842 -12.586632178799887" fill="#ff840c" stroke="none" /><path d="M 107.93186726928326 119.44442032107085 l 3.447966051819558 8.452448696915829 a30.12865591795935,30.12865591795935 0 0,0 -0.4818847871442402,0.19175190177328733 l -3.3019601886334518 -8.510547443095186" fill="#ff4006" stroke="none" /><path d="M 107.2578585660854 119.70592522655815 l 3.6771777458457344 9.98396276871552 a31.639602846988264,31.639602846988264 0 0,0 -0.5126827599178029,0.18382979732762458 l -3.5047754252981966 -10.045780107083104" fill="#ff5608" stroke="none" /><path d="M 106.57524785965236 119.94407469862006 l 2.424274241171947 7.353320755033872 a28.742637258894526,28.742637258894526 0 0,0 -0.47121316638243943,0.1508675754543142 l -2.2973397296985674 -7.393961177147893" fill="#ff2b04" stroke="none" /><path d="M 106.2309692047433 120.05430185196036 l 4.856014072622248 15.629024764815185 a37.366040687127466,37.366040687127466 0 0,0 -0.6158724660904195,0.185557321954168 l -4.586266632091583 -15.710297455875079" fill="#ffa90f" stroke="none" /><path d="M 104.83641907484287 120.43548508189849 l 2.2356643059674948 9.446428000910169 a30.70737847543593,30.70737847543593 0 0,0 -0.5154158179789762,0.1173069621221798 l -2.0727283385956565 -9.483511696610034" fill="#ff4906" stroke="none" /><path d="M 104.48393922423573 120.51570834832081 l 1.970573509077533 9.016114931408898 a30.2289483913961,30.2289483913961 0 0,0 -0.5092980977565051,0.10672836819752687 l -1.8150839498916498 -9.048699280332967" fill="#ff4106" stroke="none" /><path d="M 103.06178313531738 120.77559828337769 l 1.3761148652104298 9.337568458594568 a30.438425548850468,30.438425548850468 0 0,0 -0.5190061865872219,0.07192952826584625 l -1.2151800874363774 -9.359872552353018" fill="#ff4506" stroke="none" /><path d="M 102.70371172650421 120.8252237178851 l 1.2253711818110657 9.438369020080135 a30.517580800414645,30.517580800414645 0 0,0 -0.521520136384882,0.0631488256315905 l -1.0627236223748033 -9.458063374437076" fill="#ff4606" stroke="none" /><path d="M 101.98527174616119 120.90594882070398 l 0.8886123301448005 9.357552149410056 a30.3996496797601,30.3996496797601 0 0,0 -0.5213622176586725,0.04498532591739216 l -0.7274057947445863 -9.371461727606112" fill="#ff4406" stroke="none" /><path d="M 101.62511606390274 120.93702456842531 l 1.0045331772866608 12.941805376128496 a33.98073238680538,33.98073238680538 0 0,0 -0.58355797688988,0.040245574714711164 l -0.7816124396178505 -12.957179295359492" fill="#ff790b" stroke="none" /><path d="M 100.90346689309514 120.98055641714683 l 0.3453099232753684 8.018881911499744 a29.026313353818814,29.026313353818814 0 0,0 -0.499362680030905,0.017199060381377775 l -0.2072268915698111 -8.023637770307214" fill="#ff2f04" stroke="none" /><line stroke="#e1ed5e" stroke-width="0.3" x1="102.19456741930631" x2="102.32365962044197" y1="184.97166512339345" y2="189.96999836594603" /><path d="M 102.22038585953345 185.97133177190398 a86.0,86.0 0 0,1 -42.740103519485714,-10.115201625700543" fill="none" id="id115" stroke="none" /><text fill="#e1ed5e" style="font-size:6.75px; font-family:Arial;" text-anchor="middle"><textPath startOffset="22.20632615414155" xlink:href="#id115">July</textPath></text><path d="M 100.54218724476979 120.99299961872073 l 0.2070236541534513 8.015768601407894 a29.01844156084558,29.01844156084558 0 0,0 -0.49944926269445333,0.008598471996939965 l -0.06901470156633006 -8.018144550683994" fill="#ff2f04" stroke="none" /><path d="M 99.81925306533755 120.99922214144158 l -0.13414241725015494 15.584698150962232 a36.5852754433379,36.5852754433379 0 0,0 -0.6296853953143909,-0.010840605128303439 l 0.40238750245721383 -15.58008006855477" fill="#ff9e0e" stroke="none" /><path d="M 99.09653310690486 120.98055641714683 l -0.3333689480861856 7.741585304897938 a28.748759764540374,28.748759764540374 0 0,0 -0.4942212044434901,-0.025545591073969455 l 0.46657822094316465 -7.734699907061767" fill="#ff2b04" stroke="none" /><path d="M 98.37488393609728 120.93702456842531 l -0.622797709654918 8.023753649256033 a29.047887897523232,29.047887897523232 0 0,0 -0.49817913732855684,-0.042984992197195156 l 0.7608211647250165 -8.011844404780174" fill="#ff3004" stroke="none" /><path d="M 98.01472825383883 120.90594882070398 l -0.9094078514020402 9.576539854213948 a30.61962256117878,30.61962256117878 0 0,0 -0.5242770560590403,-0.05434346050006524 l 1.0741175040666737 -9.559467025258122" fill="#ff4706" stroke="none" /><path d="M 97.2962882734958 120.8252237178851 l -1.1863710084950327 9.137971856292012 a30.21466254488912,30.21466254488912 0 0,0 -0.515190799250616,-0.07140075034687803 l 1.3434903989324798 -9.11619654045253" fill="#ff4106" stroke="none" /><path d="M 96.93821686468263 120.77559828337769 l -1.8189574576320704 12.342457895993624 a33.47577144496687,33.47577144496687 0 0,0 -0.5693497618181073,-0.08892072352674642 l 2.0311430830586947 -12.30931886511977" fill="#ff710a" stroke="none" /><path d="M 96.22490169976321 120.6578951692458 l -2.640234792853775 14.447754531199237 a35.68701640072563,35.68701640072563 0 0,0 -0.6033355505508887,-0.11563069421378758 l 2.8885379579763586 -14.40016663863698" fill="#ff910d" stroke="none" /><path d="M 95.51606077576429 120.51570834832081 l -1.5700157695684653 7.1834126244700105 a28.352983506719486,28.352983506719486 0 0,0 -0.47589787574833875,-0.10831280712985766 l 1.6934337947096667 -7.155323083762466" fill="#ff2503" stroke="none" /><path d="M 95.16358092515715 120.4354850818985 l -1.8534406436140551 7.831405433779553 a29.047742123579283,29.047742123579283 0 0,0 -0.4855768789575612,-0.11934298282099848 l 1.987970807314827 -7.798341192644525" fill="#ff3004" stroke="none" /><path d="M 94.46302465271185 120.25689768951611 l -2.0904331697385423 7.647801947845804 a28.92835326348525,28.92835326348525 0 0,0 -0.47920345040122353,-0.1354276817172742 l 2.22176778824438 -7.610685472790008" fill="#ff2e04" stroke="none" /><path d="M 94.11515582081647 120.15858648285463 l -4.383975794270983 15.017348377746519 a36.644168116693194,36.644168116693194 0 0,0 -0.6039744583812553,-0.18197254983224231 l 4.641825227092483 -14.93966045880855" fill="#ff9e0e" stroke="none" /><path d="M 93.42475214034765 119.94407469862007 l -2.5064770108437915 7.602658607197444 a29.005176131946243,29.005176131946243 0 0,0 -0.4728261757834267,-0.16040831049800428 l 2.6369729195644442 -7.558387309801317" fill="#ff2f04" stroke="none" /><path d="M 93.08242187328487 119.8279376855182 l -4.085567330281019 11.710510954976163 a33.40273869904854,33.40273869904854 0 0,0 -0.5412523143182224,-0.1940738230795559 l 4.286539205228968 -11.638449590856649" fill="#ff700a" stroke="none" /><path d="M 92.7421414339146 119.70592522655815 l -2.6752958127084856 7.263737473544095 a28.74074219762319,28.74074219762319 0 0,0 -0.46276670545085474,-0.17497877062858347 l 2.7999327389196234 -7.2166104528088795" fill="#ff2b04" stroke="none" /><path d="M 92.40401165467489 119.57807347666478 l -2.6386364498035015 6.800881721238052 a28.294819703083927,28.294819703083927 0 0,0 -0.4525539807362601,-0.1800805685846938 l 2.75531150658162 -6.754454308247292" fill="#ff2403" stroke="none" /><path d="M 92.06813273071674 119.44442032107085 l -3.057040195604187 7.494121180258706 a29.09366091592314,29.09366091592314 0 0,0 -0.46207458396017,-0.1931472135707101 l 3.185586239061819 -7.4403889236680225" fill="#ff3004" stroke="none" /><path d="M 91.40352486487194 119.15986991738527 l -6.243034518139115 13.91450883961752 a36.25087001591944,36.25087001591944 0 0,0 -0.5671224276907034,-0.2603380909542605 l 6.4816249415972385 -13.804983678329185" fill="#ff990e" stroke="none" /><path d="M 90.7491055286396 118.85261126421891 l -3.298655736585377 6.722406626608583 a28.488115952759987,28.488115952759987 0 0,0 -0.43837254036260964,-0.21980909220246928 l 3.4138821846307468 -6.664629693496812" fill="#ff2703" stroke="none" /><path d="M 90.10565033884886 118.52300852407294 l -5.9802096252204855 11.195427456807161 a33.69253729961868,33.69253729961868 0 0,0 -0.5092020356744725,-0.27765754979198987 l 6.172034472763599 -11.090829255255406" fill="#ff740a" stroke="none" /><line stroke="#e1ed5e" stroke-width="0.3" x1="58.666819895761336" x2="56.23545636021788" y1="174.27360380694188" y2="178.64263932499728" /><path d="M 58.180547188652646 175.14741091055294 a86.0,86.0 0 0,1 -31.652253787137756,-30.449443065178592" fill="none" id="id116" stroke="none" /><text fill="#e1ed5e" style="font-size:6.75px; font-family:Arial;" text-anchor="middle"><textPath startOffset="22.20632615414155" xlink:href="#id116">August</textPath></text><path d="M 89.7882731507175 118.34994917583269 l -4.3998872140167276 7.906371561659616 a30.048188700899633,30.048188700899633 0 0,0 -0.44979453190057367,-0.2554050741293362 l 4.535330512838509 -7.829463321735647" fill="#ff3f05" stroke="none" /><path d="M 89.1626897886671 117.98757091392108 l -10.026071682014225 16.641091917780017 a40.42802237977121,40.42802237977121 0 0,0 -0.592984371360555,-0.3642594332177691 l 10.311035253307088 -16.466044017733868" fill="#ffd213" stroke="none" /><path d="M 88.54995079064634 117.60387380957326 l -6.576248714871117 10.110651089812588 a33.061190348376584,33.061190348376584 0 0,0 -0.47438919722571626,-0.31439929226892416 l 6.749312610836795 -9.995953776452344" fill="#ff6b09" stroke="none" /><path d="M 88.24862548938628 117.40417183066458 l -5.122573200337427 7.5866992506542035 a30.154166358150384,30.154166358150384 0 0,0 -0.42767670712910216,-0.2941599389278148 l 5.2524067920894195 -7.497398522361287" fill="#ff4006" stroke="none" /><path d="M 87.95078237400918 117.19931262002967 l -7.187860606267632 10.260106960780963 a33.52737542112473,33.52737542112473 0 0,0 -0.46981858835180595,-0.3352030883318201 l 7.363406522468326 -10.134859610604922" fill="#ff720a" stroke="none" /><path d="M 87.65650970185807 116.9893568818739 l -9.017103368805044 12.41097805184298 a36.34081253933583,36.34081253933583 0 0,0 -0.502913633863452,-0.3720434833652542 l 9.229401973087061 -12.253924619737958" fill="#ff9a0e" stroke="none" /><path d="M 87.07902340077011 116.55440617244103 l -8.1629110382986 10.458353812478194 a34.266886638776796,34.266886638776796 0 0,0 -0.4618564529052117,-0.3669266989376963 l 8.341724983921168 -10.316293199535366" fill="#ff7d0b" stroke="none" /><path d="M 86.51685102203217 116.09983520530335 l -7.353653595178502 8.780783423273006 a32.45331300211025,32.45331300211025 0 0,0 -0.4251917526824389,-0.36235763597405796 l 7.503710824437997 -8.652901397075997" fill="#ff6209" stroke="none" /><path d="M 86.24171649860922 115.8653595955263 l -6.49947862956514 7.494871408273109 a30.920499981489023,30.920499981489023 0 0,0 -0.39910657009211015,-0.35216514478107364 l 6.627527552563839 -7.381883121719747" fill="#ff4c07" stroke="none" /><path d="M 85.70375840098266 115.38237550388516 l -11.289828421318683 12.147554932416359 a37.58382695938691,37.58382695938691 0 0,0 -0.4700916451755849,-0.44450099215458144 l 11.497255900885085 -11.951419303515847" fill="#ffac0f" stroke="none" /><path d="M 85.18274418774928 114.88116024355367 l -18.121118218056992 18.19927167433604 a46.68245344489282,46.68245344489282 0 0,0 -0.5645450808447214,-0.5718811863335117 l 18.431703923957247 -17.884649994021864" fill="#daff1b" stroke="none" /><path d="M 84.67929136418377 114.36230785411682 l -8.692131244080402 8.148387114681213 a32.91425021287624,32.91425021287624 0 0,0 -0.38392684846530367,-0.4166767675356067 l 8.831104500541434 -7.997559092344263" fill="#ff6909" stroke="none" /><path d="M 84.19399662182784 113.82643327865904 l -6.929865425419417 6.06195757663617 a30.207082299803783,30.207082299803783 0 0,0 -0.33897739085527184,-0.39430728694707645 l 7.033185325845468 -5.941773190527564" fill="#ff4106" stroke="none" /><path d="M 83.50135304334701 112.99209946851258 l -9.004249118731822 7.090526907884249 a32.460893247195585,32.460893247195585 0 0,0 -0.3419108711091286,-0.4419658909577968 l 9.12496680705902 -6.9344830228131995" fill="#ff6209" stroke="none" /><path d="M 83.06392112726016 112.41649034213515 l -7.220883855946791 5.293907481935249 a29.953581411276886,29.953581411276886 0 0,0 -0.3012762707040023,-0.41844638964057657 l 7.310939919026401 -5.168827486843534" fill="#ff3d05" stroke="none" /><path d="M 82.6465618267979 111.8261652097733 l -7.119721662856821 4.8520070658142105 a29.615823183147604,29.615823183147604 0 0,0 -0.28346135669131267,-0.42373626771158657 l 7.202186124958864 -4.728733883896803" fill="#ff3805" stroke="none" /><path d="M 82.05923443525364 110.91462005526583 l -9.984702563686845 6.074391555599219 a32.687280182148015,32.687280182148015 0 0,0 -0.28830044814971406,-0.48320813410971647 l 10.08778388753479 -5.901621327603392" fill="#ff6609" stroke="none" /><line stroke="#e1ed5e" stroke-width="0.3" x1="26.63291911575756" x2="22.317208475507996" y1="142.92168965132927" y2="145.44649492493687" /><path d="M 25.769776987707644 143.4266507060508 a86.0,86.0 0 0,1 -11.730757126820373,-40.83630448921669" fill="none" id="id117" stroke="none" /><text fill="#e1ed5e" style="font-size:6.75px; font-family:Arial;" text-anchor="middle"><textPath startOffset="21.46611528233685" xlink:href="#id117">September</textPath></text><path d="M 81.35079622478065 109.6543875284942 l -10.766564868785702 5.5736743963325495 a33.123727370330606,33.123727370330606 0 0,0 -0.2577677899284035,-0.5086003039653144 l 10.860911328500372 -5.38751988066455" fill="#ff6c0a" stroke="none" /><path d="M 81.02952815118164 109.00673069616217 l -10.353132728939828 4.915422193728499 a32.46074747325164,32.46074747325164 0 0,0 -0.2353023677038742,-0.5068203665527966 l 10.43620971348353 -4.7364817598968765" fill="#ff6209" stroke="none" /><path d="M 80.32549172779594 107.34259656027581 l -12.868990171642409 4.802752966488205 a34.735987190403904,34.735987190403904 0 0,0 -0.2042405565737229,-0.5619822938622392 l 12.949754989221356 -4.580522875619849" fill="#ff830c" stroke="none" /><path d="M 79.67330655649465 105.27499134158121 l -11.926204439340003 3.0949758420028077 a33.32125106438117,33.32125106438117 0 0,0 -0.13929661128506693,-0.5564207192727858 l 11.977712364920128 -2.8892272833326302" fill="#ff6f0a" stroke="none" /><path d="M 79.4281124754447 104.21870165774334 l -14.005463798486858 2.8721172655457687 a35.29692532671875,35.29692532671875 0 0,0 -0.11693378384441523,-0.5962428445886152 l 14.05282751530694 -2.630610693889199" fill="#ff8b0c" stroke="none" /><path d="M 79.23777060512086 103.15116336523772 l -13.044900042963754 1.9798746240957164 a34.19429121469031,34.19429121469031 0 0,0 -0.08331349332449528,-0.5826943782665588 l 13.077047587304847 -1.7550347738487568" fill="#ff7c0b" stroke="none" /><path d="M 79.1416061653843 102.43462659150553 l -13.375355276046992 1.5611938236517526 a34.466159620154755,34.466159620154755 0 0,0 -0.06370938059770416,-0.5898697399042772 l 13.400246958145747 -1.3307277618626934" fill="#ff800b" stroke="none" /><path d="M 79.07016306316243 101.71520430193888 l -15.317161888258315 1.2552444648049204 a36.368509588686095,36.368509588686095 0 0,0 -0.04576100855153355,-0.6243726043950706 l 15.336499455474184 -0.9913987239130889" fill="#ff9b0e" stroke="none" /><path d="M 79.04373962182676 101.35467743843564 l -9.467499384039865 0.6120084205157279 a30.487259820073305,30.487259820073305 0 0,0 -0.02934565582874368,-0.5239863981187921 l 9.47663139075614 -0.44895030606149827" fill="#ff4506" stroke="none" /><line stroke="#e1ed5e" stroke-width="0.3" x1="15.007084014347285" x2="10.007500721073583" y1="101.09737516637583" y2="101.16192664675087" /><path d="M 14.007167355692545 101.11028546245083 a86.0,86.0 0 0,1 10.666146001902534,-42.60595125391555" fill="none" id="id118" stroke="none" /><text fill="#e1ed5e" style="font-size:6.75px; font-family:Arial;" text-anchor="middle"><textPath startOffset="22.20632615414155" xlink:href="#id118">October</textPath></text><path d="M 79.00175016825051 100.2711162175752 l -11.732075352110163 0.1514771906829143 a32.73305320054793,32.73305320054793 0 0,0 -0.002424899980330213,-0.5634613562596631 l 11.732944549379996 0.05049364378042415" fill="#ff6609" stroke="none" /><path d="M 79.00486145842228 99.54816195383935 l -14.916654961420948 -0.321022517649674 a35.9201089370997,35.9201089370997 0 0,0 0.018624243871126475,-0.6180479841295416 l 14.908919023094176 0.5777406492042101" fill="#ff940d" stroke="none" /><path d="M 79.03285615573316 98.82574320788736 l -16.040755781583155 -0.8983563315560792 a37.06589213653697,37.06589213653697 0 0,0 0.04115974754848624,-0.6367230768395846 l 16.022915443030257 1.1743384726486756" fill="#ffa40f" stroke="none" /><path d="M 79.16333360222342 97.38593545837743 l -13.020071909097137 -1.6334334704604485 a34.12213311243568,34.12213311243568 0 0,0 0.07812993717747978,-0.5821587820863733 l 12.990025972861822 1.857310594611481" fill="#ff7b0b" stroke="none" /><path d="M 79.46518482838121 95.60439243477599 l -14.282134625512569 -3.0571815953920685 a35.60567454000222,35.60567454000222 0 0,0 0.1334460209941342,-0.5982123459815236 l 14.227394217516396 3.3025721109235513" fill="#ff900d" stroke="none" /><path d="M 80.2630227832202 92.82701384747504 l -13.735178075158801 -4.991759429697154 a35.614129428751255,35.614129428751255 0 0,0 0.21435535925253857,-0.5743657920171661 l 13.647218127404635 5.227448358743661" fill="#ff900d" stroke="none" /><path d="M 80.65960295795068 91.81776055985345 l -22.375244802692254 -9.466176423859146 a45.29526859427641,45.29526859427641 0 0,0 0.3099690903413609,-0.7154513970905347 l 22.208985002508214 9.84992696553628" fill="#ecff1a" stroke="none" /><path d="M 81.26839172434947 90.50648371742162 l -13.16503837343858 -6.672278446131869 a35.759320276924214,35.759320276924214 0 0,0 0.2829934146014792,-0.5466532020153222 l 13.048235525676986 6.8979043704075265" fill="#ff920d" stroke="none" /><line stroke="#e1ed5e" stroke-width="0.3" x1="26.266209847984243" x2="21.928928074336255" y1="57.711370442889674" y2="55.22380399835377" /><path d="M 25.398753493254645 57.213857153982495 a86.0,86.0 0 0,1 29.58750427330803,-30.492523968695096" fill="none" id="id119" stroke="none" /><text fill="#e1ed5e" style="font-size:6.75px; font-family:Arial;" text-anchor="middle"><textPath startOffset="21.46611528233685" xlink:href="#id119">November</textPath></text><path d="M 81.78341655067845 89.55222093294921 l -23.631196654897384 -13.553228706538425 a48.24194309725667,48.24194309725667 0 0,0 0.4193380951027282,-0.7167847349712447 l 23.394398885324332 13.95799285386356" fill="#c7ff1e" stroke="none" /><path d="M 81.96595687620814 89.24020034530311 l -8.004730615290692 -4.7759283439174105 a30.321223297915665,30.321223297915665 0 0,0 0.27127994449115456,-0.44591290048480137 l 7.921334872513321 4.913009017609286" fill="#ff4306" stroke="none" /><path d="M 82.34701348167596 88.62581576622439 l -12.457565406959253 -8.026666983288255 a35.819524915775055,35.819524915775055 0 0,0 0.3384149649128847,-0.5154292088785286 l 12.317553806688448 8.239914256144452" fill="#ff930d" stroke="none" /><path d="M 82.7489923806493 88.02491185347247 l -12.219277452786917 -8.482224795951199 a35.87477324053164,35.87477324053164 0 0,0 0.3565053544141182,-0.5042515412957768 l 12.071459478568922 8.691302837578762" fill="#ff940d" stroke="none" /><path d="M 83.17141714833178 87.43820079747576 l -25.861306473760788 -19.30433132140531 a53.27172725926475,53.27172725926475 0 0,0 0.5548480217819235,-0.7301149581109576 l 25.525182511754753 19.746631055397295" fill="#8bff24" stroke="none" /><path d="M 83.39014120810768 87.1503855733568 l -5.170365067506022 -3.999865284518076 a27.536940968494317,27.536940968494317 0 0,0 0.2932630705013551,-0.37241431820563403 l 5.100747916410696 4.088271996676758" fill="#ff1902" stroke="none" /><path d="M 83.84228863543731 86.58626213691792 l -11.073955861667711 -9.193328045303415 a35.39269880789308,35.39269880789308 0 0,0 0.3931781424727794,-0.4653989059177111 l 10.914067105707808 9.382585900850243" fill="#ff8d0d" stroke="none" /><path d="M 84.31358615837235 86.03803664274999 l -11.437816512289514 -10.180425981606332 a36.31224084632187,36.31224084632187 0 0,0 0.41959029356389577,-0.46332208203659636 l 11.260882578109573 10.375800850912483" fill="#ff9a0e" stroke="none" /><path d="M 84.80347519578584 85.50635884689758 l -26.56325643255601 -25.33462824898901 a57.70762837362556,57.70762837362556 0 0,0 0.6917653485038785,-0.7129249995240979 l 26.123226820349014 25.788117444063232" fill="#59ff2a" stroke="none" /><path d="M 85.05521093208273 85.24692304244772 l -5.098558561703545 -5.03315413095236 a28.164352023249787,28.164352023249787 0 0,0 0.34355708094485216,-0.3420817376571942 l 5.011165680591379 5.120171719259663" fill="#ff2203" stroke="none" /><path d="M 85.57189188830299 84.74124197986013 l -9.870515753295484 -10.438777575516765 a35.366459497982305,35.366459497982305 0 0,0 0.44594093586448785,-0.41445349948715093 l 9.689366933636139 10.607135661078562" fill="#ff8c0c" stroke="none" /><path d="M 86.37877921826538 84.01681056812374 l -9.776999217491879 -11.472366028897044 a36.073317352189854,36.073317352189854 0 0,0 0.47606895338293137,-0.3986940574480462 l 9.578072727149838 11.638961243738901" fill="#ff960d" stroke="none" /><path d="M 86.93701828274178 83.55741782278169 l -18.21634517312395 -22.929202456277444 a50.28452759986672,50.28452759986672 0 0,0 0.6823549211975884,-0.5325888393291295 l 17.818957696766937 23.239369684829793" fill="#aeff20" stroke="none" /><path d="M 87.51073957382395 83.11751280151077 l -8.682829908158777 -11.737105302401977 a35.59969780830032,35.59969780830032 0 0,0 0.4957761124013067,-0.3602024300287164 l 8.47950847940369 11.884826967247362" fill="#ff900d" stroke="none" /><path d="M 88.09926311788651 82.69761687909137 l -8.699695964528601 -12.648416153115075 a36.35145403724408,36.35145403724408 0 0,0 0.5186059514787987,-0.3501650534455744 l 8.480685318643264 12.796293118859316" fill="#ff9a0e" stroke="none" /><path d="M 88.70189139769569 82.29822771554957 l -8.764938260927918 -13.732824372972322 a37.29155020176965,37.29155020176965 0 0,0 0.5440674647700603,-0.34069499652616814 l 8.527251643785615 13.881663710821421" fill="#ffa70f" stroke="none" /><path d="M 89.00827224532344 82.1063720568725 l -19.10698290190057 -31.104595273190327 a57.504419495760985,57.504419495760985 0 0,0 0.8478833160009983,-0.5108402108594328 l 18.56873751968192 31.428882093508378" fill="#5bff2a" stroke="none" /><line stroke="#e1ed5e" stroke-width="0.3" x1="56.762969772571076" x2="54.21961505331055" y1="26.818313649435495" y2="22.513508569990535" /><path d="M 56.25429882871897 25.957352633546506 a86.0,86.0 0 0,1 42.265352541879196,-11.944610805530505" fill="none" id="id120" stroke="none" /><text fill="#e1ed5e" style="font-size:6.75px; font-family:Arial;" text-anchor="middle"><textPath startOffset="22.20632615414155" xlink:href="#id120">December</textPath></text><path d="M 89.63071344664047 81.73862282372117 l -7.509776605029707 -13.225486863376425 a36.2088871200622,36.2088871200622 0 0,0 0.5446435810827202,-0.30309356319944225 l 7.281008934874941 13.352795824136052" fill="#ff980e" stroke="none" /><path d="M 90.26544431104013 81.39251694778311 l -6.919396496599394 -13.226341001681527 a35.92696031246529,35.92696031246529 0 0,0 0.5504344139690676,-0.2819538858235835 l 6.6907015950415625 13.343487412817616" fill="#ff940d" stroke="none" /><path d="M 91.23893434514133 80.91482961587045 l -18.399259583278177 -40.08108350311832 a65.10244900225834,65.10244900225834 0 0,0 1.0224738958357,-0.4587542326627962 l 17.7066035689757 40.39185806629765" fill="#34ff5b" stroke="none" /><path d="M 91.90106846888425 80.62456947434976 l -4.068786594129063 -9.733937331778382 a31.550097645403724,31.550097645403724 0 0,0 0.502872695141823,-0.20513439872976377 l 3.9006300293988594 9.802532616691723" fill="#ff5507" stroke="none" /><path d="M 92.57280143429618 80.3572730644239 l -4.011064620986757 -10.608070643864206 a32.341067065269705,32.341067065269705 0 0,0 0.5224124548530544,-0.19240891594244613 l 3.8278698403611338 10.675542827612974" fill="#ff6108" stroke="none" /><path d="M 94.28887869178378 79.79150937346287 l -3.050241152591698 -10.793111617529197 a32.21584724741772,32.21584724741772 0 0,0 0.5349397112200328,-0.1462192305410969 l 2.864003552147943 10.84401738889659" fill="#ff5f08" stroke="none" /><path d="M 94.98787191387505 79.60689891045804 l -2.8693185410299833 -11.674542641339587 a33.02197715745437,33.02197715745437 0 0,0 0.5531594939836534,-0.13091498035946944 l 2.6679353600837956 11.722203533839927" fill="#ff6b09" stroke="none" /><path d="M 96.04723909329186 79.375362276772 l -11.858282720124423 -61.87391316968403 a84.0,84.0 0 0,0 1.4224195155884267,-0.2599380745970552 l 10.791468083433102 62.06886672563182" fill="#4dd2ff" stroke="none" /></svg>