<?xml version="1.0" encoding="utf-8" ?>
<svg baseProfile="full" height="200mm" version="1.1" viewBox="0,0,200,200" width="200mm" xmlns="http://www.w3.org/2000/svg" xmlns:ev="http://www.w3.org/2001/xml-events" xmlns:xlink="http://www.w3.org/1999/xlink"><defs /><rect fill="#1a1a1a" height="200" width="200" x="0" y="0" /><text alignment-baseline="middle" fill="#e1ed5e" style="dominant-baseline: central; font-size:9.0px; font-family:Arial;" text-anchor="middle" x="100.0" y="100.0">2025</text><line stroke="#e1ed5e" stroke-width="0.3" x1="100.0" x2="100.0" y1="15.0" y2="10.0" /><path d="M 100.0 14.0 a86.0,86.0 0 0,1 42.46469731375804,11.215312516191453" fill="none" id="id109" stroke="none" /><text fill="#e1ed5e" style="font-size:6.75px; font-family:Arial;" text-anchor="middle"><textPath startOffset="22.20632615414155" xlink:href="#id109">January</textPath></text><path d="M 100.72285384407766 79.0124445844662 l 0.820484993484542 -23.82220750356924 a44.83633289681204,44.83633289681204 0 0,0 0.7710977460822603,0.03320509099349826 l -1.2304235719561338 23.804554686051546" fill="#ffe915" stroke="none" /><path d="M 102.52436894288641 79.15227682838746 l 3.413113186783491 -28.187495758873478 a49.39338406710806,49.39338406710806 0 0,0 0.8431809855815934,0.10946909138481059 l -3.8978089008729304 28.124568344324533" fill="#d6ff1c" stroke="none" /><path d="M 104.307194497241 79.44645832069477 l 5.413929054957682 -25.83477865955492 a47.39595454232162,47.39595454232162 0 0,0 0.7970583901099774,0.1742060921680448 l -5.857830169221188 25.737759069291005" fill="#f1ff19" stroke="none" /><path d="M 105.01212808612495 79.60689891045804 l 7.168842654056502 -29.16823561311316 a51.03628262253341,51.03628262253341 0 0,0 0.8513121979634464,0.21701843451767186 l -7.669863740704973 29.04051418242662" fill="#c0ff1e" stroke="none" /><path d="M 106.74666289553966 80.11325718540242 l 9.278176182368213 -27.3487361654406 a49.87971473401258,49.87971473401258 0 0,0 0.810706870043275,0.28283970831142335 l -9.747565056474762 27.184975603956968" fill="#d0ff1d" stroke="none" /><path d="M 107.4271985657038 80.35727306442388 l 10.676867070145603 -28.237131743688785 a51.188260955941075,51.188260955941075 0 0,0 0.821490747454399,0.31872564738780707 l -11.16134098259967 28.04916339241043" fill="#beff1e" stroke="none" /><path d="M 109.08828744355905 81.06846463323043 l 5.586241948536858 -11.636530828589441 a33.90794130883408,33.90794130883408 0 0,0 0.524004820535265,0.25712688970870473 l -5.785718036082556 11.538648778745904" fill="#ff4506" stroke="none" /><line stroke="#e1ed5e" stroke-width="0.3" x1="143.23703022742887" x2="145.7803849466894" y1="26.81831364943548" y2="22.513508569990506" /><path d="M 143.74570117128098 25.957352633546492 a86.0,86.0 0 0,1 28.547481713284135,27.462654790039103" fill="none" id="id110" stroke="none" /><text fill="#e1ed5e" style="font-size:6.75px; font-family:Arial;" text-anchor="middle"><textPath startOffset="19.985693538727396" xlink:href="#id110">February</textPath></text><path d="M 113.6212207817346 84.01681056812373 l 18.07715099777226 -21.211793965887907 a48.869761237720304,48.869761237720304 0 0,0 0.6355540406034953,0.5511462011578373 l -18.43959883702252 20.897482771310397" fill="#ddff1b" stroke="none" /><path d="M 115.4437574822437 85.77008943001954 l 9.406311318483741 -8.666994998420073 a33.79044545443488,33.79044545443488 0 0,0 0.3904507845683617,0.43114550840172206 l -9.554105743668138 8.503796702748803" fill="#ff4306" stroke="none" /><line stroke="#e1ed5e" stroke-width="0.3" x1="172.23445277983987" x2="176.4835382374775" y1="55.19839476539836" y2="52.563006222186495" /><path d="M 173.08426987136738 54.67131705675599 a86.0,86.0 0 0,1 12.851231095245387,41.99856678651699" fill="none" id="id111" stroke="none" /><text fill="#e1ed5e" style="font-size:6.75px; font-family:Arial;" text-anchor="middle"><textPath startOffset="22.20632615414155" xlink:href="#id111">March</textPath></text><path d="M 118.03404312379186 89.2402003453031 l 21.993830485710696 -13.122360196278265 a46.61103114978086,46.61103114978086 0 0,0 0.4051615618740339,0.6925524442926435 l -22.216451722055055 12.741828339631727" fill="#fcff18" stroke="none" /><path d="M 120.08093135843002 93.85539295169968 l 60.24279407529006 -18.433821144900946 a84.0,84.0 0 0,0 0.41117641155319085,1.3862824530138804 l -60.551176383954946 17.394109305140535" fill="#4dd2ff" stroke="none" /><path d="M 120.53481517161879 95.60439243477599 l 20.316851255093155 -4.348951005015474 a41.77709844433542,41.77709844433542 0 0,0 0.14447058588838696,0.7044898844760396 l -20.38870113689654 3.998585464376023" fill="#ffbd11" stroke="none" /><path d="M 120.87857604477298 97.74499172005257 l 12.481333249841445 -1.348056963406847 a33.55392119101388,33.55392119101388 0 0,0 0.05707821474166632,0.5747698330106038 l -12.50268859026534 1.1330115996918084" fill="#ff3f05" stroke="none" /><line stroke="#e1ed5e" stroke-width="0.3" x1="184.98032266829074" x2="189.97916517819016" y1="98.17113171792111" y2="98.06355123074" /><path d="M 185.9800911702706 98.14961562048488 a86.0,86.0 0 0,1 -9.607161424134198,41.387399972396054" fill="none" id="id112" stroke="none" /><text fill="#e1ed5e" style="font-size:6.75px; font-family:Arial;" text-anchor="middle"><textPath startOffset="21.466115282336823" xlink:href="#id112">April</textPath></text><path d="M 120.99980553446 99.90962569577887 l 28.015349920704182 -0.1205662477416955 a49.01560935263758,49.01560935263758 0 0,0 -0.003631129348883797,0.8437465810023481 l -28.013274494065797 -0.3616898114643374" fill="#dbff1b" stroke="none" /><path d="M 120.9904718944345 100.63252640178507 l 26.474102575196433 0.7977700037709896 a47.486119839284484,47.486119839284484 0 0,0 -0.03165259032962612,0.8168127112842457 l -26.456447852015604 -1.2533599620692415" fill="#f0ff19" stroke="none" /><path d="M 120.89721153311464 102.0752229133903 l 14.477330450033582 1.4376888431752837 a35.54854103232555,35.54854103232555 0 0,0 -0.0657101213271571,0.6083941142212961 l -14.450438027205372 -1.6866792792813712" fill="#ff5f08" stroke="none" /><path d="M 120.13307415673323 105.97154293290107 l 12.256550794682134 3.6353374904373275 a33.78431523594449,33.78431523594449 0 0,0 -0.17016552672267066,0.5561107870411711 l -12.19215849545333 -3.8457752500305555" fill="#ff4306" stroke="none" /><path d="M 119.67450827220406 107.3425965602758 l 17.069767922146895 6.370498184543489 a39.219775630759756,39.219775630759756 0 0,0 -0.24149244486268656,0.6304605698588697 l -16.9575811976907 -6.6633823212355034" fill="#ff970e" stroke="none" /><path d="M 119.54520255179757 107.68017299344265 l 13.184078984754603 5.18060670355215 a35.16540237667598,35.16540237667598 0 0,0 -0.22622637760360964,0.5614753165219658 l -13.092949992893601 -5.406781387916929" fill="#ff5908" stroke="none" /><path d="M 119.12269723197855 108.67885076344098 l 13.312164186571003 6.041735896987772 a35.619038544965065,35.619038544965065 0 0,0 -0.25819627572876774,0.5561318077007564 l -13.206193294002404 -6.26998777196736" fill="#ff6008" stroke="none" /><path d="M 118.81262510543309 109.33194174019688 l 9.956206209228156 4.938743837034786 a32.11383069731235,32.11383069731235 0 0,0 -0.24990880622920628,0.4930937835448141 l -9.86971873321268 -5.109391832282294" fill="#ff2803" stroke="none" /><line stroke="#e1ed5e" stroke-width="0.3" x1="174.80103733775053" x2="179.2010983576182" y1="140.37084112569926" y2="142.7455964860345" /><path d="M 175.68104954172406 140.8457921977663 a86.0,86.0 0 0,1 -30.038265399797805,32.042727171017184" fill="none" id="id113" stroke="none" /><text fill="#e1ed5e" style="font-size:6.75px; font-family:Arial;" text-anchor="middle"><textPath startOffset="22.206326154141568" xlink:href="#id113">May</textPath></text><path d="M 118.30583269289576 110.29060199501025 l 18.33396160016245 10.306414626650234 a42.03226878899804,42.03226878899804 0 0,0 -0.3599723637565684,0.627642158370416 l -18.1538372402535 -10.620476630878965" fill="#ffc112" stroke="none" /><path d="M 116.71984013943494 112.70617746262583 l 10.581113280779409 8.041075870135316 a34.28980283563149,34.28980283563149 0 0,0 -0.36117479172277295,0.46686710515356344 l -10.441131671838567 -8.222020969402132" fill="#ff4b07" stroke="none" /><path d="M 114.29624159901734 115.38237550388516 l 9.344517394773817 10.054452037161825 a34.726325477301565,34.726325477301565 0 0,0 -0.44135580548819564,0.4031680638683216 l -9.170062039818758 -10.21381286761673" fill="#ff5207" stroke="none" /><path d="M 113.75828350139079 115.86535959552629 l 10.094179059188548 11.640098896019156 a36.40728247252146,36.40728247252146 0 0,0 -0.47699525296200057,0.40650570276523285 l -9.8923183296495 -11.812128989007336" fill="#ff6c0a" stroke="none" /><path d="M 112.92097659922987 116.55440617244103 l 14.936914443564351 19.137233688396535 a45.276431499268185,45.276431499268185 0 0,0 -0.6185003558796331,0.4742396986803315 l -14.605285359191225 -19.391512728904235" fill="#fff016" stroke="none" /><path d="M 112.34349029814194 116.9893568818739 l 8.935914879018718 12.299231682350714 a36.20268643040458,36.20268643040458 0 0,0 -0.5073076797582896,0.3619505596532315 l -8.722879871411543 -12.451226503848163" fill="#ff6909" stroke="none" /><path d="M 111.7513745106137 117.40417183066458 l 12.185654184253538 18.04735429887424 a42.776068632499076,42.776068632499076 0 0,0 -0.6137862746384645,0.40678407408779266 l -11.87319321087511 -18.25443639405335" fill="#ffcc13" stroke="none" /><path d="M 111.1453310114006 117.79835938074945 l 7.34950095622185 11.736668848524388 a34.8479081440277,34.8479081440277 0 0,0 -0.5111371689147061,0.31398219655977755 l -7.146384587374835 -11.861439511912543" fill="#ff5407" stroke="none" /><line stroke="#e1ed5e" stroke-width="0.3" x1="143.8653032363475" x2="146.44561519142675" y1="172.8068346515853" y2="177.08958963109032" /><path d="M 144.38136562736335 173.6633856474863 a86.0,86.0 0 0,1 -40.68145358897372,12.25698825130547" fill="none" id="id114" stroke="none" /><text fill="#e1ed5e" style="font-size:6.75px; font-family:Arial;" text-anchor="middle"><textPath startOffset="21.466115282336833" xlink:href="#id114">June</textPath></text><path d="M 109.89434966115114 118.52300852407294 l 7.399009655709169 13.851533816367452 a36.703831791994226,36.703831791994226 0 0,0 -0.5598367254815708,0.29288011525427854 l -7.159482027701103 -13.976843350566446" fill="#ff710a" stroke="none" /><path d="M 109.2508944713604 118.85261126421891 l 3.8242121379719896 7.793450141745183 a29.681155659708004,29.681155659708004 0 0,0 -0.4606053632672397,0.2211185653101046 l -3.689494106704517 -7.858122983554848" fill="#ff0000" stroke="none" /><path d="M 108.92500713936063 119.00905698771935 l 10.273309332453254 21.880758133159638 a45.17247321070194,45.17247321070194 0 0,0 -0.7066953885740219,0.3244091916743572 l -9.895145948111812 -22.05435439516807" fill="#ffee16" stroke="none" /><path d="M 107.93186726928326 119.44442032107085 l 6.041541865139934 14.810419214660206 a36.995272596058335,36.995272596058335 0 0,0 -0.591711064338186,0.2354540440248038 l -5.785709724759882 -14.912220103091078" fill="#ff760a" stroke="none" /><path d="M 107.2578585660854 119.70592522655815 l 6.443167642374023 17.493945166705444 a39.642760706596874,39.642760706596874 0 0,0 -0.6423645729090985,0.23032908160839677 l -6.14108350883519 -17.6022617893538" fill="#ff9e0e" stroke="none" /><path d="M 106.57524785965236 119.94407469862006 l 4.247824398645542 12.884522214450278 a34.56668437078091,34.56668437078091 0 0,0 -0.5666938857065936,0.18143748660017103 l -4.025409167848008 -12.955732547710156" fill="#ff5007" stroke="none" /><path d="M 106.2309692047433 120.05430185196036 l 8.50873003867711 27.38524858100349 a49.676651246518304,49.676651246518304 0 0,0 -0.8187777229725781,0.24669101139555993 l -8.036077341264285 -27.527654961504776" fill="#d2ff1c" stroke="none" /><path d="M 104.83641907484287 120.43548508189849 l 3.9173412086739674 16.55207429128006 a38.00931290467753,38.00931290467753 0 0,0 -0.637976996872414,0.14520148741338587 l -3.631844062408691 -16.61705251227113" fill="#ff850c" stroke="none" /><path d="M 104.48393922423573 120.51570834832081 l 3.4528479035183564 15.798077765375508 a37.171005526116275,37.171005526116275 0 0,0 -0.6262580543997959,0.13123846429248615 l -3.1803983876891824 -15.855172210394535" fill="#ff780b" stroke="none" /><path d="M 103.06178313531738 120.77559828337769 l 2.41123475244857 16.361330104001123 a37.538052358228555,37.538052358228555 0 0,0 -0.6400620615244486,0.08870676946850127 l -2.1292440997372912 -16.400411438962227" fill="#ff7e0b" stroke="none" /><path d="M 102.70371172650421 120.8252237178851 l 2.1471009818500906 16.53795330825898 a37.67674855157371,37.67674855157371 0 0,0 -0.6438643735118301,0.07796300893602552 l -1.86210918528688 -16.57246184592036" fill="#ff800b" stroke="none" /><path d="M 101.98527174616119 120.90594882070398 l 1.557030583760026 16.396345618326755 a37.47010910329337,37.47010910329337 0 0,0 -0.6426225099235949,0.05544817417070963 l -1.2745637560948895 -16.42071804477613" fill="#ff7d0b" stroke="none" /><path d="M 101.62511606390274 120.93702456842531 l 1.7601476216091823 22.676690493838194 a43.744898579751634,43.744898579751634 0 0,0 -0.7512399739908248,0.0518099069831252 l -1.369544886839427 -22.703628745337603" fill="#ffda14" stroke="none" /><path d="M 100.90346689309514 120.98055641714683 l 0.6050536248219341 14.050721512867835 a35.06374292004362,35.06374292004362 0 0,0 -0.6032293671963695,0.02077643909951094 l -0.36310390595091235 -14.05905475039344" fill="#ff5708" stroke="none" /><line stroke="#e1ed5e" stroke-width="0.3" x1="102.19456741930631" x2="102.32365962044197" y1="184.97166512339345" y2="189.96999836594603" /><path d="M 102.22038585953345 185.97133177190398 a86.0,86.0 0 0,1 -42.740103519485714,-10.115201625700543" fill="none" id="id115" stroke="none" /><text fill="#e1ed5e" style="font-size:6.75px; font-family:Arial;" text-anchor="middle"><textPath startOffset="22.20632615414155" xlink:href="#id115">July</textPath></text><path d="M 100.54218724476979 120.99299961872073 l 0.3627477924216471 14.045266356704353 a35.04994992844024,35.04994992844024 0 0,0 -0.603260227208662,0.010385671894954079 l -0.12092787532031715 -14.049429505878468" fill="#ff5708" stroke="none" /><path d="M 99.81925306533755 120.99922214144158 l -0.23504495622287294 27.307579285741372 a48.30859082007889,48.30859082007889 0 0,0 -0.8314605736598824,-0.014314347809034284 l 0.7050652197754231 -27.29948746065318" fill="#e5ff1a" stroke="none" /><path d="M 99.09653310690486 120.98055641714683 l -0.5841305935531157 13.564841132183123 a34.5774122531391,34.5774122531391 0 0,0 -0.5944218279413734,-0.030724818776503984 l 0.8175404899079781 -13.552776506644417" fill="#ff5007" stroke="none" /><path d="M 98.37488393609728 120.93702456842531 l -1.0912689915864526 14.059257794016851 a35.101545934067715,35.101545934067715 0 0,0 -0.6020010106767034,-0.05194318028933316 l 1.3331143200046978 -14.038390361448855" fill="#ff5808" stroke="none" /><path d="M 98.01472825383883 120.90594882070398 l -1.5934685910938635 16.780056874945842 a37.85554659087684,37.85554659087684 0 0,0 -0.6481724091313128,-0.06718572042354064 l 1.8820735968307696 -16.750141786066543" fill="#ff830c" stroke="none" /><path d="M 97.2962882734958 120.8252237178851 l -2.0787647000261478 16.011596025756877 a37.14597380061383,37.14597380061383 0 0,0 -0.6333767224058504,-0.08778024238360836 l 2.3540700136188293 -15.973441217880664" fill="#ff780b" stroke="none" /><path d="M 96.93821686468263 120.77559828337769 l -3.1871855656448176 21.626511101529466 a42.86010371097154,42.86010371097154 0 0,0 -0.7289567584561211,-0.11384805391793268 l 3.5589781877094557 -21.568444740264425" fill="#ffcd13" stroke="none" /><path d="M 96.22490169976321 120.6578951692458 l -4.626231463737136 25.31542148201909 a46.734657222670464,46.734657222670464 0 0,0 -0.7901103255208979,-0.15142652436449988 l 5.061309403829728 -25.23203775930612" fill="#faff18" stroke="none" /><path d="M 95.51606077576429 120.51570834832081 l -2.7509888027384117 12.586808411993461 a33.88393128641338,33.88393128641338 0 0,0 -0.5687334779913092,-0.12944188795358552 l 2.967242430122584 -12.53758979046219" fill="#ff4506" stroke="none" /><path d="M 95.16358092515715 120.4354850818985 l -3.2476071616299724 13.72222437227743 a35.10129050829728,35.10129050829728 0 0,0 -0.5867710825815278,-0.14421405602902732 l 3.483331528954711 -13.664289057934374" fill="#ff5808" stroke="none" /><path d="M 94.46302465271185 120.25689768951611 l -3.662866548406929 13.400513505585744 a34.892096802312615,34.892096802312615 0 0,0 -0.5779939503333917,-0.1633468637897368 l 3.8929916668449347 -13.335477848457485" fill="#ff5507" stroke="none" /><path d="M 94.11515582081647 120.15858648285463 l -7.681622411238962 26.313466421651107 a48.411782831333845,48.411782831333845 0 0,0 -0.7979299795185093,-0.24040975730949626 l 8.133427365197717 -26.177341295235884" fill="#e3ff1b" stroke="none" /><path d="M 93.42475214034765 119.94407469862007 l -4.391860467138973 13.321413137902194 a35.02670618333083,35.02670618333083 0 0,0 -0.5709857943842366,-0.19370938261567083 l 4.620515994460436 -13.2438407683884" fill="#ff5708" stroke="none" /><path d="M 93.08242187328487 119.8279376855182 l -7.158749737606901 20.51921078495898 a42.7321353999846,42.7321353999846 0 0,0 -0.6924242766255605,-0.24827871032217083 l 7.510893574862188 -20.39294453359685" fill="#ffcb13" stroke="none" /><path d="M 92.7421414339146 119.70592522655815 l -4.687665542873429 12.727553979437793 a34.56336383576529,34.56336383576529 0 0,0 -0.5565191706461589,-0.21042793088589057 l 4.9060549342798705 -12.64497779844527" fill="#ff4f07" stroke="none" /><path d="M 92.40401165467489 119.57807347666478 l -4.623430839743757 11.916536016078757 a33.78201640401059,33.78201640401059 0 0,0 -0.5403174913769226,-0.21500348070104947 l 4.827869407162538 -11.835185690971642" fill="#ff4306" stroke="none" /><path d="M 92.06813273071674 119.44442032107085 l -5.356559794262387 13.131233362657914 a35.18174962598369,35.18174962598369 0 0,0 -0.5587675050038116,-0.23356486240898053 l 5.581798758763661 -13.03708345722896" fill="#ff5908" stroke="none" /><path d="M 91.40352486487194 119.15986991738527 l -10.93907359875162 24.381065945543803 a47.72264410270549,47.72264410270549 0 0,0 -0.7465912340161893,-0.3427234175492059 l 11.357132828535228 -24.189155457660522" fill="#edff1a" stroke="none" /><path d="M 90.7491055286396 118.85261126421891 l -5.779919648787625 11.779031596821328 a34.12071097560481,34.12071097560481 0 0,0 -0.5250464008977447,-0.26326916519461524 l 5.98181995736813 -11.677794590717411" fill="#ff4806" stroke="none" /><path d="M 90.10565033884886 118.52300852407294 l -10.478550620884453 19.6166791267402 a43.23992183160549,43.23992183160549 0 0,0 -0.6534935621873682,-0.35633679476839614 l 10.814666994940463 -19.433401680212036" fill="#ffd313" stroke="none" /><line stroke="#e1ed5e" stroke-width="0.3" x1="58.666819895761336" x2="56.23545636021788" y1="174.27360380694188" y2="178.64263932499728" /><path d="M 58.180547188652646 175.14741091055294 a86.0,86.0 0 0,1 -31.652253787137756,-30.449443065178592" fill="none" id="id116" stroke="none" /><text fill="#e1ed5e" style="font-size:6.75px; font-family:Arial;" text-anchor="middle"><textPath startOffset="22.20632615414155" xlink:href="#id116">August</textPath></text><path d="M 89.7882731507175 118.34994917583269 l -7.709502473595434 13.85358036396877 a36.85427757077929,36.85427757077929 0 0,0 -0.5516755999334555,-0.31325580349095056 l 7.946826840450096 -13.718821394683188" fill="#ff730a" stroke="none" /><path d="M 89.1626897886671 117.98757091392108 l -17.567728596926695 29.158597269208606 a55.041869554464476,55.041869554464476 0 0,0 -0.8073352713041736,-0.49593126319203046 l 18.067043068163176 -28.851877539188195" fill="#8dff24" stroke="none" /><path d="M 88.54995079064634 117.60387380957326 l -11.522933036275083 17.715929021601095 a42.13367281985996,42.13367281985996 0 0,0 -0.6045686502683898,-0.4006751352769983 l 11.826176385283434 -17.51495586523278" fill="#ffc312" stroke="none" /><path d="M 88.24862548938628 117.40417183066458 l -8.975796159811502 13.29344908047019 a37.03997210588412,37.03997210588412 0 0,0 -0.5253381278808461,-0.36133235464524255 l 9.20329117231524 -13.136975936459844" fill="#ff760a" stroke="none" /><path d="M 87.95078237400918 117.19931262002967 l -12.59460218601613 17.977806281375702 a42.95052443370486,42.95052443370486 0 0,0 -0.6018650283522857,-0.4294147172217333 l 12.902194542217302 -17.75834730230975" fill="#ffce13" stroke="none" /><path d="M 87.65650970185807 116.9893568818739 l -15.799809709895879 21.74657243158559 a47.88024180306268,47.88024180306268 0 0,0 -0.6626056137125408,-0.4901797923615624 l 16.171800294026983 -21.471382690484262" fill="#eaff1a" stroke="none" /><path d="M 87.07902340077011 116.55440617244103 l -14.303090006721083 18.325175320444096 a44.2462993671117,44.2462993671117 0 0,0 -0.5963611195640794,-0.47378534087807966 l 14.61640861900252 -18.076256065560887" fill="#ffe115" stroke="none" /><path d="M 86.51685102203217 116.09983520530335 l -12.885105418472001 15.385728821905127 a41.068547357154145,41.068547357154145 0 0,0 -0.5380654859420566,-0.45855108020125296 l 13.148036380991114 -15.161653351480924" fill="#ffb310" stroke="none" /><path d="M 86.24171649860922 115.8653595955263 l -11.388416142142189 13.132547915611543 a38.382745381050654,38.382745381050654 0 0,0 -0.49542555485586326,-0.4371554500187566 l 11.61278404990464 -12.934569323820497" fill="#ff8b0c" stroke="none" /><path d="M 85.70375840098266 115.38237550388516 l -19.78208892794895 21.28500123849864 a50.05825734754528,50.05825734754528 0 0,0 -0.6261195427639399,-0.5920351080947029 l 20.14554430510371 -20.94133149365801" fill="#cdff1d" stroke="none" /><path d="M 85.18274418774928 114.88116024355367 l -31.75190611281304 31.888846955883718 a66.0009122348944,66.0009122348944 0 0,0 -0.7981690674732567,-0.8085410513511638 l 32.29611580534183 -31.33756541055189" fill="#33ff57" stroke="none" /><path d="M 84.67929136418377 114.36230785411682 l -15.2303920685907 14.27764112141833 a41.87620364326345,41.87620364326345 0 0,0 -0.48846316675808205,-0.5301302948688081 l 15.473901643344512 -14.013359571748179" fill="#ffbf11" stroke="none" /><path d="M 84.19399662182784 113.82643327865904 l -12.14254185169924 10.62178975475199 a37.132691660551316,37.132691660551316 0 0,0 -0.41669509188607595,-0.48471053113956086 l 12.323579453156096 -10.411202124450899" fill="#ff780b" stroke="none" /><path d="M 83.50135304334701 112.99209946851258 l -15.777286434203722 12.424053635121385 a41.081829497216674,41.081829497216674 0 0,0 -0.43271526766638074,-0.5593428140638826 l 15.98880851908817 -12.15063282694425" fill="#ffb310" stroke="none" /><path d="M 83.06392112726016 112.41649034213515 l -12.65246567494298 9.276008870624207 a36.688506245768245,36.688506245768245 0 0,0 -0.3690168526980948,-0.5125321332716395 l 12.810262320016681 -9.056843131901427" fill="#ff710a" stroke="none" /><line stroke="#e1ed5e" stroke-width="0.3" x1="26.63291911575756" x2="22.317208475507996" y1="142.92168965132927" y2="145.44649492493687" /><path d="M 25.769776987707644 143.4266507060508 a86.0,86.0 0 0,1 -11.730757126820373,-40.83630448921669" fill="none" id="id117" stroke="none" /><text fill="#e1ed5e" style="font-size:6.75px; font-family:Arial;" text-anchor="middle"><textPath startOffset="21.46611528233685" xlink:href="#id117">September</textPath></text><line stroke="#e1ed5e" stroke-width="0.3" x1="15.007084014347285" x2="10.007500721073583" y1="101.09737516637583" y2="101.16192664675087" /><path d="M 14.007167355692545 101.11028546245083 a86.0,86.0 0 0,1 10.666146001902534,-42.60595125391555" fill="none" id="id118" stroke="none" /><text fill="#e1ed5e" style="font-size:6.75px; font-family:Arial;" text-anchor="middle"><textPath startOffset="22.20632615414155" xlink:href="#id118">October</textPath></text><line stroke="#e1ed5e" stroke-width="0.3" x1="26.266209847984243" x2="21.928928074336255" y1="57.711370442889674" y2="55.22380399835377" /><path d="M 25.398753493254645 57.213857153982495 a86.0,86.0 0 0,1 29.58750427330803,-30.492523968695096" fill="none" id="id119" stroke="none" /><text fill="#e1ed5e" style="font-size:6.75px; font-family:Arial;" text-anchor="middle"><textPath startOffset="21.46611528233685" xlink:href="#id119">November</textPath></text><line stroke="#e1ed5e" stroke-width="0.3" x1="56.762969772571076" x2="54.21961505331055" y1="26.818313649435495" y2="22.513508569990535" /><path d="M 56.25429882871897 25.957352633546506 a86.0,86.0 0 0,1 42.265352541879196,-11.944610805530505" fill="none" id="id120" stroke="none" /><text fill="#e1ed5e" style="font-size:6.75px; font-family:Arial;" text-anchor="middle"><textPath startOffset="22.20632615414155" xlink:href="#id120">December</textPath></text></svg>